<?xml version="1.0" encoding="utf-8" standalone="no"?>
<!DOCTYPE svg PUBLIC "-//W3C//DTD SVG 1.1//EN"
  "http://www.w3.org/Graphics/SVG/1.1/DTD/svg11.dtd">
<svg xmlns:xlink="http://www.w3.org/1999/xlink" width="629.382344pt" height="395.969687pt" viewBox="0 0 629.382344 395.969687" xmlns="http://www.w3.org/2000/svg" version="1.1">
 <metadata>
  <rdf:RDF xmlns:dc="http://purl.org/dc/elements/1.1/" xmlns:cc="http://creativecommons.org/ns#" xmlns:rdf="http://www.w3.org/1999/02/22-rdf-syntax-ns#">
   <cc:Work>
    <dc:type rdf:resource="http://purl.org/dc/dcmitype/StillImage"/>
    <dc:date>2025-01-30T10:52:13.662756</dc:date>
    <dc:format>image/svg+xml</dc:format>
    <dc:creator>
     <cc:Agent>
      <dc:title>Matplotlib v3.10.0, https://matplotlib.org/</dc:title>
     </cc:Agent>
    </dc:creator>
   </cc:Work>
  </rdf:RDF>
 </metadata>
 <defs>
  <style type="text/css">*{stroke-linejoin: round; stroke-linecap: butt}</style>
 </defs>
 <g id="figure_1">
  <g id="patch_1">
   <path d="M 0 395.969687 
L 629.382344 395.969687 
L 629.382344 0 
L 0 0 
z
" style="fill: #ffffff"/>
  </g>
  <g id="axes_1">
   <g id="patch_2">
    <path d="M 48.90125 356.477812 
L 606.90125 356.477812 
L 606.90125 23.837812 
L 48.90125 23.837812 
z
" style="fill: #ffffff"/>
   </g>
   <g id="patch_3">
    <path d="M 50.57525 356.477812 
L 52.80725 356.477812 
L 52.80725 356.477812 
L 50.57525 356.477812 
z
" clip-path="url(#pa70e182952)" style="fill: #4682b4; opacity: 0.8; stroke: #000000; stroke-width: 0.5; stroke-linejoin: miter"/>
   </g>
   <g id="patch_4">
    <path d="M 53.36525 356.477812 
L 55.59725 356.477812 
L 55.59725 356.477812 
L 53.36525 356.477812 
z
" clip-path="url(#pa70e182952)" style="fill: #4682b4; opacity: 0.8; stroke: #000000; stroke-width: 0.5; stroke-linejoin: miter"/>
   </g>
   <g id="patch_5">
    <path d="M 56.15525 356.477812 
L 58.38725 356.477812 
L 58.38725 356.477812 
L 56.15525 356.477812 
z
" clip-path="url(#pa70e182952)" style="fill: #4682b4; opacity: 0.8; stroke: #000000; stroke-width: 0.5; stroke-linejoin: miter"/>
   </g>
   <g id="patch_6">
    <path d="M 58.94525 356.477812 
L 61.17725 356.477812 
L 61.17725 356.477812 
L 58.94525 356.477812 
z
" clip-path="url(#pa70e182952)" style="fill: #4682b4; opacity: 0.8; stroke: #000000; stroke-width: 0.5; stroke-linejoin: miter"/>
   </g>
   <g id="patch_7">
    <path d="M 61.73525 356.477812 
L 63.96725 356.477812 
L 63.96725 356.477812 
L 61.73525 356.477812 
z
" clip-path="url(#pa70e182952)" style="fill: #4682b4; opacity: 0.8; stroke: #000000; stroke-width: 0.5; stroke-linejoin: miter"/>
   </g>
   <g id="patch_8">
    <path d="M 64.52525 356.477812 
L 66.75725 356.477812 
L 66.75725 356.477812 
L 64.52525 356.477812 
z
" clip-path="url(#pa70e182952)" style="fill: #4682b4; opacity: 0.8; stroke: #000000; stroke-width: 0.5; stroke-linejoin: miter"/>
   </g>
   <g id="patch_9">
    <path d="M 67.31525 356.477812 
L 69.54725 356.477812 
L 69.54725 356.145172 
L 67.31525 356.145172 
z
" clip-path="url(#pa70e182952)" style="fill: #4682b4; opacity: 0.8; stroke: #000000; stroke-width: 0.5; stroke-linejoin: miter"/>
   </g>
   <g id="patch_10">
    <path d="M 70.10525 356.477812 
L 72.33725 356.477812 
L 72.33725 355.147252 
L 70.10525 355.147252 
z
" clip-path="url(#pa70e182952)" style="fill: #4682b4; opacity: 0.8; stroke: #000000; stroke-width: 0.5; stroke-linejoin: miter"/>
   </g>
   <g id="patch_11">
    <path d="M 72.89525 356.477812 
L 75.12725 356.477812 
L 75.12725 352.153492 
L 72.89525 352.153492 
z
" clip-path="url(#pa70e182952)" style="fill: #4682b4; opacity: 0.8; stroke: #000000; stroke-width: 0.5; stroke-linejoin: miter"/>
   </g>
   <g id="patch_12">
    <path d="M 75.68525 356.477812 
L 77.91725 356.477812 
L 77.91725 346.165972 
L 75.68525 346.165972 
z
" clip-path="url(#pa70e182952)" style="fill: #4682b4; opacity: 0.8; stroke: #000000; stroke-width: 0.5; stroke-linejoin: miter"/>
   </g>
   <g id="patch_13">
    <path d="M 78.47525 356.477812 
L 80.70725 356.477812 
L 80.70725 342.839572 
L 78.47525 342.839572 
z
" clip-path="url(#pa70e182952)" style="fill: #4682b4; opacity: 0.8; stroke: #000000; stroke-width: 0.5; stroke-linejoin: miter"/>
   </g>
   <g id="patch_14">
    <path d="M 81.26525 356.477812 
L 83.49725 356.477812 
L 83.49725 338.847892 
L 81.26525 338.847892 
z
" clip-path="url(#pa70e182952)" style="fill: #4682b4; opacity: 0.8; stroke: #000000; stroke-width: 0.5; stroke-linejoin: miter"/>
   </g>
   <g id="patch_15">
    <path d="M 84.05525 356.477812 
L 86.28725 356.477812 
L 86.28725 330.199252 
L 84.05525 330.199252 
z
" clip-path="url(#pa70e182952)" style="fill: #4682b4; opacity: 0.8; stroke: #000000; stroke-width: 0.5; stroke-linejoin: miter"/>
   </g>
   <g id="patch_16">
    <path d="M 86.84525 356.477812 
L 89.07725 356.477812 
L 89.07725 325.209652 
L 86.84525 325.209652 
z
" clip-path="url(#pa70e182952)" style="fill: #4682b4; opacity: 0.8; stroke: #000000; stroke-width: 0.5; stroke-linejoin: miter"/>
   </g>
   <g id="patch_17">
    <path d="M 89.63525 356.477812 
L 91.86725 356.477812 
L 91.86725 318.556852 
L 89.63525 318.556852 
z
" clip-path="url(#pa70e182952)" style="fill: #4682b4; opacity: 0.8; stroke: #000000; stroke-width: 0.5; stroke-linejoin: miter"/>
   </g>
   <g id="patch_18">
    <path d="M 92.42525 356.477812 
L 94.65725 356.477812 
L 94.65725 314.232532 
L 92.42525 314.232532 
z
" clip-path="url(#pa70e182952)" style="fill: #4682b4; opacity: 0.8; stroke: #000000; stroke-width: 0.5; stroke-linejoin: miter"/>
   </g>
   <g id="patch_19">
    <path d="M 95.21525 356.477812 
L 97.44725 356.477812 
L 97.44725 309.575572 
L 95.21525 309.575572 
z
" clip-path="url(#pa70e182952)" style="fill: #4682b4; opacity: 0.8; stroke: #000000; stroke-width: 0.5; stroke-linejoin: miter"/>
   </g>
   <g id="patch_20">
    <path d="M 98.00525 356.477812 
L 100.23725 356.477812 
L 100.23725 304.918612 
L 98.00525 304.918612 
z
" clip-path="url(#pa70e182952)" style="fill: #4682b4; opacity: 0.8; stroke: #000000; stroke-width: 0.5; stroke-linejoin: miter"/>
   </g>
   <g id="patch_21">
    <path d="M 100.79525 356.477812 
L 103.02725 356.477812 
L 103.02725 300.926932 
L 100.79525 300.926932 
z
" clip-path="url(#pa70e182952)" style="fill: #4682b4; opacity: 0.8; stroke: #000000; stroke-width: 0.5; stroke-linejoin: miter"/>
   </g>
   <g id="patch_22">
    <path d="M 103.58525 356.477812 
L 105.81725 356.477812 
L 105.81725 295.272052 
L 103.58525 295.272052 
z
" clip-path="url(#pa70e182952)" style="fill: #4682b4; opacity: 0.8; stroke: #000000; stroke-width: 0.5; stroke-linejoin: miter"/>
   </g>
   <g id="patch_23">
    <path d="M 106.37525 356.477812 
L 108.60725 356.477812 
L 108.60725 291.945652 
L 106.37525 291.945652 
z
" clip-path="url(#pa70e182952)" style="fill: #4682b4; opacity: 0.8; stroke: #000000; stroke-width: 0.5; stroke-linejoin: miter"/>
   </g>
   <g id="patch_24">
    <path d="M 109.16525 356.477812 
L 111.39725 356.477812 
L 111.39725 286.290773 
L 109.16525 286.290773 
z
" clip-path="url(#pa70e182952)" style="fill: #4682b4; opacity: 0.8; stroke: #000000; stroke-width: 0.5; stroke-linejoin: miter"/>
   </g>
   <g id="patch_25">
    <path d="M 111.95525 356.477812 
L 114.18725 356.477812 
L 114.18725 282.964372 
L 111.95525 282.964372 
z
" clip-path="url(#pa70e182952)" style="fill: #4682b4; opacity: 0.8; stroke: #000000; stroke-width: 0.5; stroke-linejoin: miter"/>
   </g>
   <g id="patch_26">
    <path d="M 114.74525 356.477812 
L 116.97725 356.477812 
L 116.97725 278.640052 
L 114.74525 278.640052 
z
" clip-path="url(#pa70e182952)" style="fill: #4682b4; opacity: 0.8; stroke: #000000; stroke-width: 0.5; stroke-linejoin: miter"/>
   </g>
   <g id="patch_27">
    <path d="M 117.53525 356.477812 
L 119.76725 356.477812 
L 119.76725 271.654612 
L 117.53525 271.654612 
z
" clip-path="url(#pa70e182952)" style="fill: #4682b4; opacity: 0.8; stroke: #000000; stroke-width: 0.5; stroke-linejoin: miter"/>
   </g>
   <g id="patch_28">
    <path d="M 120.32525 356.477812 
L 122.55725 356.477812 
L 122.55725 269.326132 
L 120.32525 269.326132 
z
" clip-path="url(#pa70e182952)" style="fill: #4682b4; opacity: 0.8; stroke: #000000; stroke-width: 0.5; stroke-linejoin: miter"/>
   </g>
   <g id="patch_29">
    <path d="M 123.11525 356.477812 
L 125.34725 356.477812 
L 125.34725 264.669172 
L 123.11525 264.669172 
z
" clip-path="url(#pa70e182952)" style="fill: #4682b4; opacity: 0.8; stroke: #000000; stroke-width: 0.5; stroke-linejoin: miter"/>
   </g>
   <g id="patch_30">
    <path d="M 125.90525 356.477812 
L 128.13725 356.477812 
L 128.13725 259.679572 
L 125.90525 259.679572 
z
" clip-path="url(#pa70e182952)" style="fill: #4682b4; opacity: 0.8; stroke: #000000; stroke-width: 0.5; stroke-linejoin: miter"/>
   </g>
   <g id="patch_31">
    <path d="M 128.69525 356.477812 
L 130.92725 356.477812 
L 130.92725 255.355252 
L 128.69525 255.355252 
z
" clip-path="url(#pa70e182952)" style="fill: #4682b4; opacity: 0.8; stroke: #000000; stroke-width: 0.5; stroke-linejoin: miter"/>
   </g>
   <g id="patch_32">
    <path d="M 131.48525 356.477812 
L 133.71725 356.477812 
L 133.71725 251.696212 
L 131.48525 251.696212 
z
" clip-path="url(#pa70e182952)" style="fill: #4682b4; opacity: 0.8; stroke: #000000; stroke-width: 0.5; stroke-linejoin: miter"/>
   </g>
   <g id="patch_33">
    <path d="M 134.27525 356.477812 
L 136.50725 356.477812 
L 136.50725 247.039252 
L 134.27525 247.039252 
z
" clip-path="url(#pa70e182952)" style="fill: #4682b4; opacity: 0.8; stroke: #000000; stroke-width: 0.5; stroke-linejoin: miter"/>
   </g>
   <g id="patch_34">
    <path d="M 137.06525 356.477812 
L 139.29725 356.477812 
L 139.29725 244.045492 
L 137.06525 244.045492 
z
" clip-path="url(#pa70e182952)" style="fill: #4682b4; opacity: 0.8; stroke: #000000; stroke-width: 0.5; stroke-linejoin: miter"/>
   </g>
   <g id="patch_35">
    <path d="M 139.85525 356.477812 
L 142.08725 356.477812 
L 142.08725 238.723252 
L 139.85525 238.723252 
z
" clip-path="url(#pa70e182952)" style="fill: #4682b4; opacity: 0.8; stroke: #000000; stroke-width: 0.5; stroke-linejoin: miter"/>
   </g>
   <g id="patch_36">
    <path d="M 142.64525 356.477812 
L 144.87725 356.477812 
L 144.87725 234.066292 
L 142.64525 234.066292 
z
" clip-path="url(#pa70e182952)" style="fill: #4682b4; opacity: 0.8; stroke: #000000; stroke-width: 0.5; stroke-linejoin: miter"/>
   </g>
   <g id="patch_37">
    <path d="M 145.43525 356.477812 
L 147.66725 356.477812 
L 147.66725 233.068372 
L 145.43525 233.068372 
z
" clip-path="url(#pa70e182952)" style="fill: #4682b4; opacity: 0.8; stroke: #000000; stroke-width: 0.5; stroke-linejoin: miter"/>
   </g>
   <g id="patch_38">
    <path d="M 148.22525 356.477812 
L 150.45725 356.477812 
L 150.45725 229.076692 
L 148.22525 229.076692 
z
" clip-path="url(#pa70e182952)" style="fill: #4682b4; opacity: 0.8; stroke: #000000; stroke-width: 0.5; stroke-linejoin: miter"/>
   </g>
   <g id="patch_39">
    <path d="M 151.01525 356.477812 
L 153.24725 356.477812 
L 153.24725 225.417652 
L 151.01525 225.417652 
z
" clip-path="url(#pa70e182952)" style="fill: #4682b4; opacity: 0.8; stroke: #000000; stroke-width: 0.5; stroke-linejoin: miter"/>
   </g>
   <g id="patch_40">
    <path d="M 153.80525 356.477812 
L 156.03725 356.477812 
L 156.03725 222.091252 
L 153.80525 222.091252 
z
" clip-path="url(#pa70e182952)" style="fill: #4682b4; opacity: 0.8; stroke: #000000; stroke-width: 0.5; stroke-linejoin: miter"/>
   </g>
   <g id="patch_41">
    <path d="M 156.59525 356.477812 
L 158.82725 356.477812 
L 158.82725 218.764852 
L 156.59525 218.764852 
z
" clip-path="url(#pa70e182952)" style="fill: #4682b4; opacity: 0.8; stroke: #000000; stroke-width: 0.5; stroke-linejoin: miter"/>
   </g>
   <g id="patch_42">
    <path d="M 159.38525 356.477812 
L 161.61725 356.477812 
L 161.61725 214.440532 
L 159.38525 214.440532 
z
" clip-path="url(#pa70e182952)" style="fill: #4682b4; opacity: 0.8; stroke: #000000; stroke-width: 0.5; stroke-linejoin: miter"/>
   </g>
   <g id="patch_43">
    <path d="M 162.17525 356.477812 
L 164.40725 356.477812 
L 164.40725 211.446772 
L 162.17525 211.446772 
z
" clip-path="url(#pa70e182952)" style="fill: #4682b4; opacity: 0.8; stroke: #000000; stroke-width: 0.5; stroke-linejoin: miter"/>
   </g>
   <g id="patch_44">
    <path d="M 164.96525 356.477812 
L 167.19725 356.477812 
L 167.19725 209.118292 
L 164.96525 209.118292 
z
" clip-path="url(#pa70e182952)" style="fill: #4682b4; opacity: 0.8; stroke: #000000; stroke-width: 0.5; stroke-linejoin: miter"/>
   </g>
   <g id="patch_45">
    <path d="M 167.75525 356.477812 
L 169.98725 356.477812 
L 169.98725 206.457172 
L 167.75525 206.457172 
z
" clip-path="url(#pa70e182952)" style="fill: #4682b4; opacity: 0.8; stroke: #000000; stroke-width: 0.5; stroke-linejoin: miter"/>
   </g>
   <g id="patch_46">
    <path d="M 170.54525 356.477812 
L 172.77725 356.477812 
L 172.77725 204.128692 
L 170.54525 204.128692 
z
" clip-path="url(#pa70e182952)" style="fill: #4682b4; opacity: 0.8; stroke: #000000; stroke-width: 0.5; stroke-linejoin: miter"/>
   </g>
   <g id="patch_47">
    <path d="M 173.33525 356.477812 
L 175.56725 356.477812 
L 175.56725 200.469652 
L 173.33525 200.469652 
z
" clip-path="url(#pa70e182952)" style="fill: #4682b4; opacity: 0.8; stroke: #000000; stroke-width: 0.5; stroke-linejoin: miter"/>
   </g>
   <g id="patch_48">
    <path d="M 176.12525 356.477812 
L 178.35725 356.477812 
L 178.35725 197.143252 
L 176.12525 197.143252 
z
" clip-path="url(#pa70e182952)" style="fill: #4682b4; opacity: 0.8; stroke: #000000; stroke-width: 0.5; stroke-linejoin: miter"/>
   </g>
   <g id="patch_49">
    <path d="M 178.91525 356.477812 
L 181.14725 356.477812 
L 181.14725 195.147412 
L 178.91525 195.147412 
z
" clip-path="url(#pa70e182952)" style="fill: #4682b4; opacity: 0.8; stroke: #000000; stroke-width: 0.5; stroke-linejoin: miter"/>
   </g>
   <g id="patch_50">
    <path d="M 181.70525 356.477812 
L 183.93725 356.477812 
L 183.93725 190.490452 
L 181.70525 190.490452 
z
" clip-path="url(#pa70e182952)" style="fill: #4682b4; opacity: 0.8; stroke: #000000; stroke-width: 0.5; stroke-linejoin: miter"/>
   </g>
   <g id="patch_51">
    <path d="M 184.49525 356.477812 
L 186.72725 356.477812 
L 186.72725 189.159892 
L 184.49525 189.159892 
z
" clip-path="url(#pa70e182952)" style="fill: #4682b4; opacity: 0.8; stroke: #000000; stroke-width: 0.5; stroke-linejoin: miter"/>
   </g>
   <g id="patch_52">
    <path d="M 187.28525 356.477812 
L 189.51725 356.477812 
L 189.51725 187.164052 
L 187.28525 187.164052 
z
" clip-path="url(#pa70e182952)" style="fill: #4682b4; opacity: 0.8; stroke: #000000; stroke-width: 0.5; stroke-linejoin: miter"/>
   </g>
   <g id="patch_53">
    <path d="M 190.07525 356.477812 
L 192.30725 356.477812 
L 192.30725 185.168212 
L 190.07525 185.168212 
z
" clip-path="url(#pa70e182952)" style="fill: #4682b4; opacity: 0.8; stroke: #000000; stroke-width: 0.5; stroke-linejoin: miter"/>
   </g>
   <g id="patch_54">
    <path d="M 192.86525 356.477812 
L 195.09725 356.477812 
L 195.09725 182.507092 
L 192.86525 182.507092 
z
" clip-path="url(#pa70e182952)" style="fill: #4682b4; opacity: 0.8; stroke: #000000; stroke-width: 0.5; stroke-linejoin: miter"/>
   </g>
   <g id="patch_55">
    <path d="M 195.65525 356.477812 
L 197.88725 356.477812 
L 197.88725 181.176532 
L 195.65525 181.176532 
z
" clip-path="url(#pa70e182952)" style="fill: #4682b4; opacity: 0.8; stroke: #000000; stroke-width: 0.5; stroke-linejoin: miter"/>
   </g>
   <g id="patch_56">
    <path d="M 198.44525 356.477812 
L 200.67725 356.477812 
L 200.67725 179.845972 
L 198.44525 179.845972 
z
" clip-path="url(#pa70e182952)" style="fill: #4682b4; opacity: 0.8; stroke: #000000; stroke-width: 0.5; stroke-linejoin: miter"/>
   </g>
   <g id="patch_57">
    <path d="M 201.23525 356.477812 
L 203.46725 356.477812 
L 203.46725 178.182772 
L 201.23525 178.182772 
z
" clip-path="url(#pa70e182952)" style="fill: #4682b4; opacity: 0.8; stroke: #000000; stroke-width: 0.5; stroke-linejoin: miter"/>
   </g>
   <g id="patch_58">
    <path d="M 204.02525 356.477812 
L 206.25725 356.477812 
L 206.25725 175.854292 
L 204.02525 175.854292 
z
" clip-path="url(#pa70e182952)" style="fill: #4682b4; opacity: 0.8; stroke: #000000; stroke-width: 0.5; stroke-linejoin: miter"/>
   </g>
   <g id="patch_59">
    <path d="M 206.81525 356.477812 
L 209.04725 356.477812 
L 209.04725 173.193172 
L 206.81525 173.193172 
z
" clip-path="url(#pa70e182952)" style="fill: #4682b4; opacity: 0.8; stroke: #000000; stroke-width: 0.5; stroke-linejoin: miter"/>
   </g>
   <g id="patch_60">
    <path d="M 209.60525 356.477812 
L 211.83725 356.477812 
L 211.83725 172.195252 
L 209.60525 172.195252 
z
" clip-path="url(#pa70e182952)" style="fill: #4682b4; opacity: 0.8; stroke: #000000; stroke-width: 0.5; stroke-linejoin: miter"/>
   </g>
   <g id="patch_61">
    <path d="M 212.39525 356.477812 
L 214.62725 356.477812 
L 214.62725 169.866772 
L 212.39525 169.866772 
z
" clip-path="url(#pa70e182952)" style="fill: #4682b4; opacity: 0.8; stroke: #000000; stroke-width: 0.5; stroke-linejoin: miter"/>
   </g>
   <g id="patch_62">
    <path d="M 215.18525 356.477812 
L 217.41725 356.477812 
L 217.41725 167.538292 
L 215.18525 167.538292 
z
" clip-path="url(#pa70e182952)" style="fill: #4682b4; opacity: 0.8; stroke: #000000; stroke-width: 0.5; stroke-linejoin: miter"/>
   </g>
   <g id="patch_63">
    <path d="M 217.97525 356.477812 
L 220.20725 356.477812 
L 220.20725 166.540372 
L 217.97525 166.540372 
z
" clip-path="url(#pa70e182952)" style="fill: #4682b4; opacity: 0.8; stroke: #000000; stroke-width: 0.5; stroke-linejoin: miter"/>
   </g>
   <g id="patch_64">
    <path d="M 220.76525 356.477812 
L 222.99725 356.477812 
L 222.99725 165.875092 
L 220.76525 165.875092 
z
" clip-path="url(#pa70e182952)" style="fill: #4682b4; opacity: 0.8; stroke: #000000; stroke-width: 0.5; stroke-linejoin: miter"/>
   </g>
   <g id="patch_65">
    <path d="M 223.55525 356.477812 
L 225.78725 356.477812 
L 225.78725 164.544532 
L 223.55525 164.544532 
z
" clip-path="url(#pa70e182952)" style="fill: #4682b4; opacity: 0.8; stroke: #000000; stroke-width: 0.5; stroke-linejoin: miter"/>
   </g>
   <g id="patch_66">
    <path d="M 226.34525 356.477812 
L 228.57725 356.477812 
L 228.57725 163.546612 
L 226.34525 163.546612 
z
" clip-path="url(#pa70e182952)" style="fill: #4682b4; opacity: 0.8; stroke: #000000; stroke-width: 0.5; stroke-linejoin: miter"/>
   </g>
   <g id="patch_67">
    <path d="M 229.13525 356.477812 
L 231.36725 356.477812 
L 231.36725 162.881332 
L 229.13525 162.881332 
z
" clip-path="url(#pa70e182952)" style="fill: #4682b4; opacity: 0.8; stroke: #000000; stroke-width: 0.5; stroke-linejoin: miter"/>
   </g>
   <g id="patch_68">
    <path d="M 231.92525 356.477812 
L 234.15725 356.477812 
L 234.15725 160.220212 
L 231.92525 160.220212 
z
" clip-path="url(#pa70e182952)" style="fill: #4682b4; opacity: 0.8; stroke: #000000; stroke-width: 0.5; stroke-linejoin: miter"/>
   </g>
   <g id="patch_69">
    <path d="M 234.71525 356.477812 
L 236.94725 356.477812 
L 236.94725 157.226452 
L 234.71525 157.226452 
z
" clip-path="url(#pa70e182952)" style="fill: #4682b4; opacity: 0.8; stroke: #000000; stroke-width: 0.5; stroke-linejoin: miter"/>
   </g>
   <g id="patch_70">
    <path d="M 237.50525 356.477812 
L 239.73725 356.477812 
L 239.73725 155.563252 
L 237.50525 155.563252 
z
" clip-path="url(#pa70e182952)" style="fill: #4682b4; opacity: 0.8; stroke: #000000; stroke-width: 0.5; stroke-linejoin: miter"/>
   </g>
   <g id="patch_71">
    <path d="M 240.29525 356.477812 
L 242.52725 356.477812 
L 242.52725 153.567412 
L 240.29525 153.567412 
z
" clip-path="url(#pa70e182952)" style="fill: #4682b4; opacity: 0.8; stroke: #000000; stroke-width: 0.5; stroke-linejoin: miter"/>
   </g>
   <g id="patch_72">
    <path d="M 243.08525 356.477812 
L 245.31725 356.477812 
L 245.31725 152.902132 
L 243.08525 152.902132 
z
" clip-path="url(#pa70e182952)" style="fill: #4682b4; opacity: 0.8; stroke: #000000; stroke-width: 0.5; stroke-linejoin: miter"/>
   </g>
   <g id="patch_73">
    <path d="M 245.87525 356.477812 
L 248.10725 356.477812 
L 248.10725 152.236852 
L 245.87525 152.236852 
z
" clip-path="url(#pa70e182952)" style="fill: #4682b4; opacity: 0.8; stroke: #000000; stroke-width: 0.5; stroke-linejoin: miter"/>
   </g>
   <g id="patch_74">
    <path d="M 248.66525 356.477812 
L 250.89725 356.477812 
L 250.89725 151.571572 
L 248.66525 151.571572 
z
" clip-path="url(#pa70e182952)" style="fill: #4682b4; opacity: 0.8; stroke: #000000; stroke-width: 0.5; stroke-linejoin: miter"/>
   </g>
   <g id="patch_75">
    <path d="M 251.45525 356.477812 
L 253.68725 356.477812 
L 253.68725 149.243092 
L 251.45525 149.243092 
z
" clip-path="url(#pa70e182952)" style="fill: #4682b4; opacity: 0.8; stroke: #000000; stroke-width: 0.5; stroke-linejoin: miter"/>
   </g>
   <g id="patch_76">
    <path d="M 254.24525 356.477812 
L 256.47725 356.477812 
L 256.47725 147.579892 
L 254.24525 147.579892 
z
" clip-path="url(#pa70e182952)" style="fill: #4682b4; opacity: 0.8; stroke: #000000; stroke-width: 0.5; stroke-linejoin: miter"/>
   </g>
   <g id="patch_77">
    <path d="M 257.03525 356.477812 
L 259.26725 356.477812 
L 259.26725 146.581972 
L 257.03525 146.581972 
z
" clip-path="url(#pa70e182952)" style="fill: #4682b4; opacity: 0.8; stroke: #000000; stroke-width: 0.5; stroke-linejoin: miter"/>
   </g>
   <g id="patch_78">
    <path d="M 259.82525 356.477812 
L 262.05725 356.477812 
L 262.05725 145.251412 
L 259.82525 145.251412 
z
" clip-path="url(#pa70e182952)" style="fill: #4682b4; opacity: 0.8; stroke: #000000; stroke-width: 0.5; stroke-linejoin: miter"/>
   </g>
   <g id="patch_79">
    <path d="M 262.61525 356.477812 
L 264.84725 356.477812 
L 264.84725 143.920852 
L 262.61525 143.920852 
z
" clip-path="url(#pa70e182952)" style="fill: #4682b4; opacity: 0.8; stroke: #000000; stroke-width: 0.5; stroke-linejoin: miter"/>
   </g>
   <g id="patch_80">
    <path d="M 265.40525 356.477812 
L 267.63725 356.477812 
L 267.63725 143.588212 
L 265.40525 143.588212 
z
" clip-path="url(#pa70e182952)" style="fill: #4682b4; opacity: 0.8; stroke: #000000; stroke-width: 0.5; stroke-linejoin: miter"/>
   </g>
   <g id="patch_81">
    <path d="M 268.19525 356.477812 
L 270.42725 356.477812 
L 270.42725 143.588212 
L 268.19525 143.588212 
z
" clip-path="url(#pa70e182952)" style="fill: #4682b4; opacity: 0.8; stroke: #000000; stroke-width: 0.5; stroke-linejoin: miter"/>
   </g>
   <g id="patch_82">
    <path d="M 270.98525 356.477812 
L 273.21725 356.477812 
L 273.21725 142.257652 
L 270.98525 142.257652 
z
" clip-path="url(#pa70e182952)" style="fill: #4682b4; opacity: 0.8; stroke: #000000; stroke-width: 0.5; stroke-linejoin: miter"/>
   </g>
   <g id="patch_83">
    <path d="M 273.77525 356.477812 
L 276.00725 356.477812 
L 276.00725 140.594452 
L 273.77525 140.594452 
z
" clip-path="url(#pa70e182952)" style="fill: #4682b4; opacity: 0.8; stroke: #000000; stroke-width: 0.5; stroke-linejoin: miter"/>
   </g>
   <g id="patch_84">
    <path d="M 276.56525 356.477812 
L 278.79725 356.477812 
L 278.79725 140.261812 
L 276.56525 140.261812 
z
" clip-path="url(#pa70e182952)" style="fill: #4682b4; opacity: 0.8; stroke: #000000; stroke-width: 0.5; stroke-linejoin: miter"/>
   </g>
   <g id="patch_85">
    <path d="M 279.35525 356.477812 
L 281.58725 356.477812 
L 281.58725 139.596532 
L 279.35525 139.596532 
z
" clip-path="url(#pa70e182952)" style="fill: #4682b4; opacity: 0.8; stroke: #000000; stroke-width: 0.5; stroke-linejoin: miter"/>
   </g>
   <g id="patch_86">
    <path d="M 282.14525 356.477812 
L 284.37725 356.477812 
L 284.37725 137.933332 
L 282.14525 137.933332 
z
" clip-path="url(#pa70e182952)" style="fill: #4682b4; opacity: 0.8; stroke: #000000; stroke-width: 0.5; stroke-linejoin: miter"/>
   </g>
   <g id="patch_87">
    <path d="M 284.93525 356.477812 
L 287.16725 356.477812 
L 287.16725 138.265972 
L 284.93525 138.265972 
z
" clip-path="url(#pa70e182952)" style="fill: #4682b4; opacity: 0.8; stroke: #000000; stroke-width: 0.5; stroke-linejoin: miter"/>
   </g>
   <g id="patch_88">
    <path d="M 287.72525 356.477812 
L 289.95725 356.477812 
L 289.95725 136.602772 
L 287.72525 136.602772 
z
" clip-path="url(#pa70e182952)" style="fill: #4682b4; opacity: 0.8; stroke: #000000; stroke-width: 0.5; stroke-linejoin: miter"/>
   </g>
   <g id="patch_89">
    <path d="M 290.51525 356.477812 
L 292.74725 356.477812 
L 292.74725 135.272212 
L 290.51525 135.272212 
z
" clip-path="url(#pa70e182952)" style="fill: #4682b4; opacity: 0.8; stroke: #000000; stroke-width: 0.5; stroke-linejoin: miter"/>
   </g>
   <g id="patch_90">
    <path d="M 293.30525 356.477812 
L 295.53725 356.477812 
L 295.53725 134.939572 
L 293.30525 134.939572 
z
" clip-path="url(#pa70e182952)" style="fill: #4682b4; opacity: 0.8; stroke: #000000; stroke-width: 0.5; stroke-linejoin: miter"/>
   </g>
   <g id="patch_91">
    <path d="M 296.09525 356.477812 
L 298.32725 356.477812 
L 298.32725 133.609012 
L 296.09525 133.609012 
z
" clip-path="url(#pa70e182952)" style="fill: #4682b4; opacity: 0.8; stroke: #000000; stroke-width: 0.5; stroke-linejoin: miter"/>
   </g>
   <g id="patch_92">
    <path d="M 298.88525 356.477812 
L 301.11725 356.477812 
L 301.11725 132.611092 
L 298.88525 132.611092 
z
" clip-path="url(#pa70e182952)" style="fill: #4682b4; opacity: 0.8; stroke: #000000; stroke-width: 0.5; stroke-linejoin: miter"/>
   </g>
   <g id="patch_93">
    <path d="M 301.67525 356.477812 
L 303.90725 356.477812 
L 303.90725 131.613172 
L 301.67525 131.613172 
z
" clip-path="url(#pa70e182952)" style="fill: #4682b4; opacity: 0.8; stroke: #000000; stroke-width: 0.5; stroke-linejoin: miter"/>
   </g>
   <g id="patch_94">
    <path d="M 304.46525 356.477812 
L 306.69725 356.477812 
L 306.69725 130.615252 
L 304.46525 130.615252 
z
" clip-path="url(#pa70e182952)" style="fill: #4682b4; opacity: 0.8; stroke: #000000; stroke-width: 0.5; stroke-linejoin: miter"/>
   </g>
   <g id="patch_95">
    <path d="M 307.25525 356.477812 
L 309.48725 356.477812 
L 309.48725 130.947892 
L 307.25525 130.947892 
z
" clip-path="url(#pa70e182952)" style="fill: #4682b4; opacity: 0.8; stroke: #000000; stroke-width: 0.5; stroke-linejoin: miter"/>
   </g>
   <g id="patch_96">
    <path d="M 310.04525 356.477812 
L 312.27725 356.477812 
L 312.27725 129.617332 
L 310.04525 129.617332 
z
" clip-path="url(#pa70e182952)" style="fill: #4682b4; opacity: 0.8; stroke: #000000; stroke-width: 0.5; stroke-linejoin: miter"/>
   </g>
   <g id="patch_97">
    <path d="M 312.83525 356.477812 
L 315.06725 356.477812 
L 315.06725 128.952052 
L 312.83525 128.952052 
z
" clip-path="url(#pa70e182952)" style="fill: #4682b4; opacity: 0.8; stroke: #000000; stroke-width: 0.5; stroke-linejoin: miter"/>
   </g>
   <g id="patch_98">
    <path d="M 315.62525 356.477812 
L 317.85725 356.477812 
L 317.85725 128.619412 
L 315.62525 128.619412 
z
" clip-path="url(#pa70e182952)" style="fill: #4682b4; opacity: 0.8; stroke: #000000; stroke-width: 0.5; stroke-linejoin: miter"/>
   </g>
   <g id="patch_99">
    <path d="M 318.41525 356.477812 
L 320.64725 356.477812 
L 320.64725 128.286772 
L 318.41525 128.286772 
z
" clip-path="url(#pa70e182952)" style="fill: #4682b4; opacity: 0.8; stroke: #000000; stroke-width: 0.5; stroke-linejoin: miter"/>
   </g>
   <g id="patch_100">
    <path d="M 321.20525 356.477812 
L 323.43725 356.477812 
L 323.43725 127.288852 
L 321.20525 127.288852 
z
" clip-path="url(#pa70e182952)" style="fill: #4682b4; opacity: 0.8; stroke: #000000; stroke-width: 0.5; stroke-linejoin: miter"/>
   </g>
   <g id="patch_101">
    <path d="M 323.99525 356.477812 
L 326.22725 356.477812 
L 326.22725 126.956212 
L 323.99525 126.956212 
z
" clip-path="url(#pa70e182952)" style="fill: #4682b4; opacity: 0.8; stroke: #000000; stroke-width: 0.5; stroke-linejoin: miter"/>
   </g>
   <g id="patch_102">
    <path d="M 326.78525 356.477812 
L 329.01725 356.477812 
L 329.01725 126.290932 
L 326.78525 126.290932 
z
" clip-path="url(#pa70e182952)" style="fill: #4682b4; opacity: 0.8; stroke: #000000; stroke-width: 0.5; stroke-linejoin: miter"/>
   </g>
   <g id="patch_103">
    <path d="M 329.57525 356.477812 
L 331.80725 356.477812 
L 331.80725 125.958292 
L 329.57525 125.958292 
z
" clip-path="url(#pa70e182952)" style="fill: #4682b4; opacity: 0.8; stroke: #000000; stroke-width: 0.5; stroke-linejoin: miter"/>
   </g>
   <g id="patch_104">
    <path d="M 332.36525 356.477812 
L 334.59725 356.477812 
L 334.59725 125.625652 
L 332.36525 125.625652 
z
" clip-path="url(#pa70e182952)" style="fill: #4682b4; opacity: 0.8; stroke: #000000; stroke-width: 0.5; stroke-linejoin: miter"/>
   </g>
   <g id="patch_105">
    <path d="M 335.15525 356.477812 
L 337.38725 356.477812 
L 337.38725 124.960372 
L 335.15525 124.960372 
z
" clip-path="url(#pa70e182952)" style="fill: #4682b4; opacity: 0.8; stroke: #000000; stroke-width: 0.5; stroke-linejoin: miter"/>
   </g>
   <g id="patch_106">
    <path d="M 337.94525 356.477812 
L 340.17725 356.477812 
L 340.17725 124.295092 
L 337.94525 124.295092 
z
" clip-path="url(#pa70e182952)" style="fill: #4682b4; opacity: 0.8; stroke: #000000; stroke-width: 0.5; stroke-linejoin: miter"/>
   </g>
   <g id="patch_107">
    <path d="M 340.73525 356.477812 
L 342.96725 356.477812 
L 342.96725 123.297172 
L 340.73525 123.297172 
z
" clip-path="url(#pa70e182952)" style="fill: #4682b4; opacity: 0.8; stroke: #000000; stroke-width: 0.5; stroke-linejoin: miter"/>
   </g>
   <g id="patch_108">
    <path d="M 343.52525 356.477812 
L 345.75725 356.477812 
L 345.75725 122.299252 
L 343.52525 122.299252 
z
" clip-path="url(#pa70e182952)" style="fill: #4682b4; opacity: 0.8; stroke: #000000; stroke-width: 0.5; stroke-linejoin: miter"/>
   </g>
   <g id="patch_109">
    <path d="M 346.31525 356.477812 
L 348.54725 356.477812 
L 348.54725 120.636052 
L 346.31525 120.636052 
z
" clip-path="url(#pa70e182952)" style="fill: #4682b4; opacity: 0.8; stroke: #000000; stroke-width: 0.5; stroke-linejoin: miter"/>
   </g>
   <g id="patch_110">
    <path d="M 349.10525 356.477812 
L 351.33725 356.477812 
L 351.33725 120.303412 
L 349.10525 120.303412 
z
" clip-path="url(#pa70e182952)" style="fill: #4682b4; opacity: 0.8; stroke: #000000; stroke-width: 0.5; stroke-linejoin: miter"/>
   </g>
   <g id="patch_111">
    <path d="M 351.89525 356.477812 
L 354.12725 356.477812 
L 354.12725 119.638132 
L 351.89525 119.638132 
z
" clip-path="url(#pa70e182952)" style="fill: #4682b4; opacity: 0.8; stroke: #000000; stroke-width: 0.5; stroke-linejoin: miter"/>
   </g>
   <g id="patch_112">
    <path d="M 354.68525 356.477812 
L 356.91725 356.477812 
L 356.91725 118.640212 
L 354.68525 118.640212 
z
" clip-path="url(#pa70e182952)" style="fill: #4682b4; opacity: 0.8; stroke: #000000; stroke-width: 0.5; stroke-linejoin: miter"/>
   </g>
   <g id="patch_113">
    <path d="M 357.47525 356.477812 
L 359.70725 356.477812 
L 359.70725 118.307572 
L 357.47525 118.307572 
z
" clip-path="url(#pa70e182952)" style="fill: #4682b4; opacity: 0.8; stroke: #000000; stroke-width: 0.5; stroke-linejoin: miter"/>
   </g>
   <g id="patch_114">
    <path d="M 360.26525 356.477812 
L 362.49725 356.477812 
L 362.49725 117.974932 
L 360.26525 117.974932 
z
" clip-path="url(#pa70e182952)" style="fill: #4682b4; opacity: 0.8; stroke: #000000; stroke-width: 0.5; stroke-linejoin: miter"/>
   </g>
   <g id="patch_115">
    <path d="M 363.05525 356.477812 
L 365.28725 356.477812 
L 365.28725 117.309652 
L 363.05525 117.309652 
z
" clip-path="url(#pa70e182952)" style="fill: #4682b4; opacity: 0.8; stroke: #000000; stroke-width: 0.5; stroke-linejoin: miter"/>
   </g>
   <g id="patch_116">
    <path d="M 365.84525 356.477812 
L 368.07725 356.477812 
L 368.07725 116.977012 
L 365.84525 116.977012 
z
" clip-path="url(#pa70e182952)" style="fill: #4682b4; opacity: 0.8; stroke: #000000; stroke-width: 0.5; stroke-linejoin: miter"/>
   </g>
   <g id="patch_117">
    <path d="M 368.63525 356.477812 
L 370.86725 356.477812 
L 370.86725 116.311732 
L 368.63525 116.311732 
z
" clip-path="url(#pa70e182952)" style="fill: #4682b4; opacity: 0.8; stroke: #000000; stroke-width: 0.5; stroke-linejoin: miter"/>
   </g>
   <g id="patch_118">
    <path d="M 371.42525 356.477812 
L 373.65725 356.477812 
L 373.65725 116.311732 
L 371.42525 116.311732 
z
" clip-path="url(#pa70e182952)" style="fill: #4682b4; opacity: 0.8; stroke: #000000; stroke-width: 0.5; stroke-linejoin: miter"/>
   </g>
   <g id="patch_119">
    <path d="M 374.21525 356.477812 
L 376.44725 356.477812 
L 376.44725 116.311732 
L 374.21525 116.311732 
z
" clip-path="url(#pa70e182952)" style="fill: #4682b4; opacity: 0.8; stroke: #000000; stroke-width: 0.5; stroke-linejoin: miter"/>
   </g>
   <g id="patch_120">
    <path d="M 377.00525 356.477812 
L 379.23725 356.477812 
L 379.23725 115.979092 
L 377.00525 115.979092 
z
" clip-path="url(#pa70e182952)" style="fill: #4682b4; opacity: 0.8; stroke: #000000; stroke-width: 0.5; stroke-linejoin: miter"/>
   </g>
   <g id="patch_121">
    <path d="M 379.79525 356.477812 
L 382.02725 356.477812 
L 382.02725 115.646452 
L 379.79525 115.646452 
z
" clip-path="url(#pa70e182952)" style="fill: #4682b4; opacity: 0.8; stroke: #000000; stroke-width: 0.5; stroke-linejoin: miter"/>
   </g>
   <g id="patch_122">
    <path d="M 382.58525 356.477812 
L 384.81725 356.477812 
L 384.81725 114.981172 
L 382.58525 114.981172 
z
" clip-path="url(#pa70e182952)" style="fill: #4682b4; opacity: 0.8; stroke: #000000; stroke-width: 0.5; stroke-linejoin: miter"/>
   </g>
   <g id="patch_123">
    <path d="M 385.37525 356.477812 
L 387.60725 356.477812 
L 387.60725 114.648532 
L 385.37525 114.648532 
z
" clip-path="url(#pa70e182952)" style="fill: #4682b4; opacity: 0.8; stroke: #000000; stroke-width: 0.5; stroke-linejoin: miter"/>
   </g>
   <g id="patch_124">
    <path d="M 388.16525 356.477812 
L 390.39725 356.477812 
L 390.39725 113.983252 
L 388.16525 113.983252 
z
" clip-path="url(#pa70e182952)" style="fill: #4682b4; opacity: 0.8; stroke: #000000; stroke-width: 0.5; stroke-linejoin: miter"/>
   </g>
   <g id="patch_125">
    <path d="M 390.95525 356.477812 
L 393.18725 356.477812 
L 393.18725 112.320052 
L 390.95525 112.320052 
z
" clip-path="url(#pa70e182952)" style="fill: #4682b4; opacity: 0.8; stroke: #000000; stroke-width: 0.5; stroke-linejoin: miter"/>
   </g>
   <g id="patch_126">
    <path d="M 393.74525 356.477812 
L 395.97725 356.477812 
L 395.97725 111.654772 
L 393.74525 111.654772 
z
" clip-path="url(#pa70e182952)" style="fill: #4682b4; opacity: 0.8; stroke: #000000; stroke-width: 0.5; stroke-linejoin: miter"/>
   </g>
   <g id="patch_127">
    <path d="M 396.53525 356.477812 
L 398.76725 356.477812 
L 398.76725 110.656852 
L 396.53525 110.656852 
z
" clip-path="url(#pa70e182952)" style="fill: #4682b4; opacity: 0.8; stroke: #000000; stroke-width: 0.5; stroke-linejoin: miter"/>
   </g>
   <g id="patch_128">
    <path d="M 399.32525 356.477812 
L 401.55725 356.477812 
L 401.55725 110.324212 
L 399.32525 110.324212 
z
" clip-path="url(#pa70e182952)" style="fill: #4682b4; opacity: 0.8; stroke: #000000; stroke-width: 0.5; stroke-linejoin: miter"/>
   </g>
   <g id="patch_129">
    <path d="M 402.11525 356.477812 
L 404.34725 356.477812 
L 404.34725 109.658932 
L 402.11525 109.658932 
z
" clip-path="url(#pa70e182952)" style="fill: #4682b4; opacity: 0.8; stroke: #000000; stroke-width: 0.5; stroke-linejoin: miter"/>
   </g>
   <g id="patch_130">
    <path d="M 404.90525 356.477812 
L 407.13725 356.477812 
L 407.13725 109.326292 
L 404.90525 109.326292 
z
" clip-path="url(#pa70e182952)" style="fill: #4682b4; opacity: 0.8; stroke: #000000; stroke-width: 0.5; stroke-linejoin: miter"/>
   </g>
   <g id="patch_131">
    <path d="M 407.69525 356.477812 
L 409.92725 356.477812 
L 409.92725 108.328372 
L 407.69525 108.328372 
z
" clip-path="url(#pa70e182952)" style="fill: #4682b4; opacity: 0.8; stroke: #000000; stroke-width: 0.5; stroke-linejoin: miter"/>
   </g>
   <g id="patch_132">
    <path d="M 410.48525 356.477812 
L 412.71725 356.477812 
L 412.71725 106.997812 
L 410.48525 106.997812 
z
" clip-path="url(#pa70e182952)" style="fill: #4682b4; opacity: 0.8; stroke: #000000; stroke-width: 0.5; stroke-linejoin: miter"/>
   </g>
   <g id="patch_133">
    <path d="M 413.27525 356.477812 
L 415.50725 356.477812 
L 415.50725 105.999892 
L 413.27525 105.999892 
z
" clip-path="url(#pa70e182952)" style="fill: #4682b4; opacity: 0.8; stroke: #000000; stroke-width: 0.5; stroke-linejoin: miter"/>
   </g>
   <g id="patch_134">
    <path d="M 416.06525 356.477812 
L 418.29725 356.477812 
L 418.29725 105.667252 
L 416.06525 105.667252 
z
" clip-path="url(#pa70e182952)" style="fill: #4682b4; opacity: 0.8; stroke: #000000; stroke-width: 0.5; stroke-linejoin: miter"/>
   </g>
   <g id="patch_135">
    <path d="M 418.85525 356.477812 
L 421.08725 356.477812 
L 421.08725 105.001972 
L 418.85525 105.001972 
z
" clip-path="url(#pa70e182952)" style="fill: #4682b4; opacity: 0.8; stroke: #000000; stroke-width: 0.5; stroke-linejoin: miter"/>
   </g>
   <g id="patch_136">
    <path d="M 421.64525 356.477812 
L 423.87725 356.477812 
L 423.87725 104.336692 
L 421.64525 104.336692 
z
" clip-path="url(#pa70e182952)" style="fill: #4682b4; opacity: 0.8; stroke: #000000; stroke-width: 0.5; stroke-linejoin: miter"/>
   </g>
   <g id="patch_137">
    <path d="M 424.43525 356.477812 
L 426.66725 356.477812 
L 426.66725 103.671412 
L 424.43525 103.671412 
z
" clip-path="url(#pa70e182952)" style="fill: #4682b4; opacity: 0.8; stroke: #000000; stroke-width: 0.5; stroke-linejoin: miter"/>
   </g>
   <g id="patch_138">
    <path d="M 427.22525 356.477812 
L 429.45725 356.477812 
L 429.45725 103.338772 
L 427.22525 103.338772 
z
" clip-path="url(#pa70e182952)" style="fill: #4682b4; opacity: 0.8; stroke: #000000; stroke-width: 0.5; stroke-linejoin: miter"/>
   </g>
   <g id="patch_139">
    <path d="M 430.01525 356.477812 
L 432.24725 356.477812 
L 432.24725 103.006132 
L 430.01525 103.006132 
z
" clip-path="url(#pa70e182952)" style="fill: #4682b4; opacity: 0.8; stroke: #000000; stroke-width: 0.5; stroke-linejoin: miter"/>
   </g>
   <g id="patch_140">
    <path d="M 432.80525 356.477812 
L 435.03725 356.477812 
L 435.03725 103.006132 
L 432.80525 103.006132 
z
" clip-path="url(#pa70e182952)" style="fill: #4682b4; opacity: 0.8; stroke: #000000; stroke-width: 0.5; stroke-linejoin: miter"/>
   </g>
   <g id="patch_141">
    <path d="M 435.59525 356.477812 
L 437.82725 356.477812 
L 437.82725 101.675572 
L 435.59525 101.675572 
z
" clip-path="url(#pa70e182952)" style="fill: #4682b4; opacity: 0.8; stroke: #000000; stroke-width: 0.5; stroke-linejoin: miter"/>
   </g>
   <g id="patch_142">
    <path d="M 438.38525 356.477812 
L 440.61725 356.477812 
L 440.61725 101.675572 
L 438.38525 101.675572 
z
" clip-path="url(#pa70e182952)" style="fill: #4682b4; opacity: 0.8; stroke: #000000; stroke-width: 0.5; stroke-linejoin: miter"/>
   </g>
   <g id="patch_143">
    <path d="M 441.17525 356.477812 
L 443.40725 356.477812 
L 443.40725 101.010292 
L 441.17525 101.010292 
z
" clip-path="url(#pa70e182952)" style="fill: #4682b4; opacity: 0.8; stroke: #000000; stroke-width: 0.5; stroke-linejoin: miter"/>
   </g>
   <g id="patch_144">
    <path d="M 443.96525 356.477812 
L 446.19725 356.477812 
L 446.19725 100.677652 
L 443.96525 100.677652 
z
" clip-path="url(#pa70e182952)" style="fill: #4682b4; opacity: 0.8; stroke: #000000; stroke-width: 0.5; stroke-linejoin: miter"/>
   </g>
   <g id="patch_145">
    <path d="M 446.75525 356.477812 
L 448.98725 356.477812 
L 448.98725 100.345012 
L 446.75525 100.345012 
z
" clip-path="url(#pa70e182952)" style="fill: #4682b4; opacity: 0.8; stroke: #000000; stroke-width: 0.5; stroke-linejoin: miter"/>
   </g>
   <g id="patch_146">
    <path d="M 449.54525 356.477812 
L 451.77725 356.477812 
L 451.77725 100.012372 
L 449.54525 100.012372 
z
" clip-path="url(#pa70e182952)" style="fill: #4682b4; opacity: 0.8; stroke: #000000; stroke-width: 0.5; stroke-linejoin: miter"/>
   </g>
   <g id="patch_147">
    <path d="M 452.33525 356.477812 
L 454.56725 356.477812 
L 454.56725 99.014452 
L 452.33525 99.014452 
z
" clip-path="url(#pa70e182952)" style="fill: #4682b4; opacity: 0.8; stroke: #000000; stroke-width: 0.5; stroke-linejoin: miter"/>
   </g>
   <g id="patch_148">
    <path d="M 455.12525 356.477812 
L 457.35725 356.477812 
L 457.35725 99.014452 
L 455.12525 99.014452 
z
" clip-path="url(#pa70e182952)" style="fill: #4682b4; opacity: 0.8; stroke: #000000; stroke-width: 0.5; stroke-linejoin: miter"/>
   </g>
   <g id="patch_149">
    <path d="M 457.91525 356.477812 
L 460.14725 356.477812 
L 460.14725 98.681812 
L 457.91525 98.681812 
z
" clip-path="url(#pa70e182952)" style="fill: #4682b4; opacity: 0.8; stroke: #000000; stroke-width: 0.5; stroke-linejoin: miter"/>
   </g>
   <g id="patch_150">
    <path d="M 460.70525 356.477812 
L 462.93725 356.477812 
L 462.93725 99.014452 
L 460.70525 99.014452 
z
" clip-path="url(#pa70e182952)" style="fill: #4682b4; opacity: 0.8; stroke: #000000; stroke-width: 0.5; stroke-linejoin: miter"/>
   </g>
   <g id="patch_151">
    <path d="M 463.49525 356.477812 
L 465.72725 356.477812 
L 465.72725 98.349172 
L 463.49525 98.349172 
z
" clip-path="url(#pa70e182952)" style="fill: #4682b4; opacity: 0.8; stroke: #000000; stroke-width: 0.5; stroke-linejoin: miter"/>
   </g>
   <g id="patch_152">
    <path d="M 466.28525 356.477812 
L 468.51725 356.477812 
L 468.51725 98.016532 
L 466.28525 98.016532 
z
" clip-path="url(#pa70e182952)" style="fill: #4682b4; opacity: 0.8; stroke: #000000; stroke-width: 0.5; stroke-linejoin: miter"/>
   </g>
   <g id="patch_153">
    <path d="M 469.07525 356.477812 
L 471.30725 356.477812 
L 471.30725 97.351252 
L 469.07525 97.351252 
z
" clip-path="url(#pa70e182952)" style="fill: #4682b4; opacity: 0.8; stroke: #000000; stroke-width: 0.5; stroke-linejoin: miter"/>
   </g>
   <g id="patch_154">
    <path d="M 471.86525 356.477812 
L 474.09725 356.477812 
L 474.09725 96.353332 
L 471.86525 96.353332 
z
" clip-path="url(#pa70e182952)" style="fill: #4682b4; opacity: 0.8; stroke: #000000; stroke-width: 0.5; stroke-linejoin: miter"/>
   </g>
   <g id="patch_155">
    <path d="M 474.65525 356.477812 
L 476.88725 356.477812 
L 476.88725 95.355412 
L 474.65525 95.355412 
z
" clip-path="url(#pa70e182952)" style="fill: #4682b4; opacity: 0.8; stroke: #000000; stroke-width: 0.5; stroke-linejoin: miter"/>
   </g>
   <g id="patch_156">
    <path d="M 477.44525 356.477812 
L 479.67725 356.477812 
L 479.67725 95.022772 
L 477.44525 95.022772 
z
" clip-path="url(#pa70e182952)" style="fill: #4682b4; opacity: 0.8; stroke: #000000; stroke-width: 0.5; stroke-linejoin: miter"/>
   </g>
   <g id="patch_157">
    <path d="M 480.23525 356.477812 
L 482.46725 356.477812 
L 482.46725 94.690132 
L 480.23525 94.690132 
z
" clip-path="url(#pa70e182952)" style="fill: #4682b4; opacity: 0.8; stroke: #000000; stroke-width: 0.5; stroke-linejoin: miter"/>
   </g>
   <g id="patch_158">
    <path d="M 483.02525 356.477812 
L 485.25725 356.477812 
L 485.25725 93.692212 
L 483.02525 93.692212 
z
" clip-path="url(#pa70e182952)" style="fill: #4682b4; opacity: 0.8; stroke: #000000; stroke-width: 0.5; stroke-linejoin: miter"/>
   </g>
   <g id="patch_159">
    <path d="M 485.81525 356.477812 
L 488.04725 356.477812 
L 488.04725 93.692212 
L 485.81525 93.692212 
z
" clip-path="url(#pa70e182952)" style="fill: #4682b4; opacity: 0.8; stroke: #000000; stroke-width: 0.5; stroke-linejoin: miter"/>
   </g>
   <g id="patch_160">
    <path d="M 488.60525 356.477812 
L 490.83725 356.477812 
L 490.83725 93.692212 
L 488.60525 93.692212 
z
" clip-path="url(#pa70e182952)" style="fill: #4682b4; opacity: 0.8; stroke: #000000; stroke-width: 0.5; stroke-linejoin: miter"/>
   </g>
   <g id="patch_161">
    <path d="M 491.39525 356.477812 
L 493.62725 356.477812 
L 493.62725 93.359572 
L 491.39525 93.359572 
z
" clip-path="url(#pa70e182952)" style="fill: #4682b4; opacity: 0.8; stroke: #000000; stroke-width: 0.5; stroke-linejoin: miter"/>
   </g>
   <g id="patch_162">
    <path d="M 494.18525 356.477812 
L 496.41725 356.477812 
L 496.41725 92.029012 
L 494.18525 92.029012 
z
" clip-path="url(#pa70e182952)" style="fill: #4682b4; opacity: 0.8; stroke: #000000; stroke-width: 0.5; stroke-linejoin: miter"/>
   </g>
   <g id="patch_163">
    <path d="M 496.97525 356.477812 
L 499.20725 356.477812 
L 499.20725 91.696372 
L 496.97525 91.696372 
z
" clip-path="url(#pa70e182952)" style="fill: #4682b4; opacity: 0.8; stroke: #000000; stroke-width: 0.5; stroke-linejoin: miter"/>
   </g>
   <g id="patch_164">
    <path d="M 499.76525 356.477812 
L 501.99725 356.477812 
L 501.99725 91.696372 
L 499.76525 91.696372 
z
" clip-path="url(#pa70e182952)" style="fill: #4682b4; opacity: 0.8; stroke: #000000; stroke-width: 0.5; stroke-linejoin: miter"/>
   </g>
   <g id="patch_165">
    <path d="M 502.55525 356.477812 
L 504.78725 356.477812 
L 504.78725 91.363732 
L 502.55525 91.363732 
z
" clip-path="url(#pa70e182952)" style="fill: #4682b4; opacity: 0.8; stroke: #000000; stroke-width: 0.5; stroke-linejoin: miter"/>
   </g>
   <g id="patch_166">
    <path d="M 505.34525 356.477812 
L 507.57725 356.477812 
L 507.57725 90.365812 
L 505.34525 90.365812 
z
" clip-path="url(#pa70e182952)" style="fill: #4682b4; opacity: 0.8; stroke: #000000; stroke-width: 0.5; stroke-linejoin: miter"/>
   </g>
   <g id="patch_167">
    <path d="M 508.13525 356.477812 
L 510.36725 356.477812 
L 510.36725 89.700532 
L 508.13525 89.700532 
z
" clip-path="url(#pa70e182952)" style="fill: #4682b4; opacity: 0.8; stroke: #000000; stroke-width: 0.5; stroke-linejoin: miter"/>
   </g>
   <g id="patch_168">
    <path d="M 510.92525 356.477812 
L 513.15725 356.477812 
L 513.15725 89.367892 
L 510.92525 89.367892 
z
" clip-path="url(#pa70e182952)" style="fill: #4682b4; opacity: 0.8; stroke: #000000; stroke-width: 0.5; stroke-linejoin: miter"/>
   </g>
   <g id="patch_169">
    <path d="M 513.71525 356.477812 
L 515.94725 356.477812 
L 515.94725 89.367892 
L 513.71525 89.367892 
z
" clip-path="url(#pa70e182952)" style="fill: #4682b4; opacity: 0.8; stroke: #000000; stroke-width: 0.5; stroke-linejoin: miter"/>
   </g>
   <g id="patch_170">
    <path d="M 516.50525 356.477812 
L 518.73725 356.477812 
L 518.73725 89.367892 
L 516.50525 89.367892 
z
" clip-path="url(#pa70e182952)" style="fill: #4682b4; opacity: 0.8; stroke: #000000; stroke-width: 0.5; stroke-linejoin: miter"/>
   </g>
   <g id="patch_171">
    <path d="M 519.29525 356.477812 
L 521.52725 356.477812 
L 521.52725 89.035252 
L 519.29525 89.035252 
z
" clip-path="url(#pa70e182952)" style="fill: #4682b4; opacity: 0.8; stroke: #000000; stroke-width: 0.5; stroke-linejoin: miter"/>
   </g>
   <g id="patch_172">
    <path d="M 522.08525 356.477812 
L 524.31725 356.477812 
L 524.31725 88.037332 
L 522.08525 88.037332 
z
" clip-path="url(#pa70e182952)" style="fill: #4682b4; opacity: 0.8; stroke: #000000; stroke-width: 0.5; stroke-linejoin: miter"/>
   </g>
   <g id="patch_173">
    <path d="M 524.87525 356.477812 
L 527.10725 356.477812 
L 527.10725 88.037332 
L 524.87525 88.037332 
z
" clip-path="url(#pa70e182952)" style="fill: #4682b4; opacity: 0.8; stroke: #000000; stroke-width: 0.5; stroke-linejoin: miter"/>
   </g>
   <g id="patch_174">
    <path d="M 527.66525 356.477812 
L 529.89725 356.477812 
L 529.89725 88.037332 
L 527.66525 88.037332 
z
" clip-path="url(#pa70e182952)" style="fill: #4682b4; opacity: 0.8; stroke: #000000; stroke-width: 0.5; stroke-linejoin: miter"/>
   </g>
   <g id="patch_175">
    <path d="M 530.45525 356.477812 
L 532.68725 356.477812 
L 532.68725 88.037332 
L 530.45525 88.037332 
z
" clip-path="url(#pa70e182952)" style="fill: #4682b4; opacity: 0.8; stroke: #000000; stroke-width: 0.5; stroke-linejoin: miter"/>
   </g>
   <g id="patch_176">
    <path d="M 533.24525 356.477812 
L 535.47725 356.477812 
L 535.47725 88.037332 
L 533.24525 88.037332 
z
" clip-path="url(#pa70e182952)" style="fill: #4682b4; opacity: 0.8; stroke: #000000; stroke-width: 0.5; stroke-linejoin: miter"/>
   </g>
   <g id="patch_177">
    <path d="M 536.03525 356.477812 
L 538.26725 356.477812 
L 538.26725 88.037332 
L 536.03525 88.037332 
z
" clip-path="url(#pa70e182952)" style="fill: #4682b4; opacity: 0.8; stroke: #000000; stroke-width: 0.5; stroke-linejoin: miter"/>
   </g>
   <g id="patch_178">
    <path d="M 538.82525 356.477812 
L 541.05725 356.477812 
L 541.05725 87.039412 
L 538.82525 87.039412 
z
" clip-path="url(#pa70e182952)" style="fill: #4682b4; opacity: 0.8; stroke: #000000; stroke-width: 0.5; stroke-linejoin: miter"/>
   </g>
   <g id="patch_179">
    <path d="M 541.61525 356.477812 
L 543.84725 356.477812 
L 543.84725 87.039412 
L 541.61525 87.039412 
z
" clip-path="url(#pa70e182952)" style="fill: #4682b4; opacity: 0.8; stroke: #000000; stroke-width: 0.5; stroke-linejoin: miter"/>
   </g>
   <g id="patch_180">
    <path d="M 544.40525 356.477812 
L 546.63725 356.477812 
L 546.63725 87.039412 
L 544.40525 87.039412 
z
" clip-path="url(#pa70e182952)" style="fill: #4682b4; opacity: 0.8; stroke: #000000; stroke-width: 0.5; stroke-linejoin: miter"/>
   </g>
   <g id="patch_181">
    <path d="M 547.19525 356.477812 
L 549.42725 356.477812 
L 549.42725 86.374132 
L 547.19525 86.374132 
z
" clip-path="url(#pa70e182952)" style="fill: #4682b4; opacity: 0.8; stroke: #000000; stroke-width: 0.5; stroke-linejoin: miter"/>
   </g>
   <g id="patch_182">
    <path d="M 549.98525 356.477812 
L 552.21725 356.477812 
L 552.21725 85.376212 
L 549.98525 85.376212 
z
" clip-path="url(#pa70e182952)" style="fill: #4682b4; opacity: 0.8; stroke: #000000; stroke-width: 0.5; stroke-linejoin: miter"/>
   </g>
   <g id="patch_183">
    <path d="M 552.77525 356.477812 
L 555.00725 356.477812 
L 555.00725 85.376212 
L 552.77525 85.376212 
z
" clip-path="url(#pa70e182952)" style="fill: #4682b4; opacity: 0.8; stroke: #000000; stroke-width: 0.5; stroke-linejoin: miter"/>
   </g>
   <g id="patch_184">
    <path d="M 555.56525 356.477812 
L 557.79725 356.477812 
L 557.79725 84.710932 
L 555.56525 84.710932 
z
" clip-path="url(#pa70e182952)" style="fill: #4682b4; opacity: 0.8; stroke: #000000; stroke-width: 0.5; stroke-linejoin: miter"/>
   </g>
   <g id="patch_185">
    <path d="M 558.35525 356.477812 
L 560.58725 356.477812 
L 560.58725 84.710932 
L 558.35525 84.710932 
z
" clip-path="url(#pa70e182952)" style="fill: #4682b4; opacity: 0.8; stroke: #000000; stroke-width: 0.5; stroke-linejoin: miter"/>
   </g>
   <g id="patch_186">
    <path d="M 561.14525 356.477812 
L 563.37725 356.477812 
L 563.37725 84.710932 
L 561.14525 84.710932 
z
" clip-path="url(#pa70e182952)" style="fill: #4682b4; opacity: 0.8; stroke: #000000; stroke-width: 0.5; stroke-linejoin: miter"/>
   </g>
   <g id="patch_187">
    <path d="M 563.93525 356.477812 
L 566.16725 356.477812 
L 566.16725 84.378292 
L 563.93525 84.378292 
z
" clip-path="url(#pa70e182952)" style="fill: #4682b4; opacity: 0.8; stroke: #000000; stroke-width: 0.5; stroke-linejoin: miter"/>
   </g>
   <g id="patch_188">
    <path d="M 566.72525 356.477812 
L 568.95725 356.477812 
L 568.95725 84.045652 
L 566.72525 84.045652 
z
" clip-path="url(#pa70e182952)" style="fill: #4682b4; opacity: 0.8; stroke: #000000; stroke-width: 0.5; stroke-linejoin: miter"/>
   </g>
   <g id="patch_189">
    <path d="M 569.51525 356.477812 
L 571.74725 356.477812 
L 571.74725 83.380372 
L 569.51525 83.380372 
z
" clip-path="url(#pa70e182952)" style="fill: #4682b4; opacity: 0.8; stroke: #000000; stroke-width: 0.5; stroke-linejoin: miter"/>
   </g>
   <g id="patch_190">
    <path d="M 572.30525 356.477812 
L 574.53725 356.477812 
L 574.53725 83.047732 
L 572.30525 83.047732 
z
" clip-path="url(#pa70e182952)" style="fill: #4682b4; opacity: 0.8; stroke: #000000; stroke-width: 0.5; stroke-linejoin: miter"/>
   </g>
   <g id="patch_191">
    <path d="M 575.09525 356.477812 
L 577.32725 356.477812 
L 577.32725 82.382452 
L 575.09525 82.382452 
z
" clip-path="url(#pa70e182952)" style="fill: #4682b4; opacity: 0.8; stroke: #000000; stroke-width: 0.5; stroke-linejoin: miter"/>
   </g>
   <g id="patch_192">
    <path d="M 577.88525 356.477812 
L 580.11725 356.477812 
L 580.11725 82.382452 
L 577.88525 82.382452 
z
" clip-path="url(#pa70e182952)" style="fill: #4682b4; opacity: 0.8; stroke: #000000; stroke-width: 0.5; stroke-linejoin: miter"/>
   </g>
   <g id="patch_193">
    <path d="M 580.67525 356.477812 
L 582.90725 356.477812 
L 582.90725 82.049812 
L 580.67525 82.049812 
z
" clip-path="url(#pa70e182952)" style="fill: #4682b4; opacity: 0.8; stroke: #000000; stroke-width: 0.5; stroke-linejoin: miter"/>
   </g>
   <g id="patch_194">
    <path d="M 583.46525 356.477812 
L 585.69725 356.477812 
L 585.69725 81.717172 
L 583.46525 81.717172 
z
" clip-path="url(#pa70e182952)" style="fill: #4682b4; opacity: 0.8; stroke: #000000; stroke-width: 0.5; stroke-linejoin: miter"/>
   </g>
   <g id="patch_195">
    <path d="M 586.25525 356.477812 
L 588.48725 356.477812 
L 588.48725 81.717172 
L 586.25525 81.717172 
z
" clip-path="url(#pa70e182952)" style="fill: #4682b4; opacity: 0.8; stroke: #000000; stroke-width: 0.5; stroke-linejoin: miter"/>
   </g>
   <g id="patch_196">
    <path d="M 589.04525 356.477812 
L 591.27725 356.477812 
L 591.27725 81.384532 
L 589.04525 81.384532 
z
" clip-path="url(#pa70e182952)" style="fill: #4682b4; opacity: 0.8; stroke: #000000; stroke-width: 0.5; stroke-linejoin: miter"/>
   </g>
   <g id="patch_197">
    <path d="M 591.83525 356.477812 
L 594.06725 356.477812 
L 594.06725 81.051892 
L 591.83525 81.051892 
z
" clip-path="url(#pa70e182952)" style="fill: #4682b4; opacity: 0.8; stroke: #000000; stroke-width: 0.5; stroke-linejoin: miter"/>
   </g>
   <g id="patch_198">
    <path d="M 594.62525 356.477812 
L 596.85725 356.477812 
L 596.85725 80.719252 
L 594.62525 80.719252 
z
" clip-path="url(#pa70e182952)" style="fill: #4682b4; opacity: 0.8; stroke: #000000; stroke-width: 0.5; stroke-linejoin: miter"/>
   </g>
   <g id="patch_199">
    <path d="M 597.41525 356.477812 
L 599.64725 356.477812 
L 599.64725 80.386612 
L 597.41525 80.386612 
z
" clip-path="url(#pa70e182952)" style="fill: #4682b4; opacity: 0.8; stroke: #000000; stroke-width: 0.5; stroke-linejoin: miter"/>
   </g>
   <g id="patch_200">
    <path d="M 600.20525 356.477812 
L 602.43725 356.477812 
L 602.43725 79.721332 
L 600.20525 79.721332 
z
" clip-path="url(#pa70e182952)" style="fill: #4682b4; opacity: 0.8; stroke: #000000; stroke-width: 0.5; stroke-linejoin: miter"/>
   </g>
   <g id="patch_201">
    <path d="M 602.99525 356.477812 
L 605.22725 356.477812 
L 605.22725 79.388692 
L 602.99525 79.388692 
z
" clip-path="url(#pa70e182952)" style="fill: #4682b4; opacity: 0.8; stroke: #000000; stroke-width: 0.5; stroke-linejoin: miter"/>
   </g>
   <g id="patch_202">
    <path d="M 605.78525 356.477812 
L 608.01725 356.477812 
L 608.01725 79.388692 
L 605.78525 79.388692 
z
" clip-path="url(#pa70e182952)" style="fill: #4682b4; opacity: 0.8; stroke: #000000; stroke-width: 0.5; stroke-linejoin: miter"/>
   </g>
   <g id="matplotlib.axis_1">
    <g id="xtick_1">
     <g id="line2d_1">
      <defs>
       <path id="mfc40e99826" d="M 0 0 
L 0 3.5 
" style="stroke: #000000; stroke-width: 0.8"/>
      </defs>
      <g>
       <use xlink:href="#mfc40e99826" x="48.90125" y="356.477812" style="stroke: #000000; stroke-width: 0.8"/>
      </g>
     </g>
     <g id="text_1">
      <!-- 0 -->
      <g transform="translate(45.72 371.07625) scale(0.1 -0.1)">
       <defs>
        <path id="DejaVuSans-30" d="M 2034 4250 
Q 1547 4250 1301 3770 
Q 1056 3291 1056 2328 
Q 1056 1369 1301 889 
Q 1547 409 2034 409 
Q 2525 409 2770 889 
Q 3016 1369 3016 2328 
Q 3016 3291 2770 3770 
Q 2525 4250 2034 4250 
z
M 2034 4750 
Q 2819 4750 3233 4129 
Q 3647 3509 3647 2328 
Q 3647 1150 3233 529 
Q 2819 -91 2034 -91 
Q 1250 -91 836 529 
Q 422 1150 422 2328 
Q 422 3509 836 4129 
Q 1250 4750 2034 4750 
z
" transform="scale(0.015625)"/>
       </defs>
       <use xlink:href="#DejaVuSans-30"/>
      </g>
     </g>
    </g>
    <g id="xtick_2">
     <g id="line2d_2">
      <g>
       <use xlink:href="#mfc40e99826" x="118.65125" y="356.477812" style="stroke: #000000; stroke-width: 0.8"/>
      </g>
     </g>
     <g id="text_2">
      <!-- 25 -->
      <g transform="translate(112.28875 371.07625) scale(0.1 -0.1)">
       <defs>
        <path id="DejaVuSans-32" d="M 1228 531 
L 3431 531 
L 3431 0 
L 469 0 
L 469 531 
Q 828 903 1448 1529 
Q 2069 2156 2228 2338 
Q 2531 2678 2651 2914 
Q 2772 3150 2772 3378 
Q 2772 3750 2511 3984 
Q 2250 4219 1831 4219 
Q 1534 4219 1204 4116 
Q 875 4013 500 3803 
L 500 4441 
Q 881 4594 1212 4672 
Q 1544 4750 1819 4750 
Q 2544 4750 2975 4387 
Q 3406 4025 3406 3419 
Q 3406 3131 3298 2873 
Q 3191 2616 2906 2266 
Q 2828 2175 2409 1742 
Q 1991 1309 1228 531 
z
" transform="scale(0.015625)"/>
        <path id="DejaVuSans-35" d="M 691 4666 
L 3169 4666 
L 3169 4134 
L 1269 4134 
L 1269 2991 
Q 1406 3038 1543 3061 
Q 1681 3084 1819 3084 
Q 2600 3084 3056 2656 
Q 3513 2228 3513 1497 
Q 3513 744 3044 326 
Q 2575 -91 1722 -91 
Q 1428 -91 1123 -41 
Q 819 9 494 109 
L 494 744 
Q 775 591 1075 516 
Q 1375 441 1709 441 
Q 2250 441 2565 725 
Q 2881 1009 2881 1497 
Q 2881 1984 2565 2268 
Q 2250 2553 1709 2553 
Q 1456 2553 1204 2497 
Q 953 2441 691 2322 
L 691 4666 
z
" transform="scale(0.015625)"/>
       </defs>
       <use xlink:href="#DejaVuSans-32"/>
       <use xlink:href="#DejaVuSans-35" transform="translate(63.623047 0)"/>
      </g>
     </g>
    </g>
    <g id="xtick_3">
     <g id="line2d_3">
      <g>
       <use xlink:href="#mfc40e99826" x="188.40125" y="356.477812" style="stroke: #000000; stroke-width: 0.8"/>
      </g>
     </g>
     <g id="text_3">
      <!-- 50 -->
      <g transform="translate(182.03875 371.07625) scale(0.1 -0.1)">
       <use xlink:href="#DejaVuSans-35"/>
       <use xlink:href="#DejaVuSans-30" transform="translate(63.623047 0)"/>
      </g>
     </g>
    </g>
    <g id="xtick_4">
     <g id="line2d_4">
      <g>
       <use xlink:href="#mfc40e99826" x="258.15125" y="356.477812" style="stroke: #000000; stroke-width: 0.8"/>
      </g>
     </g>
     <g id="text_4">
      <!-- 75 -->
      <g transform="translate(251.78875 371.07625) scale(0.1 -0.1)">
       <defs>
        <path id="DejaVuSans-37" d="M 525 4666 
L 3525 4666 
L 3525 4397 
L 1831 0 
L 1172 0 
L 2766 4134 
L 525 4134 
L 525 4666 
z
" transform="scale(0.015625)"/>
       </defs>
       <use xlink:href="#DejaVuSans-37"/>
       <use xlink:href="#DejaVuSans-35" transform="translate(63.623047 0)"/>
      </g>
     </g>
    </g>
    <g id="xtick_5">
     <g id="line2d_5">
      <g>
       <use xlink:href="#mfc40e99826" x="327.90125" y="356.477812" style="stroke: #000000; stroke-width: 0.8"/>
      </g>
     </g>
     <g id="text_5">
      <!-- 100 -->
      <g transform="translate(318.3575 371.07625) scale(0.1 -0.1)">
       <defs>
        <path id="DejaVuSans-31" d="M 794 531 
L 1825 531 
L 1825 4091 
L 703 3866 
L 703 4441 
L 1819 4666 
L 2450 4666 
L 2450 531 
L 3481 531 
L 3481 0 
L 794 0 
L 794 531 
z
" transform="scale(0.015625)"/>
       </defs>
       <use xlink:href="#DejaVuSans-31"/>
       <use xlink:href="#DejaVuSans-30" transform="translate(63.623047 0)"/>
       <use xlink:href="#DejaVuSans-30" transform="translate(127.246094 0)"/>
      </g>
     </g>
    </g>
    <g id="xtick_6">
     <g id="line2d_6">
      <g>
       <use xlink:href="#mfc40e99826" x="397.65125" y="356.477812" style="stroke: #000000; stroke-width: 0.8"/>
      </g>
     </g>
     <g id="text_6">
      <!-- 125 -->
      <g transform="translate(388.1075 371.07625) scale(0.1 -0.1)">
       <use xlink:href="#DejaVuSans-31"/>
       <use xlink:href="#DejaVuSans-32" transform="translate(63.623047 0)"/>
       <use xlink:href="#DejaVuSans-35" transform="translate(127.246094 0)"/>
      </g>
     </g>
    </g>
    <g id="xtick_7">
     <g id="line2d_7">
      <g>
       <use xlink:href="#mfc40e99826" x="467.40125" y="356.477812" style="stroke: #000000; stroke-width: 0.8"/>
      </g>
     </g>
     <g id="text_7">
      <!-- 150 -->
      <g transform="translate(457.8575 371.07625) scale(0.1 -0.1)">
       <use xlink:href="#DejaVuSans-31"/>
       <use xlink:href="#DejaVuSans-35" transform="translate(63.623047 0)"/>
       <use xlink:href="#DejaVuSans-30" transform="translate(127.246094 0)"/>
      </g>
     </g>
    </g>
    <g id="xtick_8">
     <g id="line2d_8">
      <g>
       <use xlink:href="#mfc40e99826" x="537.15125" y="356.477812" style="stroke: #000000; stroke-width: 0.8"/>
      </g>
     </g>
     <g id="text_8">
      <!-- 175 -->
      <g transform="translate(527.6075 371.07625) scale(0.1 -0.1)">
       <use xlink:href="#DejaVuSans-31"/>
       <use xlink:href="#DejaVuSans-37" transform="translate(63.623047 0)"/>
       <use xlink:href="#DejaVuSans-35" transform="translate(127.246094 0)"/>
      </g>
     </g>
    </g>
    <g id="xtick_9">
     <g id="line2d_9">
      <g>
       <use xlink:href="#mfc40e99826" x="606.90125" y="356.477812" style="stroke: #000000; stroke-width: 0.8"/>
      </g>
     </g>
     <g id="text_9">
      <!-- 200 -->
      <g transform="translate(597.3575 371.07625) scale(0.1 -0.1)">
       <use xlink:href="#DejaVuSans-32"/>
       <use xlink:href="#DejaVuSans-30" transform="translate(63.623047 0)"/>
       <use xlink:href="#DejaVuSans-30" transform="translate(127.246094 0)"/>
      </g>
     </g>
    </g>
    <g id="text_10">
     <!-- Hill coefficient (d) -->
     <g transform="translate(274.717813 386.274062) scale(0.12 -0.12)">
      <defs>
       <path id="DejaVuSans-48" d="M 628 4666 
L 1259 4666 
L 1259 2753 
L 3553 2753 
L 3553 4666 
L 4184 4666 
L 4184 0 
L 3553 0 
L 3553 2222 
L 1259 2222 
L 1259 0 
L 628 0 
L 628 4666 
z
" transform="scale(0.015625)"/>
       <path id="DejaVuSans-69" d="M 603 3500 
L 1178 3500 
L 1178 0 
L 603 0 
L 603 3500 
z
M 603 4863 
L 1178 4863 
L 1178 4134 
L 603 4134 
L 603 4863 
z
" transform="scale(0.015625)"/>
       <path id="DejaVuSans-6c" d="M 603 4863 
L 1178 4863 
L 1178 0 
L 603 0 
L 603 4863 
z
" transform="scale(0.015625)"/>
       <path id="DejaVuSans-20" transform="scale(0.015625)"/>
       <path id="DejaVuSans-63" d="M 3122 3366 
L 3122 2828 
Q 2878 2963 2633 3030 
Q 2388 3097 2138 3097 
Q 1578 3097 1268 2742 
Q 959 2388 959 1747 
Q 959 1106 1268 751 
Q 1578 397 2138 397 
Q 2388 397 2633 464 
Q 2878 531 3122 666 
L 3122 134 
Q 2881 22 2623 -34 
Q 2366 -91 2075 -91 
Q 1284 -91 818 406 
Q 353 903 353 1747 
Q 353 2603 823 3093 
Q 1294 3584 2113 3584 
Q 2378 3584 2631 3529 
Q 2884 3475 3122 3366 
z
" transform="scale(0.015625)"/>
       <path id="DejaVuSans-6f" d="M 1959 3097 
Q 1497 3097 1228 2736 
Q 959 2375 959 1747 
Q 959 1119 1226 758 
Q 1494 397 1959 397 
Q 2419 397 2687 759 
Q 2956 1122 2956 1747 
Q 2956 2369 2687 2733 
Q 2419 3097 1959 3097 
z
M 1959 3584 
Q 2709 3584 3137 3096 
Q 3566 2609 3566 1747 
Q 3566 888 3137 398 
Q 2709 -91 1959 -91 
Q 1206 -91 779 398 
Q 353 888 353 1747 
Q 353 2609 779 3096 
Q 1206 3584 1959 3584 
z
" transform="scale(0.015625)"/>
       <path id="DejaVuSans-65" d="M 3597 1894 
L 3597 1613 
L 953 1613 
Q 991 1019 1311 708 
Q 1631 397 2203 397 
Q 2534 397 2845 478 
Q 3156 559 3463 722 
L 3463 178 
Q 3153 47 2828 -22 
Q 2503 -91 2169 -91 
Q 1331 -91 842 396 
Q 353 884 353 1716 
Q 353 2575 817 3079 
Q 1281 3584 2069 3584 
Q 2775 3584 3186 3129 
Q 3597 2675 3597 1894 
z
M 3022 2063 
Q 3016 2534 2758 2815 
Q 2500 3097 2075 3097 
Q 1594 3097 1305 2825 
Q 1016 2553 972 2059 
L 3022 2063 
z
" transform="scale(0.015625)"/>
       <path id="DejaVuSans-66" d="M 2375 4863 
L 2375 4384 
L 1825 4384 
Q 1516 4384 1395 4259 
Q 1275 4134 1275 3809 
L 1275 3500 
L 2222 3500 
L 2222 3053 
L 1275 3053 
L 1275 0 
L 697 0 
L 697 3053 
L 147 3053 
L 147 3500 
L 697 3500 
L 697 3744 
Q 697 4328 969 4595 
Q 1241 4863 1831 4863 
L 2375 4863 
z
" transform="scale(0.015625)"/>
       <path id="DejaVuSans-6e" d="M 3513 2113 
L 3513 0 
L 2938 0 
L 2938 2094 
Q 2938 2591 2744 2837 
Q 2550 3084 2163 3084 
Q 1697 3084 1428 2787 
Q 1159 2491 1159 1978 
L 1159 0 
L 581 0 
L 581 3500 
L 1159 3500 
L 1159 2956 
Q 1366 3272 1645 3428 
Q 1925 3584 2291 3584 
Q 2894 3584 3203 3211 
Q 3513 2838 3513 2113 
z
" transform="scale(0.015625)"/>
       <path id="DejaVuSans-74" d="M 1172 4494 
L 1172 3500 
L 2356 3500 
L 2356 3053 
L 1172 3053 
L 1172 1153 
Q 1172 725 1289 603 
Q 1406 481 1766 481 
L 2356 481 
L 2356 0 
L 1766 0 
Q 1100 0 847 248 
Q 594 497 594 1153 
L 594 3053 
L 172 3053 
L 172 3500 
L 594 3500 
L 594 4494 
L 1172 4494 
z
" transform="scale(0.015625)"/>
       <path id="DejaVuSans-28" d="M 1984 4856 
Q 1566 4138 1362 3434 
Q 1159 2731 1159 2009 
Q 1159 1288 1364 580 
Q 1569 -128 1984 -844 
L 1484 -844 
Q 1016 -109 783 600 
Q 550 1309 550 2009 
Q 550 2706 781 3412 
Q 1013 4119 1484 4856 
L 1984 4856 
z
" transform="scale(0.015625)"/>
       <path id="DejaVuSans-64" d="M 2906 2969 
L 2906 4863 
L 3481 4863 
L 3481 0 
L 2906 0 
L 2906 525 
Q 2725 213 2448 61 
Q 2172 -91 1784 -91 
Q 1150 -91 751 415 
Q 353 922 353 1747 
Q 353 2572 751 3078 
Q 1150 3584 1784 3584 
Q 2172 3584 2448 3432 
Q 2725 3281 2906 2969 
z
M 947 1747 
Q 947 1113 1208 752 
Q 1469 391 1925 391 
Q 2381 391 2643 752 
Q 2906 1113 2906 1747 
Q 2906 2381 2643 2742 
Q 2381 3103 1925 3103 
Q 1469 3103 1208 2742 
Q 947 2381 947 1747 
z
" transform="scale(0.015625)"/>
       <path id="DejaVuSans-29" d="M 513 4856 
L 1013 4856 
Q 1481 4119 1714 3412 
Q 1947 2706 1947 2009 
Q 1947 1309 1714 600 
Q 1481 -109 1013 -844 
L 513 -844 
Q 928 -128 1133 580 
Q 1338 1288 1338 2009 
Q 1338 2731 1133 3434 
Q 928 4138 513 4856 
z
" transform="scale(0.015625)"/>
      </defs>
      <use xlink:href="#DejaVuSans-48"/>
      <use xlink:href="#DejaVuSans-69" transform="translate(75.195312 0)"/>
      <use xlink:href="#DejaVuSans-6c" transform="translate(102.978516 0)"/>
      <use xlink:href="#DejaVuSans-6c" transform="translate(130.761719 0)"/>
      <use xlink:href="#DejaVuSans-20" transform="translate(158.544922 0)"/>
      <use xlink:href="#DejaVuSans-63" transform="translate(190.332031 0)"/>
      <use xlink:href="#DejaVuSans-6f" transform="translate(245.3125 0)"/>
      <use xlink:href="#DejaVuSans-65" transform="translate(306.494141 0)"/>
      <use xlink:href="#DejaVuSans-66" transform="translate(368.017578 0)"/>
      <use xlink:href="#DejaVuSans-66" transform="translate(403.222656 0)"/>
      <use xlink:href="#DejaVuSans-69" transform="translate(438.427734 0)"/>
      <use xlink:href="#DejaVuSans-63" transform="translate(466.210938 0)"/>
      <use xlink:href="#DejaVuSans-69" transform="translate(521.191406 0)"/>
      <use xlink:href="#DejaVuSans-65" transform="translate(548.974609 0)"/>
      <use xlink:href="#DejaVuSans-6e" transform="translate(610.498047 0)"/>
      <use xlink:href="#DejaVuSans-74" transform="translate(673.876953 0)"/>
      <use xlink:href="#DejaVuSans-20" transform="translate(713.085938 0)"/>
      <use xlink:href="#DejaVuSans-28" transform="translate(744.873047 0)"/>
      <use xlink:href="#DejaVuSans-64" transform="translate(783.886719 0)"/>
      <use xlink:href="#DejaVuSans-29" transform="translate(847.363281 0)"/>
     </g>
    </g>
   </g>
   <g id="matplotlib.axis_2">
    <g id="ytick_1">
     <g id="line2d_10">
      <path d="M 48.90125 356.477812 
L 606.90125 356.477812 
" clip-path="url(#pa70e182952)" style="fill: none; stroke-dasharray: 2.96,1.28; stroke-dashoffset: 0; stroke: #b0b0b0; stroke-opacity: 0.7; stroke-width: 0.8"/>
     </g>
     <g id="line2d_11">
      <defs>
       <path id="m996d410f9e" d="M 0 0 
L -3.5 0 
" style="stroke: #000000; stroke-width: 0.8"/>
      </defs>
      <g>
       <use xlink:href="#m996d410f9e" x="48.90125" y="356.477812" style="stroke: #000000; stroke-width: 0.8"/>
      </g>
     </g>
     <g id="text_11">
      <!-- 0 -->
      <g transform="translate(35.53875 360.277031) scale(0.1 -0.1)">
       <use xlink:href="#DejaVuSans-30"/>
      </g>
     </g>
    </g>
    <g id="ytick_2">
     <g id="line2d_12">
      <path d="M 48.90125 323.213812 
L 606.90125 323.213812 
" clip-path="url(#pa70e182952)" style="fill: none; stroke-dasharray: 2.96,1.28; stroke-dashoffset: 0; stroke: #b0b0b0; stroke-opacity: 0.7; stroke-width: 0.8"/>
     </g>
     <g id="line2d_13">
      <g>
       <use xlink:href="#m996d410f9e" x="48.90125" y="323.213812" style="stroke: #000000; stroke-width: 0.8"/>
      </g>
     </g>
     <g id="text_12">
      <!-- 10 -->
      <g transform="translate(29.17625 327.013031) scale(0.1 -0.1)">
       <use xlink:href="#DejaVuSans-31"/>
       <use xlink:href="#DejaVuSans-30" transform="translate(63.623047 0)"/>
      </g>
     </g>
    </g>
    <g id="ytick_3">
     <g id="line2d_14">
      <path d="M 48.90125 289.949812 
L 606.90125 289.949812 
" clip-path="url(#pa70e182952)" style="fill: none; stroke-dasharray: 2.96,1.28; stroke-dashoffset: 0; stroke: #b0b0b0; stroke-opacity: 0.7; stroke-width: 0.8"/>
     </g>
     <g id="line2d_15">
      <g>
       <use xlink:href="#m996d410f9e" x="48.90125" y="289.949812" style="stroke: #000000; stroke-width: 0.8"/>
      </g>
     </g>
     <g id="text_13">
      <!-- 20 -->
      <g transform="translate(29.17625 293.749031) scale(0.1 -0.1)">
       <use xlink:href="#DejaVuSans-32"/>
       <use xlink:href="#DejaVuSans-30" transform="translate(63.623047 0)"/>
      </g>
     </g>
    </g>
    <g id="ytick_4">
     <g id="line2d_16">
      <path d="M 48.90125 256.685812 
L 606.90125 256.685812 
" clip-path="url(#pa70e182952)" style="fill: none; stroke-dasharray: 2.96,1.28; stroke-dashoffset: 0; stroke: #b0b0b0; stroke-opacity: 0.7; stroke-width: 0.8"/>
     </g>
     <g id="line2d_17">
      <g>
       <use xlink:href="#m996d410f9e" x="48.90125" y="256.685812" style="stroke: #000000; stroke-width: 0.8"/>
      </g>
     </g>
     <g id="text_14">
      <!-- 30 -->
      <g transform="translate(29.17625 260.485031) scale(0.1 -0.1)">
       <defs>
        <path id="DejaVuSans-33" d="M 2597 2516 
Q 3050 2419 3304 2112 
Q 3559 1806 3559 1356 
Q 3559 666 3084 287 
Q 2609 -91 1734 -91 
Q 1441 -91 1130 -33 
Q 819 25 488 141 
L 488 750 
Q 750 597 1062 519 
Q 1375 441 1716 441 
Q 2309 441 2620 675 
Q 2931 909 2931 1356 
Q 2931 1769 2642 2001 
Q 2353 2234 1838 2234 
L 1294 2234 
L 1294 2753 
L 1863 2753 
Q 2328 2753 2575 2939 
Q 2822 3125 2822 3475 
Q 2822 3834 2567 4026 
Q 2313 4219 1838 4219 
Q 1578 4219 1281 4162 
Q 984 4106 628 3988 
L 628 4550 
Q 988 4650 1302 4700 
Q 1616 4750 1894 4750 
Q 2613 4750 3031 4423 
Q 3450 4097 3450 3541 
Q 3450 3153 3228 2886 
Q 3006 2619 2597 2516 
z
" transform="scale(0.015625)"/>
       </defs>
       <use xlink:href="#DejaVuSans-33"/>
       <use xlink:href="#DejaVuSans-30" transform="translate(63.623047 0)"/>
      </g>
     </g>
    </g>
    <g id="ytick_5">
     <g id="line2d_18">
      <path d="M 48.90125 223.421812 
L 606.90125 223.421812 
" clip-path="url(#pa70e182952)" style="fill: none; stroke-dasharray: 2.96,1.28; stroke-dashoffset: 0; stroke: #b0b0b0; stroke-opacity: 0.7; stroke-width: 0.8"/>
     </g>
     <g id="line2d_19">
      <g>
       <use xlink:href="#m996d410f9e" x="48.90125" y="223.421812" style="stroke: #000000; stroke-width: 0.8"/>
      </g>
     </g>
     <g id="text_15">
      <!-- 40 -->
      <g transform="translate(29.17625 227.221031) scale(0.1 -0.1)">
       <defs>
        <path id="DejaVuSans-34" d="M 2419 4116 
L 825 1625 
L 2419 1625 
L 2419 4116 
z
M 2253 4666 
L 3047 4666 
L 3047 1625 
L 3713 1625 
L 3713 1100 
L 3047 1100 
L 3047 0 
L 2419 0 
L 2419 1100 
L 313 1100 
L 313 1709 
L 2253 4666 
z
" transform="scale(0.015625)"/>
       </defs>
       <use xlink:href="#DejaVuSans-34"/>
       <use xlink:href="#DejaVuSans-30" transform="translate(63.623047 0)"/>
      </g>
     </g>
    </g>
    <g id="ytick_6">
     <g id="line2d_20">
      <path d="M 48.90125 190.157812 
L 606.90125 190.157812 
" clip-path="url(#pa70e182952)" style="fill: none; stroke-dasharray: 2.96,1.28; stroke-dashoffset: 0; stroke: #b0b0b0; stroke-opacity: 0.7; stroke-width: 0.8"/>
     </g>
     <g id="line2d_21">
      <g>
       <use xlink:href="#m996d410f9e" x="48.90125" y="190.157812" style="stroke: #000000; stroke-width: 0.8"/>
      </g>
     </g>
     <g id="text_16">
      <!-- 50 -->
      <g transform="translate(29.17625 193.957031) scale(0.1 -0.1)">
       <use xlink:href="#DejaVuSans-35"/>
       <use xlink:href="#DejaVuSans-30" transform="translate(63.623047 0)"/>
      </g>
     </g>
    </g>
    <g id="ytick_7">
     <g id="line2d_22">
      <path d="M 48.90125 156.893812 
L 606.90125 156.893812 
" clip-path="url(#pa70e182952)" style="fill: none; stroke-dasharray: 2.96,1.28; stroke-dashoffset: 0; stroke: #b0b0b0; stroke-opacity: 0.7; stroke-width: 0.8"/>
     </g>
     <g id="line2d_23">
      <g>
       <use xlink:href="#m996d410f9e" x="48.90125" y="156.893812" style="stroke: #000000; stroke-width: 0.8"/>
      </g>
     </g>
     <g id="text_17">
      <!-- 60 -->
      <g transform="translate(29.17625 160.693031) scale(0.1 -0.1)">
       <defs>
        <path id="DejaVuSans-36" d="M 2113 2584 
Q 1688 2584 1439 2293 
Q 1191 2003 1191 1497 
Q 1191 994 1439 701 
Q 1688 409 2113 409 
Q 2538 409 2786 701 
Q 3034 994 3034 1497 
Q 3034 2003 2786 2293 
Q 2538 2584 2113 2584 
z
M 3366 4563 
L 3366 3988 
Q 3128 4100 2886 4159 
Q 2644 4219 2406 4219 
Q 1781 4219 1451 3797 
Q 1122 3375 1075 2522 
Q 1259 2794 1537 2939 
Q 1816 3084 2150 3084 
Q 2853 3084 3261 2657 
Q 3669 2231 3669 1497 
Q 3669 778 3244 343 
Q 2819 -91 2113 -91 
Q 1303 -91 875 529 
Q 447 1150 447 2328 
Q 447 3434 972 4092 
Q 1497 4750 2381 4750 
Q 2619 4750 2861 4703 
Q 3103 4656 3366 4563 
z
" transform="scale(0.015625)"/>
       </defs>
       <use xlink:href="#DejaVuSans-36"/>
       <use xlink:href="#DejaVuSans-30" transform="translate(63.623047 0)"/>
      </g>
     </g>
    </g>
    <g id="ytick_8">
     <g id="line2d_24">
      <path d="M 48.90125 123.629812 
L 606.90125 123.629812 
" clip-path="url(#pa70e182952)" style="fill: none; stroke-dasharray: 2.96,1.28; stroke-dashoffset: 0; stroke: #b0b0b0; stroke-opacity: 0.7; stroke-width: 0.8"/>
     </g>
     <g id="line2d_25">
      <g>
       <use xlink:href="#m996d410f9e" x="48.90125" y="123.629812" style="stroke: #000000; stroke-width: 0.8"/>
      </g>
     </g>
     <g id="text_18">
      <!-- 70 -->
      <g transform="translate(29.17625 127.429031) scale(0.1 -0.1)">
       <use xlink:href="#DejaVuSans-37"/>
       <use xlink:href="#DejaVuSans-30" transform="translate(63.623047 0)"/>
      </g>
     </g>
    </g>
    <g id="ytick_9">
     <g id="line2d_26">
      <path d="M 48.90125 90.365812 
L 606.90125 90.365812 
" clip-path="url(#pa70e182952)" style="fill: none; stroke-dasharray: 2.96,1.28; stroke-dashoffset: 0; stroke: #b0b0b0; stroke-opacity: 0.7; stroke-width: 0.8"/>
     </g>
     <g id="line2d_27">
      <g>
       <use xlink:href="#m996d410f9e" x="48.90125" y="90.365812" style="stroke: #000000; stroke-width: 0.8"/>
      </g>
     </g>
     <g id="text_19">
      <!-- 80 -->
      <g transform="translate(29.17625 94.165031) scale(0.1 -0.1)">
       <defs>
        <path id="DejaVuSans-38" d="M 2034 2216 
Q 1584 2216 1326 1975 
Q 1069 1734 1069 1313 
Q 1069 891 1326 650 
Q 1584 409 2034 409 
Q 2484 409 2743 651 
Q 3003 894 3003 1313 
Q 3003 1734 2745 1975 
Q 2488 2216 2034 2216 
z
M 1403 2484 
Q 997 2584 770 2862 
Q 544 3141 544 3541 
Q 544 4100 942 4425 
Q 1341 4750 2034 4750 
Q 2731 4750 3128 4425 
Q 3525 4100 3525 3541 
Q 3525 3141 3298 2862 
Q 3072 2584 2669 2484 
Q 3125 2378 3379 2068 
Q 3634 1759 3634 1313 
Q 3634 634 3220 271 
Q 2806 -91 2034 -91 
Q 1263 -91 848 271 
Q 434 634 434 1313 
Q 434 1759 690 2068 
Q 947 2378 1403 2484 
z
M 1172 3481 
Q 1172 3119 1398 2916 
Q 1625 2713 2034 2713 
Q 2441 2713 2670 2916 
Q 2900 3119 2900 3481 
Q 2900 3844 2670 4047 
Q 2441 4250 2034 4250 
Q 1625 4250 1398 4047 
Q 1172 3844 1172 3481 
z
" transform="scale(0.015625)"/>
       </defs>
       <use xlink:href="#DejaVuSans-38"/>
       <use xlink:href="#DejaVuSans-30" transform="translate(63.623047 0)"/>
      </g>
     </g>
    </g>
    <g id="ytick_10">
     <g id="line2d_28">
      <path d="M 48.90125 57.101812 
L 606.90125 57.101812 
" clip-path="url(#pa70e182952)" style="fill: none; stroke-dasharray: 2.96,1.28; stroke-dashoffset: 0; stroke: #b0b0b0; stroke-opacity: 0.7; stroke-width: 0.8"/>
     </g>
     <g id="line2d_29">
      <g>
       <use xlink:href="#m996d410f9e" x="48.90125" y="57.101812" style="stroke: #000000; stroke-width: 0.8"/>
      </g>
     </g>
     <g id="text_20">
      <!-- 90 -->
      <g transform="translate(29.17625 60.901031) scale(0.1 -0.1)">
       <defs>
        <path id="DejaVuSans-39" d="M 703 97 
L 703 672 
Q 941 559 1184 500 
Q 1428 441 1663 441 
Q 2288 441 2617 861 
Q 2947 1281 2994 2138 
Q 2813 1869 2534 1725 
Q 2256 1581 1919 1581 
Q 1219 1581 811 2004 
Q 403 2428 403 3163 
Q 403 3881 828 4315 
Q 1253 4750 1959 4750 
Q 2769 4750 3195 4129 
Q 3622 3509 3622 2328 
Q 3622 1225 3098 567 
Q 2575 -91 1691 -91 
Q 1453 -91 1209 -44 
Q 966 3 703 97 
z
M 1959 2075 
Q 2384 2075 2632 2365 
Q 2881 2656 2881 3163 
Q 2881 3666 2632 3958 
Q 2384 4250 1959 4250 
Q 1534 4250 1286 3958 
Q 1038 3666 1038 3163 
Q 1038 2656 1286 2365 
Q 1534 2075 1959 2075 
z
" transform="scale(0.015625)"/>
       </defs>
       <use xlink:href="#DejaVuSans-39"/>
       <use xlink:href="#DejaVuSans-30" transform="translate(63.623047 0)"/>
      </g>
     </g>
    </g>
    <g id="ytick_11">
     <g id="line2d_30">
      <path d="M 48.90125 23.837812 
L 606.90125 23.837812 
" clip-path="url(#pa70e182952)" style="fill: none; stroke-dasharray: 2.96,1.28; stroke-dashoffset: 0; stroke: #b0b0b0; stroke-opacity: 0.7; stroke-width: 0.8"/>
     </g>
     <g id="line2d_31">
      <g>
       <use xlink:href="#m996d410f9e" x="48.90125" y="23.837812" style="stroke: #000000; stroke-width: 0.8"/>
      </g>
     </g>
     <g id="text_21">
      <!-- 100 -->
      <g transform="translate(22.81375 27.637031) scale(0.1 -0.1)">
       <use xlink:href="#DejaVuSans-31"/>
       <use xlink:href="#DejaVuSans-30" transform="translate(63.623047 0)"/>
       <use xlink:href="#DejaVuSans-30" transform="translate(127.246094 0)"/>
      </g>
     </g>
    </g>
    <g id="text_22">
     <!-- Percentage (%) -->
     <g transform="translate(16.318125 236.194687) rotate(-90) scale(0.12 -0.12)">
      <defs>
       <path id="DejaVuSans-50" d="M 1259 4147 
L 1259 2394 
L 2053 2394 
Q 2494 2394 2734 2622 
Q 2975 2850 2975 3272 
Q 2975 3691 2734 3919 
Q 2494 4147 2053 4147 
L 1259 4147 
z
M 628 4666 
L 2053 4666 
Q 2838 4666 3239 4311 
Q 3641 3956 3641 3272 
Q 3641 2581 3239 2228 
Q 2838 1875 2053 1875 
L 1259 1875 
L 1259 0 
L 628 0 
L 628 4666 
z
" transform="scale(0.015625)"/>
       <path id="DejaVuSans-72" d="M 2631 2963 
Q 2534 3019 2420 3045 
Q 2306 3072 2169 3072 
Q 1681 3072 1420 2755 
Q 1159 2438 1159 1844 
L 1159 0 
L 581 0 
L 581 3500 
L 1159 3500 
L 1159 2956 
Q 1341 3275 1631 3429 
Q 1922 3584 2338 3584 
Q 2397 3584 2469 3576 
Q 2541 3569 2628 3553 
L 2631 2963 
z
" transform="scale(0.015625)"/>
       <path id="DejaVuSans-61" d="M 2194 1759 
Q 1497 1759 1228 1600 
Q 959 1441 959 1056 
Q 959 750 1161 570 
Q 1363 391 1709 391 
Q 2188 391 2477 730 
Q 2766 1069 2766 1631 
L 2766 1759 
L 2194 1759 
z
M 3341 1997 
L 3341 0 
L 2766 0 
L 2766 531 
Q 2569 213 2275 61 
Q 1981 -91 1556 -91 
Q 1019 -91 701 211 
Q 384 513 384 1019 
Q 384 1609 779 1909 
Q 1175 2209 1959 2209 
L 2766 2209 
L 2766 2266 
Q 2766 2663 2505 2880 
Q 2244 3097 1772 3097 
Q 1472 3097 1187 3025 
Q 903 2953 641 2809 
L 641 3341 
Q 956 3463 1253 3523 
Q 1550 3584 1831 3584 
Q 2591 3584 2966 3190 
Q 3341 2797 3341 1997 
z
" transform="scale(0.015625)"/>
       <path id="DejaVuSans-67" d="M 2906 1791 
Q 2906 2416 2648 2759 
Q 2391 3103 1925 3103 
Q 1463 3103 1205 2759 
Q 947 2416 947 1791 
Q 947 1169 1205 825 
Q 1463 481 1925 481 
Q 2391 481 2648 825 
Q 2906 1169 2906 1791 
z
M 3481 434 
Q 3481 -459 3084 -895 
Q 2688 -1331 1869 -1331 
Q 1566 -1331 1297 -1286 
Q 1028 -1241 775 -1147 
L 775 -588 
Q 1028 -725 1275 -790 
Q 1522 -856 1778 -856 
Q 2344 -856 2625 -561 
Q 2906 -266 2906 331 
L 2906 616 
Q 2728 306 2450 153 
Q 2172 0 1784 0 
Q 1141 0 747 490 
Q 353 981 353 1791 
Q 353 2603 747 3093 
Q 1141 3584 1784 3584 
Q 2172 3584 2450 3431 
Q 2728 3278 2906 2969 
L 2906 3500 
L 3481 3500 
L 3481 434 
z
" transform="scale(0.015625)"/>
       <path id="DejaVuSans-25" d="M 4653 2053 
Q 4381 2053 4226 1822 
Q 4072 1591 4072 1178 
Q 4072 772 4226 539 
Q 4381 306 4653 306 
Q 4919 306 5073 539 
Q 5228 772 5228 1178 
Q 5228 1588 5073 1820 
Q 4919 2053 4653 2053 
z
M 4653 2450 
Q 5147 2450 5437 2106 
Q 5728 1763 5728 1178 
Q 5728 594 5436 251 
Q 5144 -91 4653 -91 
Q 4153 -91 3862 251 
Q 3572 594 3572 1178 
Q 3572 1766 3864 2108 
Q 4156 2450 4653 2450 
z
M 1428 4353 
Q 1159 4353 1004 4120 
Q 850 3888 850 3481 
Q 850 3069 1003 2837 
Q 1156 2606 1428 2606 
Q 1700 2606 1854 2837 
Q 2009 3069 2009 3481 
Q 2009 3884 1853 4118 
Q 1697 4353 1428 4353 
z
M 4250 4750 
L 4750 4750 
L 1831 -91 
L 1331 -91 
L 4250 4750 
z
M 1428 4750 
Q 1922 4750 2215 4408 
Q 2509 4066 2509 3481 
Q 2509 2891 2217 2550 
Q 1925 2209 1428 2209 
Q 931 2209 642 2551 
Q 353 2894 353 3481 
Q 353 4063 643 4406 
Q 934 4750 1428 4750 
z
" transform="scale(0.015625)"/>
      </defs>
      <use xlink:href="#DejaVuSans-50"/>
      <use xlink:href="#DejaVuSans-65" transform="translate(56.677734 0)"/>
      <use xlink:href="#DejaVuSans-72" transform="translate(118.201172 0)"/>
      <use xlink:href="#DejaVuSans-63" transform="translate(157.064453 0)"/>
      <use xlink:href="#DejaVuSans-65" transform="translate(212.044922 0)"/>
      <use xlink:href="#DejaVuSans-6e" transform="translate(273.568359 0)"/>
      <use xlink:href="#DejaVuSans-74" transform="translate(336.947266 0)"/>
      <use xlink:href="#DejaVuSans-61" transform="translate(376.15625 0)"/>
      <use xlink:href="#DejaVuSans-67" transform="translate(437.435547 0)"/>
      <use xlink:href="#DejaVuSans-65" transform="translate(500.912109 0)"/>
      <use xlink:href="#DejaVuSans-20" transform="translate(562.435547 0)"/>
      <use xlink:href="#DejaVuSans-28" transform="translate(594.222656 0)"/>
      <use xlink:href="#DejaVuSans-25" transform="translate(633.236328 0)"/>
      <use xlink:href="#DejaVuSans-29" transform="translate(728.255859 0)"/>
     </g>
    </g>
   </g>
   <g id="patch_203">
    <path d="M 48.90125 356.477812 
L 48.90125 23.837812 
" style="fill: none; stroke: #000000; stroke-width: 0.8; stroke-linejoin: miter; stroke-linecap: square"/>
   </g>
   <g id="patch_204">
    <path d="M 606.90125 356.477812 
L 606.90125 23.837812 
" style="fill: none; stroke: #000000; stroke-width: 0.8; stroke-linejoin: miter; stroke-linecap: square"/>
   </g>
   <g id="patch_205">
    <path d="M 48.90125 356.477812 
L 606.90125 356.477812 
" style="fill: none; stroke: #000000; stroke-width: 0.8; stroke-linejoin: miter; stroke-linecap: square"/>
   </g>
   <g id="patch_206">
    <path d="M 48.90125 23.837812 
L 606.90125 23.837812 
" style="fill: none; stroke: #000000; stroke-width: 0.8; stroke-linejoin: miter; stroke-linecap: square"/>
   </g>
   <g id="text_23">
    <!-- Percentage of samples whose number of equilibria matches DSGRN equilibria count -->
    <g transform="translate(33.620156 17.837812) scale(0.14 -0.14)">
     <defs>
      <path id="DejaVuSans-73" d="M 2834 3397 
L 2834 2853 
Q 2591 2978 2328 3040 
Q 2066 3103 1784 3103 
Q 1356 3103 1142 2972 
Q 928 2841 928 2578 
Q 928 2378 1081 2264 
Q 1234 2150 1697 2047 
L 1894 2003 
Q 2506 1872 2764 1633 
Q 3022 1394 3022 966 
Q 3022 478 2636 193 
Q 2250 -91 1575 -91 
Q 1294 -91 989 -36 
Q 684 19 347 128 
L 347 722 
Q 666 556 975 473 
Q 1284 391 1588 391 
Q 1994 391 2212 530 
Q 2431 669 2431 922 
Q 2431 1156 2273 1281 
Q 2116 1406 1581 1522 
L 1381 1569 
Q 847 1681 609 1914 
Q 372 2147 372 2553 
Q 372 3047 722 3315 
Q 1072 3584 1716 3584 
Q 2034 3584 2315 3537 
Q 2597 3491 2834 3397 
z
" transform="scale(0.015625)"/>
      <path id="DejaVuSans-6d" d="M 3328 2828 
Q 3544 3216 3844 3400 
Q 4144 3584 4550 3584 
Q 5097 3584 5394 3201 
Q 5691 2819 5691 2113 
L 5691 0 
L 5113 0 
L 5113 2094 
Q 5113 2597 4934 2840 
Q 4756 3084 4391 3084 
Q 3944 3084 3684 2787 
Q 3425 2491 3425 1978 
L 3425 0 
L 2847 0 
L 2847 2094 
Q 2847 2600 2669 2842 
Q 2491 3084 2119 3084 
Q 1678 3084 1418 2786 
Q 1159 2488 1159 1978 
L 1159 0 
L 581 0 
L 581 3500 
L 1159 3500 
L 1159 2956 
Q 1356 3278 1631 3431 
Q 1906 3584 2284 3584 
Q 2666 3584 2933 3390 
Q 3200 3197 3328 2828 
z
" transform="scale(0.015625)"/>
      <path id="DejaVuSans-70" d="M 1159 525 
L 1159 -1331 
L 581 -1331 
L 581 3500 
L 1159 3500 
L 1159 2969 
Q 1341 3281 1617 3432 
Q 1894 3584 2278 3584 
Q 2916 3584 3314 3078 
Q 3713 2572 3713 1747 
Q 3713 922 3314 415 
Q 2916 -91 2278 -91 
Q 1894 -91 1617 61 
Q 1341 213 1159 525 
z
M 3116 1747 
Q 3116 2381 2855 2742 
Q 2594 3103 2138 3103 
Q 1681 3103 1420 2742 
Q 1159 2381 1159 1747 
Q 1159 1113 1420 752 
Q 1681 391 2138 391 
Q 2594 391 2855 752 
Q 3116 1113 3116 1747 
z
" transform="scale(0.015625)"/>
      <path id="DejaVuSans-77" d="M 269 3500 
L 844 3500 
L 1563 769 
L 2278 3500 
L 2956 3500 
L 3675 769 
L 4391 3500 
L 4966 3500 
L 4050 0 
L 3372 0 
L 2619 2869 
L 1863 0 
L 1184 0 
L 269 3500 
z
" transform="scale(0.015625)"/>
      <path id="DejaVuSans-68" d="M 3513 2113 
L 3513 0 
L 2938 0 
L 2938 2094 
Q 2938 2591 2744 2837 
Q 2550 3084 2163 3084 
Q 1697 3084 1428 2787 
Q 1159 2491 1159 1978 
L 1159 0 
L 581 0 
L 581 4863 
L 1159 4863 
L 1159 2956 
Q 1366 3272 1645 3428 
Q 1925 3584 2291 3584 
Q 2894 3584 3203 3211 
Q 3513 2838 3513 2113 
z
" transform="scale(0.015625)"/>
      <path id="DejaVuSans-75" d="M 544 1381 
L 544 3500 
L 1119 3500 
L 1119 1403 
Q 1119 906 1312 657 
Q 1506 409 1894 409 
Q 2359 409 2629 706 
Q 2900 1003 2900 1516 
L 2900 3500 
L 3475 3500 
L 3475 0 
L 2900 0 
L 2900 538 
Q 2691 219 2414 64 
Q 2138 -91 1772 -91 
Q 1169 -91 856 284 
Q 544 659 544 1381 
z
M 1991 3584 
L 1991 3584 
z
" transform="scale(0.015625)"/>
      <path id="DejaVuSans-62" d="M 3116 1747 
Q 3116 2381 2855 2742 
Q 2594 3103 2138 3103 
Q 1681 3103 1420 2742 
Q 1159 2381 1159 1747 
Q 1159 1113 1420 752 
Q 1681 391 2138 391 
Q 2594 391 2855 752 
Q 3116 1113 3116 1747 
z
M 1159 2969 
Q 1341 3281 1617 3432 
Q 1894 3584 2278 3584 
Q 2916 3584 3314 3078 
Q 3713 2572 3713 1747 
Q 3713 922 3314 415 
Q 2916 -91 2278 -91 
Q 1894 -91 1617 61 
Q 1341 213 1159 525 
L 1159 0 
L 581 0 
L 581 4863 
L 1159 4863 
L 1159 2969 
z
" transform="scale(0.015625)"/>
      <path id="DejaVuSans-71" d="M 947 1747 
Q 947 1113 1208 752 
Q 1469 391 1925 391 
Q 2381 391 2643 752 
Q 2906 1113 2906 1747 
Q 2906 2381 2643 2742 
Q 2381 3103 1925 3103 
Q 1469 3103 1208 2742 
Q 947 2381 947 1747 
z
M 2906 525 
Q 2725 213 2448 61 
Q 2172 -91 1784 -91 
Q 1150 -91 751 415 
Q 353 922 353 1747 
Q 353 2572 751 3078 
Q 1150 3584 1784 3584 
Q 2172 3584 2448 3432 
Q 2725 3281 2906 2969 
L 2906 3500 
L 3481 3500 
L 3481 -1331 
L 2906 -1331 
L 2906 525 
z
" transform="scale(0.015625)"/>
      <path id="DejaVuSans-44" d="M 1259 4147 
L 1259 519 
L 2022 519 
Q 2988 519 3436 956 
Q 3884 1394 3884 2338 
Q 3884 3275 3436 3711 
Q 2988 4147 2022 4147 
L 1259 4147 
z
M 628 4666 
L 1925 4666 
Q 3281 4666 3915 4102 
Q 4550 3538 4550 2338 
Q 4550 1131 3912 565 
Q 3275 0 1925 0 
L 628 0 
L 628 4666 
z
" transform="scale(0.015625)"/>
      <path id="DejaVuSans-53" d="M 3425 4513 
L 3425 3897 
Q 3066 4069 2747 4153 
Q 2428 4238 2131 4238 
Q 1616 4238 1336 4038 
Q 1056 3838 1056 3469 
Q 1056 3159 1242 3001 
Q 1428 2844 1947 2747 
L 2328 2669 
Q 3034 2534 3370 2195 
Q 3706 1856 3706 1288 
Q 3706 609 3251 259 
Q 2797 -91 1919 -91 
Q 1588 -91 1214 -16 
Q 841 59 441 206 
L 441 856 
Q 825 641 1194 531 
Q 1563 422 1919 422 
Q 2459 422 2753 634 
Q 3047 847 3047 1241 
Q 3047 1584 2836 1778 
Q 2625 1972 2144 2069 
L 1759 2144 
Q 1053 2284 737 2584 
Q 422 2884 422 3419 
Q 422 4038 858 4394 
Q 1294 4750 2059 4750 
Q 2388 4750 2728 4690 
Q 3069 4631 3425 4513 
z
" transform="scale(0.015625)"/>
      <path id="DejaVuSans-47" d="M 3809 666 
L 3809 1919 
L 2778 1919 
L 2778 2438 
L 4434 2438 
L 4434 434 
Q 4069 175 3628 42 
Q 3188 -91 2688 -91 
Q 1594 -91 976 548 
Q 359 1188 359 2328 
Q 359 3472 976 4111 
Q 1594 4750 2688 4750 
Q 3144 4750 3555 4637 
Q 3966 4525 4313 4306 
L 4313 3634 
Q 3963 3931 3569 4081 
Q 3175 4231 2741 4231 
Q 1884 4231 1454 3753 
Q 1025 3275 1025 2328 
Q 1025 1384 1454 906 
Q 1884 428 2741 428 
Q 3075 428 3337 486 
Q 3600 544 3809 666 
z
" transform="scale(0.015625)"/>
      <path id="DejaVuSans-52" d="M 2841 2188 
Q 3044 2119 3236 1894 
Q 3428 1669 3622 1275 
L 4263 0 
L 3584 0 
L 2988 1197 
Q 2756 1666 2539 1819 
Q 2322 1972 1947 1972 
L 1259 1972 
L 1259 0 
L 628 0 
L 628 4666 
L 2053 4666 
Q 2853 4666 3247 4331 
Q 3641 3997 3641 3322 
Q 3641 2881 3436 2590 
Q 3231 2300 2841 2188 
z
M 1259 4147 
L 1259 2491 
L 2053 2491 
Q 2509 2491 2742 2702 
Q 2975 2913 2975 3322 
Q 2975 3731 2742 3939 
Q 2509 4147 2053 4147 
L 1259 4147 
z
" transform="scale(0.015625)"/>
      <path id="DejaVuSans-4e" d="M 628 4666 
L 1478 4666 
L 3547 763 
L 3547 4666 
L 4159 4666 
L 4159 0 
L 3309 0 
L 1241 3903 
L 1241 0 
L 628 0 
L 628 4666 
z
" transform="scale(0.015625)"/>
     </defs>
     <use xlink:href="#DejaVuSans-50"/>
     <use xlink:href="#DejaVuSans-65" transform="translate(56.677734 0)"/>
     <use xlink:href="#DejaVuSans-72" transform="translate(118.201172 0)"/>
     <use xlink:href="#DejaVuSans-63" transform="translate(157.064453 0)"/>
     <use xlink:href="#DejaVuSans-65" transform="translate(212.044922 0)"/>
     <use xlink:href="#DejaVuSans-6e" transform="translate(273.568359 0)"/>
     <use xlink:href="#DejaVuSans-74" transform="translate(336.947266 0)"/>
     <use xlink:href="#DejaVuSans-61" transform="translate(376.15625 0)"/>
     <use xlink:href="#DejaVuSans-67" transform="translate(437.435547 0)"/>
     <use xlink:href="#DejaVuSans-65" transform="translate(500.912109 0)"/>
     <use xlink:href="#DejaVuSans-20" transform="translate(562.435547 0)"/>
     <use xlink:href="#DejaVuSans-6f" transform="translate(594.222656 0)"/>
     <use xlink:href="#DejaVuSans-66" transform="translate(655.404297 0)"/>
     <use xlink:href="#DejaVuSans-20" transform="translate(690.609375 0)"/>
     <use xlink:href="#DejaVuSans-73" transform="translate(722.396484 0)"/>
     <use xlink:href="#DejaVuSans-61" transform="translate(774.496094 0)"/>
     <use xlink:href="#DejaVuSans-6d" transform="translate(835.775391 0)"/>
     <use xlink:href="#DejaVuSans-70" transform="translate(933.1875 0)"/>
     <use xlink:href="#DejaVuSans-6c" transform="translate(996.664062 0)"/>
     <use xlink:href="#DejaVuSans-65" transform="translate(1024.447266 0)"/>
     <use xlink:href="#DejaVuSans-73" transform="translate(1085.970703 0)"/>
     <use xlink:href="#DejaVuSans-20" transform="translate(1138.070312 0)"/>
     <use xlink:href="#DejaVuSans-77" transform="translate(1169.857422 0)"/>
     <use xlink:href="#DejaVuSans-68" transform="translate(1251.644531 0)"/>
     <use xlink:href="#DejaVuSans-6f" transform="translate(1315.023438 0)"/>
     <use xlink:href="#DejaVuSans-73" transform="translate(1376.205078 0)"/>
     <use xlink:href="#DejaVuSans-65" transform="translate(1428.304688 0)"/>
     <use xlink:href="#DejaVuSans-20" transform="translate(1489.828125 0)"/>
     <use xlink:href="#DejaVuSans-6e" transform="translate(1521.615234 0)"/>
     <use xlink:href="#DejaVuSans-75" transform="translate(1584.994141 0)"/>
     <use xlink:href="#DejaVuSans-6d" transform="translate(1648.373047 0)"/>
     <use xlink:href="#DejaVuSans-62" transform="translate(1745.785156 0)"/>
     <use xlink:href="#DejaVuSans-65" transform="translate(1809.261719 0)"/>
     <use xlink:href="#DejaVuSans-72" transform="translate(1870.785156 0)"/>
     <use xlink:href="#DejaVuSans-20" transform="translate(1911.898438 0)"/>
     <use xlink:href="#DejaVuSans-6f" transform="translate(1943.685547 0)"/>
     <use xlink:href="#DejaVuSans-66" transform="translate(2004.867188 0)"/>
     <use xlink:href="#DejaVuSans-20" transform="translate(2040.072266 0)"/>
     <use xlink:href="#DejaVuSans-65" transform="translate(2071.859375 0)"/>
     <use xlink:href="#DejaVuSans-71" transform="translate(2133.382812 0)"/>
     <use xlink:href="#DejaVuSans-75" transform="translate(2196.859375 0)"/>
     <use xlink:href="#DejaVuSans-69" transform="translate(2260.238281 0)"/>
     <use xlink:href="#DejaVuSans-6c" transform="translate(2288.021484 0)"/>
     <use xlink:href="#DejaVuSans-69" transform="translate(2315.804688 0)"/>
     <use xlink:href="#DejaVuSans-62" transform="translate(2343.587891 0)"/>
     <use xlink:href="#DejaVuSans-72" transform="translate(2407.064453 0)"/>
     <use xlink:href="#DejaVuSans-69" transform="translate(2448.177734 0)"/>
     <use xlink:href="#DejaVuSans-61" transform="translate(2475.960938 0)"/>
     <use xlink:href="#DejaVuSans-20" transform="translate(2537.240234 0)"/>
     <use xlink:href="#DejaVuSans-6d" transform="translate(2569.027344 0)"/>
     <use xlink:href="#DejaVuSans-61" transform="translate(2666.439453 0)"/>
     <use xlink:href="#DejaVuSans-74" transform="translate(2727.71875 0)"/>
     <use xlink:href="#DejaVuSans-63" transform="translate(2766.927734 0)"/>
     <use xlink:href="#DejaVuSans-68" transform="translate(2821.908203 0)"/>
     <use xlink:href="#DejaVuSans-65" transform="translate(2885.287109 0)"/>
     <use xlink:href="#DejaVuSans-73" transform="translate(2946.810547 0)"/>
     <use xlink:href="#DejaVuSans-20" transform="translate(2998.910156 0)"/>
     <use xlink:href="#DejaVuSans-44" transform="translate(3030.697266 0)"/>
     <use xlink:href="#DejaVuSans-53" transform="translate(3107.699219 0)"/>
     <use xlink:href="#DejaVuSans-47" transform="translate(3171.175781 0)"/>
     <use xlink:href="#DejaVuSans-52" transform="translate(3248.666016 0)"/>
     <use xlink:href="#DejaVuSans-4e" transform="translate(3318.148438 0)"/>
     <use xlink:href="#DejaVuSans-20" transform="translate(3392.953125 0)"/>
     <use xlink:href="#DejaVuSans-65" transform="translate(3424.740234 0)"/>
     <use xlink:href="#DejaVuSans-71" transform="translate(3486.263672 0)"/>
     <use xlink:href="#DejaVuSans-75" transform="translate(3549.740234 0)"/>
     <use xlink:href="#DejaVuSans-69" transform="translate(3613.119141 0)"/>
     <use xlink:href="#DejaVuSans-6c" transform="translate(3640.902344 0)"/>
     <use xlink:href="#DejaVuSans-69" transform="translate(3668.685547 0)"/>
     <use xlink:href="#DejaVuSans-62" transform="translate(3696.46875 0)"/>
     <use xlink:href="#DejaVuSans-72" transform="translate(3759.945312 0)"/>
     <use xlink:href="#DejaVuSans-69" transform="translate(3801.058594 0)"/>
     <use xlink:href="#DejaVuSans-61" transform="translate(3828.841797 0)"/>
     <use xlink:href="#DejaVuSans-20" transform="translate(3890.121094 0)"/>
     <use xlink:href="#DejaVuSans-63" transform="translate(3921.908203 0)"/>
     <use xlink:href="#DejaVuSans-6f" transform="translate(3976.888672 0)"/>
     <use xlink:href="#DejaVuSans-75" transform="translate(4038.070312 0)"/>
     <use xlink:href="#DejaVuSans-6e" transform="translate(4101.449219 0)"/>
     <use xlink:href="#DejaVuSans-74" transform="translate(4164.828125 0)"/>
    </g>
   </g>
  </g>
 </g>
 <defs>
  <clipPath id="pa70e182952">
   <rect x="48.90125" y="23.837812" width="558" height="332.64"/>
  </clipPath>
 </defs>
</svg>
