<?xml version="1.0" encoding="utf-8" standalone="no"?>
<!DOCTYPE svg PUBLIC "-//W3C//DTD SVG 1.1//EN"
  "http://www.w3.org/Graphics/SVG/1.1/DTD/svg11.dtd">
<svg xmlns:xlink="http://www.w3.org/1999/xlink" width="612.165625pt" height="392.514375pt" viewBox="0 0 612.165625 392.514375" xmlns="http://www.w3.org/2000/svg" version="1.1">
 <metadata>
  <rdf:RDF xmlns:dc="http://purl.org/dc/elements/1.1/" xmlns:cc="http://creativecommons.org/ns#" xmlns:rdf="http://www.w3.org/1999/02/22-rdf-syntax-ns#">
   <cc:Work>
    <dc:type rdf:resource="http://purl.org/dc/dcmitype/StillImage"/>
    <dc:date>2025-02-02T05:18:21.396421</dc:date>
    <dc:format>image/svg+xml</dc:format>
    <dc:creator>
     <cc:Agent>
      <dc:title>Matplotlib v3.10.0, https://matplotlib.org/</dc:title>
     </cc:Agent>
    </dc:creator>
   </cc:Work>
  </rdf:RDF>
 </metadata>
 <defs>
  <style type="text/css">*{stroke-linejoin: round; stroke-linecap: butt}</style>
 </defs>
 <g id="figure_1">
  <g id="patch_1">
   <path d="M 0 392.514375 
L 612.165625 392.514375 
L 612.165625 0 
L 0 0 
z
" style="fill: #ffffff"/>
  </g>
  <g id="axes_1">
   <g id="patch_2">
    <path d="M 46.965625 354.958125 
L 604.965625 354.958125 
L 604.965625 22.318125 
L 46.965625 22.318125 
z
" style="fill: #ffffff"/>
   </g>
   <g id="patch_3">
    <path d="M 72.329261 354.958125 
L 74.3706 354.958125 
L 74.3706 354.958125 
L 72.329261 354.958125 
z
" clip-path="url(#p3b68ae4b7d)" style="fill: #87ceeb"/>
   </g>
   <g id="patch_4">
    <path d="M 74.880935 354.958125 
L 76.922274 354.958125 
L 76.922274 354.958125 
L 74.880935 354.958125 
z
" clip-path="url(#p3b68ae4b7d)" style="fill: #87ceeb"/>
   </g>
   <g id="patch_5">
    <path d="M 77.432609 354.958125 
L 79.473948 354.958125 
L 79.473948 354.958125 
L 77.432609 354.958125 
z
" clip-path="url(#p3b68ae4b7d)" style="fill: #87ceeb"/>
   </g>
   <g id="patch_6">
    <path d="M 79.984282 354.958125 
L 82.025621 354.958125 
L 82.025621 354.958125 
L 79.984282 354.958125 
z
" clip-path="url(#p3b68ae4b7d)" style="fill: #87ceeb"/>
   </g>
   <g id="patch_7">
    <path d="M 82.535956 354.958125 
L 84.577295 354.958125 
L 84.577295 354.958125 
L 82.535956 354.958125 
z
" clip-path="url(#p3b68ae4b7d)" style="fill: #87ceeb"/>
   </g>
   <g id="patch_8">
    <path d="M 85.08763 354.958125 
L 87.128969 354.958125 
L 87.128969 354.958125 
L 85.08763 354.958125 
z
" clip-path="url(#p3b68ae4b7d)" style="fill: #87ceeb"/>
   </g>
   <g id="patch_9">
    <path d="M 87.639303 354.958125 
L 89.680642 354.958125 
L 89.680642 353.446125 
L 87.639303 353.446125 
z
" clip-path="url(#p3b68ae4b7d)" style="fill: #87ceeb"/>
   </g>
   <g id="patch_10">
    <path d="M 90.190977 354.958125 
L 92.232316 354.958125 
L 92.232316 353.446125 
L 90.190977 353.446125 
z
" clip-path="url(#p3b68ae4b7d)" style="fill: #87ceeb"/>
   </g>
   <g id="patch_11">
    <path d="M 92.742651 354.958125 
L 94.78399 354.958125 
L 94.78399 351.934125 
L 92.742651 351.934125 
z
" clip-path="url(#p3b68ae4b7d)" style="fill: #87ceeb"/>
   </g>
   <g id="patch_12">
    <path d="M 95.294324 354.958125 
L 97.335663 354.958125 
L 97.335663 350.422125 
L 95.294324 350.422125 
z
" clip-path="url(#p3b68ae4b7d)" style="fill: #87ceeb"/>
   </g>
   <g id="patch_13">
    <path d="M 97.845998 354.958125 
L 99.887337 354.958125 
L 99.887337 341.350125 
L 97.845998 341.350125 
z
" clip-path="url(#p3b68ae4b7d)" style="fill: #87ceeb"/>
   </g>
   <g id="patch_14">
    <path d="M 100.397672 354.958125 
L 102.439011 354.958125 
L 102.439011 338.326125 
L 100.397672 338.326125 
z
" clip-path="url(#p3b68ae4b7d)" style="fill: #87ceeb"/>
   </g>
   <g id="patch_15">
    <path d="M 102.949346 354.958125 
L 104.990684 354.958125 
L 104.990684 333.790125 
L 102.949346 333.790125 
z
" clip-path="url(#p3b68ae4b7d)" style="fill: #87ceeb"/>
   </g>
   <g id="patch_16">
    <path d="M 105.501019 354.958125 
L 107.542358 354.958125 
L 107.542358 323.206125 
L 105.501019 323.206125 
z
" clip-path="url(#p3b68ae4b7d)" style="fill: #87ceeb"/>
   </g>
   <g id="patch_17">
    <path d="M 108.052693 354.958125 
L 110.094032 354.958125 
L 110.094032 317.158125 
L 108.052693 317.158125 
z
" clip-path="url(#p3b68ae4b7d)" style="fill: #87ceeb"/>
   </g>
   <g id="patch_18">
    <path d="M 110.604367 354.958125 
L 112.645705 354.958125 
L 112.645705 309.598125 
L 110.604367 309.598125 
z
" clip-path="url(#p3b68ae4b7d)" style="fill: #87ceeb"/>
   </g>
   <g id="patch_19">
    <path d="M 113.15604 354.958125 
L 115.197379 354.958125 
L 115.197379 308.086125 
L 113.15604 308.086125 
z
" clip-path="url(#p3b68ae4b7d)" style="fill: #87ceeb"/>
   </g>
   <g id="patch_20">
    <path d="M 115.707714 354.958125 
L 117.749053 354.958125 
L 117.749053 302.038125 
L 115.707714 302.038125 
z
" clip-path="url(#p3b68ae4b7d)" style="fill: #87ceeb"/>
   </g>
   <g id="patch_21">
    <path d="M 118.259388 354.958125 
L 120.300727 354.958125 
L 120.300727 295.990125 
L 118.259388 295.990125 
z
" clip-path="url(#p3b68ae4b7d)" style="fill: #87ceeb"/>
   </g>
   <g id="patch_22">
    <path d="M 120.811061 354.958125 
L 122.8524 354.958125 
L 122.8524 289.942125 
L 120.811061 289.942125 
z
" clip-path="url(#p3b68ae4b7d)" style="fill: #87ceeb"/>
   </g>
   <g id="patch_23">
    <path d="M 123.362735 354.958125 
L 125.404074 354.958125 
L 125.404074 285.406125 
L 123.362735 285.406125 
z
" clip-path="url(#p3b68ae4b7d)" style="fill: #87ceeb"/>
   </g>
   <g id="patch_24">
    <path d="M 125.914409 354.958125 
L 127.955748 354.958125 
L 127.955748 276.334125 
L 125.914409 276.334125 
z
" clip-path="url(#p3b68ae4b7d)" style="fill: #87ceeb"/>
   </g>
   <g id="patch_25">
    <path d="M 128.466082 354.958125 
L 130.507421 354.958125 
L 130.507421 273.310125 
L 128.466082 273.310125 
z
" clip-path="url(#p3b68ae4b7d)" style="fill: #87ceeb"/>
   </g>
   <g id="patch_26">
    <path d="M 131.017756 354.958125 
L 133.059095 354.958125 
L 133.059095 267.262125 
L 131.017756 267.262125 
z
" clip-path="url(#p3b68ae4b7d)" style="fill: #87ceeb"/>
   </g>
   <g id="patch_27">
    <path d="M 133.56943 354.958125 
L 135.610769 354.958125 
L 135.610769 262.726125 
L 133.56943 262.726125 
z
" clip-path="url(#p3b68ae4b7d)" style="fill: #87ceeb"/>
   </g>
   <g id="patch_28">
    <path d="M 136.121103 354.958125 
L 138.162442 354.958125 
L 138.162442 259.702125 
L 136.121103 259.702125 
z
" clip-path="url(#p3b68ae4b7d)" style="fill: #87ceeb"/>
   </g>
   <g id="patch_29">
    <path d="M 138.672777 354.958125 
L 140.714116 354.958125 
L 140.714116 256.678125 
L 138.672777 256.678125 
z
" clip-path="url(#p3b68ae4b7d)" style="fill: #87ceeb"/>
   </g>
   <g id="patch_30">
    <path d="M 141.224451 354.958125 
L 143.26579 354.958125 
L 143.26579 253.654125 
L 141.224451 253.654125 
z
" clip-path="url(#p3b68ae4b7d)" style="fill: #87ceeb"/>
   </g>
   <g id="patch_31">
    <path d="M 143.776124 354.958125 
L 145.817463 354.958125 
L 145.817463 250.630125 
L 143.776124 250.630125 
z
" clip-path="url(#p3b68ae4b7d)" style="fill: #87ceeb"/>
   </g>
   <g id="patch_32">
    <path d="M 146.327798 354.958125 
L 148.369137 354.958125 
L 148.369137 244.582125 
L 146.327798 244.582125 
z
" clip-path="url(#p3b68ae4b7d)" style="fill: #87ceeb"/>
   </g>
   <g id="patch_33">
    <path d="M 148.879472 354.958125 
L 150.920811 354.958125 
L 150.920811 240.046125 
L 148.879472 240.046125 
z
" clip-path="url(#p3b68ae4b7d)" style="fill: #87ceeb"/>
   </g>
   <g id="patch_34">
    <path d="M 151.431145 354.958125 
L 153.472484 354.958125 
L 153.472484 237.022125 
L 151.431145 237.022125 
z
" clip-path="url(#p3b68ae4b7d)" style="fill: #87ceeb"/>
   </g>
   <g id="patch_35">
    <path d="M 153.982819 354.958125 
L 156.024158 354.958125 
L 156.024158 230.974125 
L 153.982819 230.974125 
z
" clip-path="url(#p3b68ae4b7d)" style="fill: #87ceeb"/>
   </g>
   <g id="patch_36">
    <path d="M 156.534493 354.958125 
L 158.575832 354.958125 
L 158.575832 230.974125 
L 156.534493 230.974125 
z
" clip-path="url(#p3b68ae4b7d)" style="fill: #87ceeb"/>
   </g>
   <g id="patch_37">
    <path d="M 159.086166 354.958125 
L 161.127505 354.958125 
L 161.127505 227.950125 
L 159.086166 227.950125 
z
" clip-path="url(#p3b68ae4b7d)" style="fill: #87ceeb"/>
   </g>
   <g id="patch_38">
    <path d="M 161.63784 354.958125 
L 163.679179 354.958125 
L 163.679179 224.926125 
L 161.63784 224.926125 
z
" clip-path="url(#p3b68ae4b7d)" style="fill: #87ceeb"/>
   </g>
   <g id="patch_39">
    <path d="M 164.189514 354.958125 
L 166.230853 354.958125 
L 166.230853 220.390125 
L 164.189514 220.390125 
z
" clip-path="url(#p3b68ae4b7d)" style="fill: #87ceeb"/>
   </g>
   <g id="patch_40">
    <path d="M 166.741187 354.958125 
L 168.782526 354.958125 
L 168.782526 214.342125 
L 166.741187 214.342125 
z
" clip-path="url(#p3b68ae4b7d)" style="fill: #87ceeb"/>
   </g>
   <g id="patch_41">
    <path d="M 169.292861 354.958125 
L 171.3342 354.958125 
L 171.3342 212.830125 
L 169.292861 212.830125 
z
" clip-path="url(#p3b68ae4b7d)" style="fill: #87ceeb"/>
   </g>
   <g id="patch_42">
    <path d="M 171.844535 354.958125 
L 173.885874 354.958125 
L 173.885874 212.830125 
L 171.844535 212.830125 
z
" clip-path="url(#p3b68ae4b7d)" style="fill: #87ceeb"/>
   </g>
   <g id="patch_43">
    <path d="M 174.396209 354.958125 
L 176.437547 354.958125 
L 176.437547 206.782125 
L 174.396209 206.782125 
z
" clip-path="url(#p3b68ae4b7d)" style="fill: #87ceeb"/>
   </g>
   <g id="patch_44">
    <path d="M 176.947882 354.958125 
L 178.989221 354.958125 
L 178.989221 205.270125 
L 176.947882 205.270125 
z
" clip-path="url(#p3b68ae4b7d)" style="fill: #87ceeb"/>
   </g>
   <g id="patch_45">
    <path d="M 179.499556 354.958125 
L 181.540895 354.958125 
L 181.540895 203.758125 
L 179.499556 203.758125 
z
" clip-path="url(#p3b68ae4b7d)" style="fill: #87ceeb"/>
   </g>
   <g id="patch_46">
    <path d="M 182.05123 354.958125 
L 184.092568 354.958125 
L 184.092568 200.734125 
L 182.05123 200.734125 
z
" clip-path="url(#p3b68ae4b7d)" style="fill: #87ceeb"/>
   </g>
   <g id="patch_47">
    <path d="M 184.602903 354.958125 
L 186.644242 354.958125 
L 186.644242 197.710125 
L 184.602903 197.710125 
z
" clip-path="url(#p3b68ae4b7d)" style="fill: #87ceeb"/>
   </g>
   <g id="patch_48">
    <path d="M 187.154577 354.958125 
L 189.195916 354.958125 
L 189.195916 197.710125 
L 187.154577 197.710125 
z
" clip-path="url(#p3b68ae4b7d)" style="fill: #87ceeb"/>
   </g>
   <g id="patch_49">
    <path d="M 189.706251 354.958125 
L 191.74759 354.958125 
L 191.74759 191.662125 
L 189.706251 191.662125 
z
" clip-path="url(#p3b68ae4b7d)" style="fill: #87ceeb"/>
   </g>
   <g id="patch_50">
    <path d="M 192.257924 354.958125 
L 194.299263 354.958125 
L 194.299263 191.662125 
L 192.257924 191.662125 
z
" clip-path="url(#p3b68ae4b7d)" style="fill: #87ceeb"/>
   </g>
   <g id="patch_51">
    <path d="M 194.809598 354.958125 
L 196.850937 354.958125 
L 196.850937 185.614125 
L 194.809598 185.614125 
z
" clip-path="url(#p3b68ae4b7d)" style="fill: #87ceeb"/>
   </g>
   <g id="patch_52">
    <path d="M 197.361272 354.958125 
L 199.402611 354.958125 
L 199.402611 182.590125 
L 197.361272 182.590125 
z
" clip-path="url(#p3b68ae4b7d)" style="fill: #87ceeb"/>
   </g>
   <g id="patch_53">
    <path d="M 199.912945 354.958125 
L 201.954284 354.958125 
L 201.954284 181.078125 
L 199.912945 181.078125 
z
" clip-path="url(#p3b68ae4b7d)" style="fill: #87ceeb"/>
   </g>
   <g id="patch_54">
    <path d="M 202.464619 354.958125 
L 204.505958 354.958125 
L 204.505958 175.030125 
L 202.464619 175.030125 
z
" clip-path="url(#p3b68ae4b7d)" style="fill: #87ceeb"/>
   </g>
   <g id="patch_55">
    <path d="M 205.016293 354.958125 
L 207.057632 354.958125 
L 207.057632 173.518125 
L 205.016293 173.518125 
z
" clip-path="url(#p3b68ae4b7d)" style="fill: #87ceeb"/>
   </g>
   <g id="patch_56">
    <path d="M 207.567966 354.958125 
L 209.609305 354.958125 
L 209.609305 172.006125 
L 207.567966 172.006125 
z
" clip-path="url(#p3b68ae4b7d)" style="fill: #87ceeb"/>
   </g>
   <g id="patch_57">
    <path d="M 210.11964 354.958125 
L 212.160979 354.958125 
L 212.160979 170.494125 
L 210.11964 170.494125 
z
" clip-path="url(#p3b68ae4b7d)" style="fill: #87ceeb"/>
   </g>
   <g id="patch_58">
    <path d="M 212.671314 354.958125 
L 214.712653 354.958125 
L 214.712653 170.494125 
L 212.671314 170.494125 
z
" clip-path="url(#p3b68ae4b7d)" style="fill: #87ceeb"/>
   </g>
   <g id="patch_59">
    <path d="M 215.222987 354.958125 
L 217.264326 354.958125 
L 217.264326 168.982125 
L 215.222987 168.982125 
z
" clip-path="url(#p3b68ae4b7d)" style="fill: #87ceeb"/>
   </g>
   <g id="patch_60">
    <path d="M 217.774661 354.958125 
L 219.816 354.958125 
L 219.816 167.470125 
L 217.774661 167.470125 
z
" clip-path="url(#p3b68ae4b7d)" style="fill: #87ceeb"/>
   </g>
   <g id="patch_61">
    <path d="M 220.326335 354.958125 
L 222.367674 354.958125 
L 222.367674 165.958125 
L 220.326335 165.958125 
z
" clip-path="url(#p3b68ae4b7d)" style="fill: #87ceeb"/>
   </g>
   <g id="patch_62">
    <path d="M 222.878008 354.958125 
L 224.919347 354.958125 
L 224.919347 162.934125 
L 222.878008 162.934125 
z
" clip-path="url(#p3b68ae4b7d)" style="fill: #87ceeb"/>
   </g>
   <g id="patch_63">
    <path d="M 225.429682 354.958125 
L 227.471021 354.958125 
L 227.471021 162.934125 
L 225.429682 162.934125 
z
" clip-path="url(#p3b68ae4b7d)" style="fill: #87ceeb"/>
   </g>
   <g id="patch_64">
    <path d="M 227.981356 354.958125 
L 230.022695 354.958125 
L 230.022695 162.934125 
L 227.981356 162.934125 
z
" clip-path="url(#p3b68ae4b7d)" style="fill: #87ceeb"/>
   </g>
   <g id="patch_65">
    <path d="M 230.533029 354.958125 
L 232.574368 354.958125 
L 232.574368 162.934125 
L 230.533029 162.934125 
z
" clip-path="url(#p3b68ae4b7d)" style="fill: #87ceeb"/>
   </g>
   <g id="patch_66">
    <path d="M 233.084703 354.958125 
L 235.126042 354.958125 
L 235.126042 161.422125 
L 233.084703 161.422125 
z
" clip-path="url(#p3b68ae4b7d)" style="fill: #87ceeb"/>
   </g>
   <g id="patch_67">
    <path d="M 235.636377 354.958125 
L 237.677716 354.958125 
L 237.677716 159.910125 
L 235.636377 159.910125 
z
" clip-path="url(#p3b68ae4b7d)" style="fill: #87ceeb"/>
   </g>
   <g id="patch_68">
    <path d="M 238.18805 354.958125 
L 240.229389 354.958125 
L 240.229389 158.398125 
L 238.18805 158.398125 
z
" clip-path="url(#p3b68ae4b7d)" style="fill: #87ceeb"/>
   </g>
   <g id="patch_69">
    <path d="M 240.739724 354.958125 
L 242.781063 354.958125 
L 242.781063 155.374125 
L 240.739724 155.374125 
z
" clip-path="url(#p3b68ae4b7d)" style="fill: #87ceeb"/>
   </g>
   <g id="patch_70">
    <path d="M 243.291398 354.958125 
L 245.332737 354.958125 
L 245.332737 155.374125 
L 243.291398 155.374125 
z
" clip-path="url(#p3b68ae4b7d)" style="fill: #87ceeb"/>
   </g>
   <g id="patch_71">
    <path d="M 245.843071 354.958125 
L 247.88441 354.958125 
L 247.88441 155.374125 
L 245.843071 155.374125 
z
" clip-path="url(#p3b68ae4b7d)" style="fill: #87ceeb"/>
   </g>
   <g id="patch_72">
    <path d="M 248.394745 354.958125 
L 250.436084 354.958125 
L 250.436084 153.862125 
L 248.394745 153.862125 
z
" clip-path="url(#p3b68ae4b7d)" style="fill: #87ceeb"/>
   </g>
   <g id="patch_73">
    <path d="M 250.946419 354.958125 
L 252.987758 354.958125 
L 252.987758 153.862125 
L 250.946419 153.862125 
z
" clip-path="url(#p3b68ae4b7d)" style="fill: #87ceeb"/>
   </g>
   <g id="patch_74">
    <path d="M 253.498093 354.958125 
L 255.539431 354.958125 
L 255.539431 153.862125 
L 253.498093 153.862125 
z
" clip-path="url(#p3b68ae4b7d)" style="fill: #87ceeb"/>
   </g>
   <g id="patch_75">
    <path d="M 256.049766 354.958125 
L 258.091105 354.958125 
L 258.091105 153.862125 
L 256.049766 153.862125 
z
" clip-path="url(#p3b68ae4b7d)" style="fill: #87ceeb"/>
   </g>
   <g id="patch_76">
    <path d="M 258.60144 354.958125 
L 260.642779 354.958125 
L 260.642779 152.350125 
L 258.60144 152.350125 
z
" clip-path="url(#p3b68ae4b7d)" style="fill: #87ceeb"/>
   </g>
   <g id="patch_77">
    <path d="M 261.153114 354.958125 
L 263.194453 354.958125 
L 263.194453 149.326125 
L 261.153114 149.326125 
z
" clip-path="url(#p3b68ae4b7d)" style="fill: #87ceeb"/>
   </g>
   <g id="patch_78">
    <path d="M 263.704787 354.958125 
L 265.746126 354.958125 
L 265.746126 147.814125 
L 263.704787 147.814125 
z
" clip-path="url(#p3b68ae4b7d)" style="fill: #87ceeb"/>
   </g>
   <g id="patch_79">
    <path d="M 266.256461 354.958125 
L 268.2978 354.958125 
L 268.2978 146.302125 
L 266.256461 146.302125 
z
" clip-path="url(#p3b68ae4b7d)" style="fill: #87ceeb"/>
   </g>
   <g id="patch_80">
    <path d="M 268.808135 354.958125 
L 270.849474 354.958125 
L 270.849474 144.790125 
L 268.808135 144.790125 
z
" clip-path="url(#p3b68ae4b7d)" style="fill: #87ceeb"/>
   </g>
   <g id="patch_81">
    <path d="M 271.359808 354.958125 
L 273.401147 354.958125 
L 273.401147 140.254125 
L 271.359808 140.254125 
z
" clip-path="url(#p3b68ae4b7d)" style="fill: #87ceeb"/>
   </g>
   <g id="patch_82">
    <path d="M 273.911482 354.958125 
L 275.952821 354.958125 
L 275.952821 140.254125 
L 273.911482 140.254125 
z
" clip-path="url(#p3b68ae4b7d)" style="fill: #87ceeb"/>
   </g>
   <g id="patch_83">
    <path d="M 276.463156 354.958125 
L 278.504495 354.958125 
L 278.504495 140.254125 
L 276.463156 140.254125 
z
" clip-path="url(#p3b68ae4b7d)" style="fill: #87ceeb"/>
   </g>
   <g id="patch_84">
    <path d="M 279.014829 354.958125 
L 281.056168 354.958125 
L 281.056168 135.718125 
L 279.014829 135.718125 
z
" clip-path="url(#p3b68ae4b7d)" style="fill: #87ceeb"/>
   </g>
   <g id="patch_85">
    <path d="M 281.566503 354.958125 
L 283.607842 354.958125 
L 283.607842 135.718125 
L 281.566503 135.718125 
z
" clip-path="url(#p3b68ae4b7d)" style="fill: #87ceeb"/>
   </g>
   <g id="patch_86">
    <path d="M 284.118177 354.958125 
L 286.159516 354.958125 
L 286.159516 134.206125 
L 284.118177 134.206125 
z
" clip-path="url(#p3b68ae4b7d)" style="fill: #87ceeb"/>
   </g>
   <g id="patch_87">
    <path d="M 286.66985 354.958125 
L 288.711189 354.958125 
L 288.711189 134.206125 
L 286.66985 134.206125 
z
" clip-path="url(#p3b68ae4b7d)" style="fill: #87ceeb"/>
   </g>
   <g id="patch_88">
    <path d="M 289.221524 354.958125 
L 291.262863 354.958125 
L 291.262863 134.206125 
L 289.221524 134.206125 
z
" clip-path="url(#p3b68ae4b7d)" style="fill: #87ceeb"/>
   </g>
   <g id="patch_89">
    <path d="M 291.773198 354.958125 
L 293.814537 354.958125 
L 293.814537 132.694125 
L 291.773198 132.694125 
z
" clip-path="url(#p3b68ae4b7d)" style="fill: #87ceeb"/>
   </g>
   <g id="patch_90">
    <path d="M 294.324871 354.958125 
L 296.36621 354.958125 
L 296.36621 131.182125 
L 294.324871 131.182125 
z
" clip-path="url(#p3b68ae4b7d)" style="fill: #87ceeb"/>
   </g>
   <g id="patch_91">
    <path d="M 296.876545 354.958125 
L 298.917884 354.958125 
L 298.917884 129.670125 
L 296.876545 129.670125 
z
" clip-path="url(#p3b68ae4b7d)" style="fill: #87ceeb"/>
   </g>
   <g id="patch_92">
    <path d="M 299.428219 354.958125 
L 301.469558 354.958125 
L 301.469558 128.158125 
L 299.428219 128.158125 
z
" clip-path="url(#p3b68ae4b7d)" style="fill: #87ceeb"/>
   </g>
   <g id="patch_93">
    <path d="M 301.979892 354.958125 
L 304.021231 354.958125 
L 304.021231 126.646125 
L 301.979892 126.646125 
z
" clip-path="url(#p3b68ae4b7d)" style="fill: #87ceeb"/>
   </g>
   <g id="patch_94">
    <path d="M 304.531566 354.958125 
L 306.572905 354.958125 
L 306.572905 125.134125 
L 304.531566 125.134125 
z
" clip-path="url(#p3b68ae4b7d)" style="fill: #87ceeb"/>
   </g>
   <g id="patch_95">
    <path d="M 307.08324 354.958125 
L 309.124579 354.958125 
L 309.124579 125.134125 
L 307.08324 125.134125 
z
" clip-path="url(#p3b68ae4b7d)" style="fill: #87ceeb"/>
   </g>
   <g id="patch_96">
    <path d="M 309.634913 354.958125 
L 311.676252 354.958125 
L 311.676252 125.134125 
L 309.634913 125.134125 
z
" clip-path="url(#p3b68ae4b7d)" style="fill: #87ceeb"/>
   </g>
   <g id="patch_97">
    <path d="M 312.186587 354.958125 
L 314.227926 354.958125 
L 314.227926 122.110125 
L 312.186587 122.110125 
z
" clip-path="url(#p3b68ae4b7d)" style="fill: #87ceeb"/>
   </g>
   <g id="patch_98">
    <path d="M 314.738261 354.958125 
L 316.7796 354.958125 
L 316.7796 120.598125 
L 314.738261 120.598125 
z
" clip-path="url(#p3b68ae4b7d)" style="fill: #87ceeb"/>
   </g>
   <g id="patch_99">
    <path d="M 317.289934 354.958125 
L 319.331273 354.958125 
L 319.331273 120.598125 
L 317.289934 120.598125 
z
" clip-path="url(#p3b68ae4b7d)" style="fill: #87ceeb"/>
   </g>
   <g id="patch_100">
    <path d="M 319.841608 354.958125 
L 321.882947 354.958125 
L 321.882947 120.598125 
L 319.841608 120.598125 
z
" clip-path="url(#p3b68ae4b7d)" style="fill: #87ceeb"/>
   </g>
   <g id="patch_101">
    <path d="M 322.393282 354.958125 
L 324.434621 354.958125 
L 324.434621 120.598125 
L 322.393282 120.598125 
z
" clip-path="url(#p3b68ae4b7d)" style="fill: #87ceeb"/>
   </g>
   <g id="patch_102">
    <path d="M 324.944956 354.958125 
L 326.986294 354.958125 
L 326.986294 117.574125 
L 324.944956 117.574125 
z
" clip-path="url(#p3b68ae4b7d)" style="fill: #87ceeb"/>
   </g>
   <g id="patch_103">
    <path d="M 327.496629 354.958125 
L 329.537968 354.958125 
L 329.537968 117.574125 
L 327.496629 117.574125 
z
" clip-path="url(#p3b68ae4b7d)" style="fill: #87ceeb"/>
   </g>
   <g id="patch_104">
    <path d="M 330.048303 354.958125 
L 332.089642 354.958125 
L 332.089642 117.574125 
L 330.048303 117.574125 
z
" clip-path="url(#p3b68ae4b7d)" style="fill: #87ceeb"/>
   </g>
   <g id="patch_105">
    <path d="M 332.599977 354.958125 
L 334.641316 354.958125 
L 334.641316 117.574125 
L 332.599977 117.574125 
z
" clip-path="url(#p3b68ae4b7d)" style="fill: #87ceeb"/>
   </g>
   <g id="patch_106">
    <path d="M 335.15165 354.958125 
L 337.192989 354.958125 
L 337.192989 117.574125 
L 335.15165 117.574125 
z
" clip-path="url(#p3b68ae4b7d)" style="fill: #87ceeb"/>
   </g>
   <g id="patch_107">
    <path d="M 337.703324 354.958125 
L 339.744663 354.958125 
L 339.744663 117.574125 
L 337.703324 117.574125 
z
" clip-path="url(#p3b68ae4b7d)" style="fill: #87ceeb"/>
   </g>
   <g id="patch_108">
    <path d="M 340.254998 354.958125 
L 342.296337 354.958125 
L 342.296337 117.574125 
L 340.254998 117.574125 
z
" clip-path="url(#p3b68ae4b7d)" style="fill: #87ceeb"/>
   </g>
   <g id="patch_109">
    <path d="M 342.806671 354.958125 
L 344.84801 354.958125 
L 344.84801 117.574125 
L 342.806671 117.574125 
z
" clip-path="url(#p3b68ae4b7d)" style="fill: #87ceeb"/>
   </g>
   <g id="patch_110">
    <path d="M 345.358345 354.958125 
L 347.399684 354.958125 
L 347.399684 116.062125 
L 345.358345 116.062125 
z
" clip-path="url(#p3b68ae4b7d)" style="fill: #87ceeb"/>
   </g>
   <g id="patch_111">
    <path d="M 347.910019 354.958125 
L 349.951358 354.958125 
L 349.951358 116.062125 
L 347.910019 116.062125 
z
" clip-path="url(#p3b68ae4b7d)" style="fill: #87ceeb"/>
   </g>
   <g id="patch_112">
    <path d="M 350.461692 354.958125 
L 352.503031 354.958125 
L 352.503031 114.550125 
L 350.461692 114.550125 
z
" clip-path="url(#p3b68ae4b7d)" style="fill: #87ceeb"/>
   </g>
   <g id="patch_113">
    <path d="M 353.013366 354.958125 
L 355.054705 354.958125 
L 355.054705 114.550125 
L 353.013366 114.550125 
z
" clip-path="url(#p3b68ae4b7d)" style="fill: #87ceeb"/>
   </g>
   <g id="patch_114">
    <path d="M 355.56504 354.958125 
L 357.606379 354.958125 
L 357.606379 114.550125 
L 355.56504 114.550125 
z
" clip-path="url(#p3b68ae4b7d)" style="fill: #87ceeb"/>
   </g>
   <g id="patch_115">
    <path d="M 358.116713 354.958125 
L 360.158052 354.958125 
L 360.158052 114.550125 
L 358.116713 114.550125 
z
" clip-path="url(#p3b68ae4b7d)" style="fill: #87ceeb"/>
   </g>
   <g id="patch_116">
    <path d="M 360.668387 354.958125 
L 362.709726 354.958125 
L 362.709726 113.038125 
L 360.668387 113.038125 
z
" clip-path="url(#p3b68ae4b7d)" style="fill: #87ceeb"/>
   </g>
   <g id="patch_117">
    <path d="M 363.220061 354.958125 
L 365.2614 354.958125 
L 365.2614 113.038125 
L 363.220061 113.038125 
z
" clip-path="url(#p3b68ae4b7d)" style="fill: #87ceeb"/>
   </g>
   <g id="patch_118">
    <path d="M 365.771734 354.958125 
L 367.813073 354.958125 
L 367.813073 111.526125 
L 365.771734 111.526125 
z
" clip-path="url(#p3b68ae4b7d)" style="fill: #87ceeb"/>
   </g>
   <g id="patch_119">
    <path d="M 368.323408 354.958125 
L 370.364747 354.958125 
L 370.364747 111.526125 
L 368.323408 111.526125 
z
" clip-path="url(#p3b68ae4b7d)" style="fill: #87ceeb"/>
   </g>
   <g id="patch_120">
    <path d="M 370.875082 354.958125 
L 372.916421 354.958125 
L 372.916421 111.526125 
L 370.875082 111.526125 
z
" clip-path="url(#p3b68ae4b7d)" style="fill: #87ceeb"/>
   </g>
   <g id="patch_121">
    <path d="M 373.426755 354.958125 
L 375.468094 354.958125 
L 375.468094 111.526125 
L 373.426755 111.526125 
z
" clip-path="url(#p3b68ae4b7d)" style="fill: #87ceeb"/>
   </g>
   <g id="patch_122">
    <path d="M 375.978429 354.958125 
L 378.019768 354.958125 
L 378.019768 110.014125 
L 375.978429 110.014125 
z
" clip-path="url(#p3b68ae4b7d)" style="fill: #87ceeb"/>
   </g>
   <g id="patch_123">
    <path d="M 378.530103 354.958125 
L 380.571442 354.958125 
L 380.571442 110.014125 
L 378.530103 110.014125 
z
" clip-path="url(#p3b68ae4b7d)" style="fill: #87ceeb"/>
   </g>
   <g id="patch_124">
    <path d="M 381.081776 354.958125 
L 383.123115 354.958125 
L 383.123115 110.014125 
L 381.081776 110.014125 
z
" clip-path="url(#p3b68ae4b7d)" style="fill: #87ceeb"/>
   </g>
   <g id="patch_125">
    <path d="M 383.63345 354.958125 
L 385.674789 354.958125 
L 385.674789 110.014125 
L 383.63345 110.014125 
z
" clip-path="url(#p3b68ae4b7d)" style="fill: #87ceeb"/>
   </g>
   <g id="patch_126">
    <path d="M 386.185124 354.958125 
L 388.226463 354.958125 
L 388.226463 110.014125 
L 386.185124 110.014125 
z
" clip-path="url(#p3b68ae4b7d)" style="fill: #87ceeb"/>
   </g>
   <g id="patch_127">
    <path d="M 388.736797 354.958125 
L 390.778136 354.958125 
L 390.778136 110.014125 
L 388.736797 110.014125 
z
" clip-path="url(#p3b68ae4b7d)" style="fill: #87ceeb"/>
   </g>
   <g id="patch_128">
    <path d="M 391.288471 354.958125 
L 393.32981 354.958125 
L 393.32981 108.502125 
L 391.288471 108.502125 
z
" clip-path="url(#p3b68ae4b7d)" style="fill: #87ceeb"/>
   </g>
   <g id="patch_129">
    <path d="M 393.840145 354.958125 
L 395.881484 354.958125 
L 395.881484 108.502125 
L 393.840145 108.502125 
z
" clip-path="url(#p3b68ae4b7d)" style="fill: #87ceeb"/>
   </g>
   <g id="patch_130">
    <path d="M 396.391819 354.958125 
L 398.433157 354.958125 
L 398.433157 108.502125 
L 396.391819 108.502125 
z
" clip-path="url(#p3b68ae4b7d)" style="fill: #87ceeb"/>
   </g>
   <g id="patch_131">
    <path d="M 398.943492 354.958125 
L 400.984831 354.958125 
L 400.984831 106.990125 
L 398.943492 106.990125 
z
" clip-path="url(#p3b68ae4b7d)" style="fill: #87ceeb"/>
   </g>
   <g id="patch_132">
    <path d="M 401.495166 354.958125 
L 403.536505 354.958125 
L 403.536505 106.990125 
L 401.495166 106.990125 
z
" clip-path="url(#p3b68ae4b7d)" style="fill: #87ceeb"/>
   </g>
   <g id="patch_133">
    <path d="M 404.04684 354.958125 
L 406.088179 354.958125 
L 406.088179 106.990125 
L 404.04684 106.990125 
z
" clip-path="url(#p3b68ae4b7d)" style="fill: #87ceeb"/>
   </g>
   <g id="patch_134">
    <path d="M 406.598513 354.958125 
L 408.639852 354.958125 
L 408.639852 106.990125 
L 406.598513 106.990125 
z
" clip-path="url(#p3b68ae4b7d)" style="fill: #87ceeb"/>
   </g>
   <g id="patch_135">
    <path d="M 409.150187 354.958125 
L 411.191526 354.958125 
L 411.191526 105.478125 
L 409.150187 105.478125 
z
" clip-path="url(#p3b68ae4b7d)" style="fill: #87ceeb"/>
   </g>
   <g id="patch_136">
    <path d="M 411.701861 354.958125 
L 413.7432 354.958125 
L 413.7432 105.478125 
L 411.701861 105.478125 
z
" clip-path="url(#p3b68ae4b7d)" style="fill: #87ceeb"/>
   </g>
   <g id="patch_137">
    <path d="M 414.253534 354.958125 
L 416.294873 354.958125 
L 416.294873 103.966125 
L 414.253534 103.966125 
z
" clip-path="url(#p3b68ae4b7d)" style="fill: #87ceeb"/>
   </g>
   <g id="patch_138">
    <path d="M 416.805208 354.958125 
L 418.846547 354.958125 
L 418.846547 103.966125 
L 416.805208 103.966125 
z
" clip-path="url(#p3b68ae4b7d)" style="fill: #87ceeb"/>
   </g>
   <g id="patch_139">
    <path d="M 419.356882 354.958125 
L 421.398221 354.958125 
L 421.398221 103.966125 
L 419.356882 103.966125 
z
" clip-path="url(#p3b68ae4b7d)" style="fill: #87ceeb"/>
   </g>
   <g id="patch_140">
    <path d="M 421.908555 354.958125 
L 423.949894 354.958125 
L 423.949894 103.966125 
L 421.908555 103.966125 
z
" clip-path="url(#p3b68ae4b7d)" style="fill: #87ceeb"/>
   </g>
   <g id="patch_141">
    <path d="M 424.460229 354.958125 
L 426.501568 354.958125 
L 426.501568 102.454125 
L 424.460229 102.454125 
z
" clip-path="url(#p3b68ae4b7d)" style="fill: #87ceeb"/>
   </g>
   <g id="patch_142">
    <path d="M 427.011903 354.958125 
L 429.053242 354.958125 
L 429.053242 102.454125 
L 427.011903 102.454125 
z
" clip-path="url(#p3b68ae4b7d)" style="fill: #87ceeb"/>
   </g>
   <g id="patch_143">
    <path d="M 429.563576 354.958125 
L 431.604915 354.958125 
L 431.604915 102.454125 
L 429.563576 102.454125 
z
" clip-path="url(#p3b68ae4b7d)" style="fill: #87ceeb"/>
   </g>
   <g id="patch_144">
    <path d="M 432.11525 354.958125 
L 434.156589 354.958125 
L 434.156589 102.454125 
L 432.11525 102.454125 
z
" clip-path="url(#p3b68ae4b7d)" style="fill: #87ceeb"/>
   </g>
   <g id="patch_145">
    <path d="M 434.666924 354.958125 
L 436.708263 354.958125 
L 436.708263 102.454125 
L 434.666924 102.454125 
z
" clip-path="url(#p3b68ae4b7d)" style="fill: #87ceeb"/>
   </g>
   <g id="patch_146">
    <path d="M 437.218597 354.958125 
L 439.259936 354.958125 
L 439.259936 102.454125 
L 437.218597 102.454125 
z
" clip-path="url(#p3b68ae4b7d)" style="fill: #87ceeb"/>
   </g>
   <g id="patch_147">
    <path d="M 439.770271 354.958125 
L 441.81161 354.958125 
L 441.81161 102.454125 
L 439.770271 102.454125 
z
" clip-path="url(#p3b68ae4b7d)" style="fill: #87ceeb"/>
   </g>
   <g id="patch_148">
    <path d="M 442.321945 354.958125 
L 444.363284 354.958125 
L 444.363284 102.454125 
L 442.321945 102.454125 
z
" clip-path="url(#p3b68ae4b7d)" style="fill: #87ceeb"/>
   </g>
   <g id="patch_149">
    <path d="M 444.873618 354.958125 
L 446.914957 354.958125 
L 446.914957 102.454125 
L 444.873618 102.454125 
z
" clip-path="url(#p3b68ae4b7d)" style="fill: #87ceeb"/>
   </g>
   <g id="patch_150">
    <path d="M 447.425292 354.958125 
L 449.466631 354.958125 
L 449.466631 102.454125 
L 447.425292 102.454125 
z
" clip-path="url(#p3b68ae4b7d)" style="fill: #87ceeb"/>
   </g>
   <g id="patch_151">
    <path d="M 449.976966 354.958125 
L 452.018305 354.958125 
L 452.018305 100.942125 
L 449.976966 100.942125 
z
" clip-path="url(#p3b68ae4b7d)" style="fill: #87ceeb"/>
   </g>
   <g id="patch_152">
    <path d="M 452.528639 354.958125 
L 454.569978 354.958125 
L 454.569978 100.942125 
L 452.528639 100.942125 
z
" clip-path="url(#p3b68ae4b7d)" style="fill: #87ceeb"/>
   </g>
   <g id="patch_153">
    <path d="M 455.080313 354.958125 
L 457.121652 354.958125 
L 457.121652 100.942125 
L 455.080313 100.942125 
z
" clip-path="url(#p3b68ae4b7d)" style="fill: #87ceeb"/>
   </g>
   <g id="patch_154">
    <path d="M 457.631987 354.958125 
L 459.673326 354.958125 
L 459.673326 100.942125 
L 457.631987 100.942125 
z
" clip-path="url(#p3b68ae4b7d)" style="fill: #87ceeb"/>
   </g>
   <g id="patch_155">
    <path d="M 460.18366 354.958125 
L 462.224999 354.958125 
L 462.224999 100.942125 
L 460.18366 100.942125 
z
" clip-path="url(#p3b68ae4b7d)" style="fill: #87ceeb"/>
   </g>
   <g id="patch_156">
    <path d="M 462.735334 354.958125 
L 464.776673 354.958125 
L 464.776673 100.942125 
L 462.735334 100.942125 
z
" clip-path="url(#p3b68ae4b7d)" style="fill: #87ceeb"/>
   </g>
   <g id="patch_157">
    <path d="M 465.287008 354.958125 
L 467.328347 354.958125 
L 467.328347 100.942125 
L 465.287008 100.942125 
z
" clip-path="url(#p3b68ae4b7d)" style="fill: #87ceeb"/>
   </g>
   <g id="patch_158">
    <path d="M 467.838682 354.958125 
L 469.88002 354.958125 
L 469.88002 100.942125 
L 467.838682 100.942125 
z
" clip-path="url(#p3b68ae4b7d)" style="fill: #87ceeb"/>
   </g>
   <g id="patch_159">
    <path d="M 470.390355 354.958125 
L 472.431694 354.958125 
L 472.431694 99.430125 
L 470.390355 99.430125 
z
" clip-path="url(#p3b68ae4b7d)" style="fill: #87ceeb"/>
   </g>
   <g id="patch_160">
    <path d="M 472.942029 354.958125 
L 474.983368 354.958125 
L 474.983368 99.430125 
L 472.942029 99.430125 
z
" clip-path="url(#p3b68ae4b7d)" style="fill: #87ceeb"/>
   </g>
   <g id="patch_161">
    <path d="M 475.493703 354.958125 
L 477.535041 354.958125 
L 477.535041 99.430125 
L 475.493703 99.430125 
z
" clip-path="url(#p3b68ae4b7d)" style="fill: #87ceeb"/>
   </g>
   <g id="patch_162">
    <path d="M 478.045376 354.958125 
L 480.086715 354.958125 
L 480.086715 97.918125 
L 478.045376 97.918125 
z
" clip-path="url(#p3b68ae4b7d)" style="fill: #87ceeb"/>
   </g>
   <g id="patch_163">
    <path d="M 480.59705 354.958125 
L 482.638389 354.958125 
L 482.638389 97.918125 
L 480.59705 97.918125 
z
" clip-path="url(#p3b68ae4b7d)" style="fill: #87ceeb"/>
   </g>
   <g id="patch_164">
    <path d="M 483.148724 354.958125 
L 485.190063 354.958125 
L 485.190063 97.918125 
L 483.148724 97.918125 
z
" clip-path="url(#p3b68ae4b7d)" style="fill: #87ceeb"/>
   </g>
   <g id="patch_165">
    <path d="M 485.700397 354.958125 
L 487.741736 354.958125 
L 487.741736 97.918125 
L 485.700397 97.918125 
z
" clip-path="url(#p3b68ae4b7d)" style="fill: #87ceeb"/>
   </g>
   <g id="patch_166">
    <path d="M 488.252071 354.958125 
L 490.29341 354.958125 
L 490.29341 97.918125 
L 488.252071 97.918125 
z
" clip-path="url(#p3b68ae4b7d)" style="fill: #87ceeb"/>
   </g>
   <g id="patch_167">
    <path d="M 490.803745 354.958125 
L 492.845084 354.958125 
L 492.845084 97.918125 
L 490.803745 97.918125 
z
" clip-path="url(#p3b68ae4b7d)" style="fill: #87ceeb"/>
   </g>
   <g id="patch_168">
    <path d="M 493.355418 354.958125 
L 495.396757 354.958125 
L 495.396757 97.918125 
L 493.355418 97.918125 
z
" clip-path="url(#p3b68ae4b7d)" style="fill: #87ceeb"/>
   </g>
   <g id="patch_169">
    <path d="M 495.907092 354.958125 
L 497.948431 354.958125 
L 497.948431 97.918125 
L 495.907092 97.918125 
z
" clip-path="url(#p3b68ae4b7d)" style="fill: #87ceeb"/>
   </g>
   <g id="patch_170">
    <path d="M 498.458766 354.958125 
L 500.500105 354.958125 
L 500.500105 97.918125 
L 498.458766 97.918125 
z
" clip-path="url(#p3b68ae4b7d)" style="fill: #87ceeb"/>
   </g>
   <g id="patch_171">
    <path d="M 501.010439 354.958125 
L 503.051778 354.958125 
L 503.051778 97.918125 
L 501.010439 97.918125 
z
" clip-path="url(#p3b68ae4b7d)" style="fill: #87ceeb"/>
   </g>
   <g id="patch_172">
    <path d="M 503.562113 354.958125 
L 505.603452 354.958125 
L 505.603452 96.406125 
L 503.562113 96.406125 
z
" clip-path="url(#p3b68ae4b7d)" style="fill: #87ceeb"/>
   </g>
   <g id="patch_173">
    <path d="M 506.113787 354.958125 
L 508.155126 354.958125 
L 508.155126 96.406125 
L 506.113787 96.406125 
z
" clip-path="url(#p3b68ae4b7d)" style="fill: #87ceeb"/>
   </g>
   <g id="patch_174">
    <path d="M 508.66546 354.958125 
L 510.706799 354.958125 
L 510.706799 96.406125 
L 508.66546 96.406125 
z
" clip-path="url(#p3b68ae4b7d)" style="fill: #87ceeb"/>
   </g>
   <g id="patch_175">
    <path d="M 511.217134 354.958125 
L 513.258473 354.958125 
L 513.258473 96.406125 
L 511.217134 96.406125 
z
" clip-path="url(#p3b68ae4b7d)" style="fill: #87ceeb"/>
   </g>
   <g id="patch_176">
    <path d="M 513.768808 354.958125 
L 515.810147 354.958125 
L 515.810147 93.382125 
L 513.768808 93.382125 
z
" clip-path="url(#p3b68ae4b7d)" style="fill: #87ceeb"/>
   </g>
   <g id="patch_177">
    <path d="M 516.320481 354.958125 
L 518.36182 354.958125 
L 518.36182 93.382125 
L 516.320481 93.382125 
z
" clip-path="url(#p3b68ae4b7d)" style="fill: #87ceeb"/>
   </g>
   <g id="patch_178">
    <path d="M 518.872155 354.958125 
L 520.913494 354.958125 
L 520.913494 93.382125 
L 518.872155 93.382125 
z
" clip-path="url(#p3b68ae4b7d)" style="fill: #87ceeb"/>
   </g>
   <g id="patch_179">
    <path d="M 521.423829 354.958125 
L 523.465168 354.958125 
L 523.465168 93.382125 
L 521.423829 93.382125 
z
" clip-path="url(#p3b68ae4b7d)" style="fill: #87ceeb"/>
   </g>
   <g id="patch_180">
    <path d="M 523.975502 354.958125 
L 526.016841 354.958125 
L 526.016841 93.382125 
L 523.975502 93.382125 
z
" clip-path="url(#p3b68ae4b7d)" style="fill: #87ceeb"/>
   </g>
   <g id="patch_181">
    <path d="M 526.527176 354.958125 
L 528.568515 354.958125 
L 528.568515 93.382125 
L 526.527176 93.382125 
z
" clip-path="url(#p3b68ae4b7d)" style="fill: #87ceeb"/>
   </g>
   <g id="patch_182">
    <path d="M 529.07885 354.958125 
L 531.120189 354.958125 
L 531.120189 93.382125 
L 529.07885 93.382125 
z
" clip-path="url(#p3b68ae4b7d)" style="fill: #87ceeb"/>
   </g>
   <g id="patch_183">
    <path d="M 531.630523 354.958125 
L 533.671862 354.958125 
L 533.671862 93.382125 
L 531.630523 93.382125 
z
" clip-path="url(#p3b68ae4b7d)" style="fill: #87ceeb"/>
   </g>
   <g id="patch_184">
    <path d="M 534.182197 354.958125 
L 536.223536 354.958125 
L 536.223536 93.382125 
L 534.182197 93.382125 
z
" clip-path="url(#p3b68ae4b7d)" style="fill: #87ceeb"/>
   </g>
   <g id="patch_185">
    <path d="M 536.733871 354.958125 
L 538.77521 354.958125 
L 538.77521 93.382125 
L 536.733871 93.382125 
z
" clip-path="url(#p3b68ae4b7d)" style="fill: #87ceeb"/>
   </g>
   <g id="patch_186">
    <path d="M 539.285545 354.958125 
L 541.326883 354.958125 
L 541.326883 93.382125 
L 539.285545 93.382125 
z
" clip-path="url(#p3b68ae4b7d)" style="fill: #87ceeb"/>
   </g>
   <g id="patch_187">
    <path d="M 541.837218 354.958125 
L 543.878557 354.958125 
L 543.878557 93.382125 
L 541.837218 93.382125 
z
" clip-path="url(#p3b68ae4b7d)" style="fill: #87ceeb"/>
   </g>
   <g id="patch_188">
    <path d="M 544.388892 354.958125 
L 546.430231 354.958125 
L 546.430231 93.382125 
L 544.388892 93.382125 
z
" clip-path="url(#p3b68ae4b7d)" style="fill: #87ceeb"/>
   </g>
   <g id="patch_189">
    <path d="M 546.940566 354.958125 
L 548.981904 354.958125 
L 548.981904 90.358125 
L 546.940566 90.358125 
z
" clip-path="url(#p3b68ae4b7d)" style="fill: #87ceeb"/>
   </g>
   <g id="patch_190">
    <path d="M 549.492239 354.958125 
L 551.533578 354.958125 
L 551.533578 90.358125 
L 549.492239 90.358125 
z
" clip-path="url(#p3b68ae4b7d)" style="fill: #87ceeb"/>
   </g>
   <g id="patch_191">
    <path d="M 552.043913 354.958125 
L 554.085252 354.958125 
L 554.085252 90.358125 
L 552.043913 90.358125 
z
" clip-path="url(#p3b68ae4b7d)" style="fill: #87ceeb"/>
   </g>
   <g id="patch_192">
    <path d="M 554.595587 354.958125 
L 556.636926 354.958125 
L 556.636926 90.358125 
L 554.595587 90.358125 
z
" clip-path="url(#p3b68ae4b7d)" style="fill: #87ceeb"/>
   </g>
   <g id="patch_193">
    <path d="M 557.14726 354.958125 
L 559.188599 354.958125 
L 559.188599 90.358125 
L 557.14726 90.358125 
z
" clip-path="url(#p3b68ae4b7d)" style="fill: #87ceeb"/>
   </g>
   <g id="patch_194">
    <path d="M 559.698934 354.958125 
L 561.740273 354.958125 
L 561.740273 90.358125 
L 559.698934 90.358125 
z
" clip-path="url(#p3b68ae4b7d)" style="fill: #87ceeb"/>
   </g>
   <g id="patch_195">
    <path d="M 562.250608 354.958125 
L 564.291947 354.958125 
L 564.291947 90.358125 
L 562.250608 90.358125 
z
" clip-path="url(#p3b68ae4b7d)" style="fill: #87ceeb"/>
   </g>
   <g id="patch_196">
    <path d="M 564.802281 354.958125 
L 566.84362 354.958125 
L 566.84362 90.358125 
L 564.802281 90.358125 
z
" clip-path="url(#p3b68ae4b7d)" style="fill: #87ceeb"/>
   </g>
   <g id="patch_197">
    <path d="M 567.353955 354.958125 
L 569.395294 354.958125 
L 569.395294 90.358125 
L 567.353955 90.358125 
z
" clip-path="url(#p3b68ae4b7d)" style="fill: #87ceeb"/>
   </g>
   <g id="patch_198">
    <path d="M 569.905629 354.958125 
L 571.946968 354.958125 
L 571.946968 90.358125 
L 569.905629 90.358125 
z
" clip-path="url(#p3b68ae4b7d)" style="fill: #87ceeb"/>
   </g>
   <g id="patch_199">
    <path d="M 572.457302 354.958125 
L 574.498641 354.958125 
L 574.498641 90.358125 
L 572.457302 90.358125 
z
" clip-path="url(#p3b68ae4b7d)" style="fill: #87ceeb"/>
   </g>
   <g id="patch_200">
    <path d="M 575.008976 354.958125 
L 577.050315 354.958125 
L 577.050315 90.358125 
L 575.008976 90.358125 
z
" clip-path="url(#p3b68ae4b7d)" style="fill: #87ceeb"/>
   </g>
   <g id="patch_201">
    <path d="M 577.56065 354.958125 
L 579.601989 354.958125 
L 579.601989 90.358125 
L 577.56065 90.358125 
z
" clip-path="url(#p3b68ae4b7d)" style="fill: #87ceeb"/>
   </g>
   <g id="matplotlib.axis_1">
    <g id="xtick_1">
     <g id="line2d_1">
      <path d="M 70.798257 354.958125 
L 70.798257 22.318125 
" clip-path="url(#p3b68ae4b7d)" style="fill: none; stroke-dasharray: 2.96,1.28; stroke-dashoffset: 0; stroke: #b0b0b0; stroke-opacity: 0.7; stroke-width: 0.8"/>
     </g>
     <g id="line2d_2">
      <defs>
       <path id="mb58057dbd6" d="M 0 0 
L 0 3.5 
" style="stroke: #000000; stroke-width: 0.8"/>
      </defs>
      <g>
       <use xlink:href="#mb58057dbd6" x="70.798257" y="354.958125" style="stroke: #000000; stroke-width: 0.8"/>
      </g>
     </g>
     <g id="text_1">
      <!-- 0 -->
      <g transform="translate(67.617007 369.556562) scale(0.1 -0.1)">
       <defs>
        <path id="DejaVuSans-30" d="M 2034 4250 
Q 1547 4250 1301 3770 
Q 1056 3291 1056 2328 
Q 1056 1369 1301 889 
Q 1547 409 2034 409 
Q 2525 409 2770 889 
Q 3016 1369 3016 2328 
Q 3016 3291 2770 3770 
Q 2525 4250 2034 4250 
z
M 2034 4750 
Q 2819 4750 3233 4129 
Q 3647 3509 3647 2328 
Q 3647 1150 3233 529 
Q 2819 -91 2034 -91 
Q 1250 -91 836 529 
Q 422 1150 422 2328 
Q 422 3509 836 4129 
Q 1250 4750 2034 4750 
z
" transform="scale(0.015625)"/>
       </defs>
       <use xlink:href="#DejaVuSans-30"/>
      </g>
     </g>
    </g>
    <g id="xtick_2">
     <g id="line2d_3">
      <path d="M 134.590099 354.958125 
L 134.590099 22.318125 
" clip-path="url(#p3b68ae4b7d)" style="fill: none; stroke-dasharray: 2.96,1.28; stroke-dashoffset: 0; stroke: #b0b0b0; stroke-opacity: 0.7; stroke-width: 0.8"/>
     </g>
     <g id="line2d_4">
      <g>
       <use xlink:href="#mb58057dbd6" x="134.590099" y="354.958125" style="stroke: #000000; stroke-width: 0.8"/>
      </g>
     </g>
     <g id="text_2">
      <!-- 25 -->
      <g transform="translate(128.227599 369.556562) scale(0.1 -0.1)">
       <defs>
        <path id="DejaVuSans-32" d="M 1228 531 
L 3431 531 
L 3431 0 
L 469 0 
L 469 531 
Q 828 903 1448 1529 
Q 2069 2156 2228 2338 
Q 2531 2678 2651 2914 
Q 2772 3150 2772 3378 
Q 2772 3750 2511 3984 
Q 2250 4219 1831 4219 
Q 1534 4219 1204 4116 
Q 875 4013 500 3803 
L 500 4441 
Q 881 4594 1212 4672 
Q 1544 4750 1819 4750 
Q 2544 4750 2975 4387 
Q 3406 4025 3406 3419 
Q 3406 3131 3298 2873 
Q 3191 2616 2906 2266 
Q 2828 2175 2409 1742 
Q 1991 1309 1228 531 
z
" transform="scale(0.015625)"/>
        <path id="DejaVuSans-35" d="M 691 4666 
L 3169 4666 
L 3169 4134 
L 1269 4134 
L 1269 2991 
Q 1406 3038 1543 3061 
Q 1681 3084 1819 3084 
Q 2600 3084 3056 2656 
Q 3513 2228 3513 1497 
Q 3513 744 3044 326 
Q 2575 -91 1722 -91 
Q 1428 -91 1123 -41 
Q 819 9 494 109 
L 494 744 
Q 775 591 1075 516 
Q 1375 441 1709 441 
Q 2250 441 2565 725 
Q 2881 1009 2881 1497 
Q 2881 1984 2565 2268 
Q 2250 2553 1709 2553 
Q 1456 2553 1204 2497 
Q 953 2441 691 2322 
L 691 4666 
z
" transform="scale(0.015625)"/>
       </defs>
       <use xlink:href="#DejaVuSans-32"/>
       <use xlink:href="#DejaVuSans-35" transform="translate(63.623047 0)"/>
      </g>
     </g>
    </g>
    <g id="xtick_3">
     <g id="line2d_5">
      <path d="M 198.381941 354.958125 
L 198.381941 22.318125 
" clip-path="url(#p3b68ae4b7d)" style="fill: none; stroke-dasharray: 2.96,1.28; stroke-dashoffset: 0; stroke: #b0b0b0; stroke-opacity: 0.7; stroke-width: 0.8"/>
     </g>
     <g id="line2d_6">
      <g>
       <use xlink:href="#mb58057dbd6" x="198.381941" y="354.958125" style="stroke: #000000; stroke-width: 0.8"/>
      </g>
     </g>
     <g id="text_3">
      <!-- 50 -->
      <g transform="translate(192.019441 369.556562) scale(0.1 -0.1)">
       <use xlink:href="#DejaVuSans-35"/>
       <use xlink:href="#DejaVuSans-30" transform="translate(63.623047 0)"/>
      </g>
     </g>
    </g>
    <g id="xtick_4">
     <g id="line2d_7">
      <path d="M 262.173783 354.958125 
L 262.173783 22.318125 
" clip-path="url(#p3b68ae4b7d)" style="fill: none; stroke-dasharray: 2.96,1.28; stroke-dashoffset: 0; stroke: #b0b0b0; stroke-opacity: 0.7; stroke-width: 0.8"/>
     </g>
     <g id="line2d_8">
      <g>
       <use xlink:href="#mb58057dbd6" x="262.173783" y="354.958125" style="stroke: #000000; stroke-width: 0.8"/>
      </g>
     </g>
     <g id="text_4">
      <!-- 75 -->
      <g transform="translate(255.811283 369.556562) scale(0.1 -0.1)">
       <defs>
        <path id="DejaVuSans-37" d="M 525 4666 
L 3525 4666 
L 3525 4397 
L 1831 0 
L 1172 0 
L 2766 4134 
L 525 4134 
L 525 4666 
z
" transform="scale(0.015625)"/>
       </defs>
       <use xlink:href="#DejaVuSans-37"/>
       <use xlink:href="#DejaVuSans-35" transform="translate(63.623047 0)"/>
      </g>
     </g>
    </g>
    <g id="xtick_5">
     <g id="line2d_9">
      <path d="M 325.965625 354.958125 
L 325.965625 22.318125 
" clip-path="url(#p3b68ae4b7d)" style="fill: none; stroke-dasharray: 2.96,1.28; stroke-dashoffset: 0; stroke: #b0b0b0; stroke-opacity: 0.7; stroke-width: 0.8"/>
     </g>
     <g id="line2d_10">
      <g>
       <use xlink:href="#mb58057dbd6" x="325.965625" y="354.958125" style="stroke: #000000; stroke-width: 0.8"/>
      </g>
     </g>
     <g id="text_5">
      <!-- 100 -->
      <g transform="translate(316.421875 369.556562) scale(0.1 -0.1)">
       <defs>
        <path id="DejaVuSans-31" d="M 794 531 
L 1825 531 
L 1825 4091 
L 703 3866 
L 703 4441 
L 1819 4666 
L 2450 4666 
L 2450 531 
L 3481 531 
L 3481 0 
L 794 0 
L 794 531 
z
" transform="scale(0.015625)"/>
       </defs>
       <use xlink:href="#DejaVuSans-31"/>
       <use xlink:href="#DejaVuSans-30" transform="translate(63.623047 0)"/>
       <use xlink:href="#DejaVuSans-30" transform="translate(127.246094 0)"/>
      </g>
     </g>
    </g>
    <g id="xtick_6">
     <g id="line2d_11">
      <path d="M 389.757467 354.958125 
L 389.757467 22.318125 
" clip-path="url(#p3b68ae4b7d)" style="fill: none; stroke-dasharray: 2.96,1.28; stroke-dashoffset: 0; stroke: #b0b0b0; stroke-opacity: 0.7; stroke-width: 0.8"/>
     </g>
     <g id="line2d_12">
      <g>
       <use xlink:href="#mb58057dbd6" x="389.757467" y="354.958125" style="stroke: #000000; stroke-width: 0.8"/>
      </g>
     </g>
     <g id="text_6">
      <!-- 125 -->
      <g transform="translate(380.213717 369.556562) scale(0.1 -0.1)">
       <use xlink:href="#DejaVuSans-31"/>
       <use xlink:href="#DejaVuSans-32" transform="translate(63.623047 0)"/>
       <use xlink:href="#DejaVuSans-35" transform="translate(127.246094 0)"/>
      </g>
     </g>
    </g>
    <g id="xtick_7">
     <g id="line2d_13">
      <path d="M 453.549309 354.958125 
L 453.549309 22.318125 
" clip-path="url(#p3b68ae4b7d)" style="fill: none; stroke-dasharray: 2.96,1.28; stroke-dashoffset: 0; stroke: #b0b0b0; stroke-opacity: 0.7; stroke-width: 0.8"/>
     </g>
     <g id="line2d_14">
      <g>
       <use xlink:href="#mb58057dbd6" x="453.549309" y="354.958125" style="stroke: #000000; stroke-width: 0.8"/>
      </g>
     </g>
     <g id="text_7">
      <!-- 150 -->
      <g transform="translate(444.005559 369.556562) scale(0.1 -0.1)">
       <use xlink:href="#DejaVuSans-31"/>
       <use xlink:href="#DejaVuSans-35" transform="translate(63.623047 0)"/>
       <use xlink:href="#DejaVuSans-30" transform="translate(127.246094 0)"/>
      </g>
     </g>
    </g>
    <g id="xtick_8">
     <g id="line2d_15">
      <path d="M 517.341151 354.958125 
L 517.341151 22.318125 
" clip-path="url(#p3b68ae4b7d)" style="fill: none; stroke-dasharray: 2.96,1.28; stroke-dashoffset: 0; stroke: #b0b0b0; stroke-opacity: 0.7; stroke-width: 0.8"/>
     </g>
     <g id="line2d_16">
      <g>
       <use xlink:href="#mb58057dbd6" x="517.341151" y="354.958125" style="stroke: #000000; stroke-width: 0.8"/>
      </g>
     </g>
     <g id="text_8">
      <!-- 175 -->
      <g transform="translate(507.797401 369.556562) scale(0.1 -0.1)">
       <use xlink:href="#DejaVuSans-31"/>
       <use xlink:href="#DejaVuSans-37" transform="translate(63.623047 0)"/>
       <use xlink:href="#DejaVuSans-35" transform="translate(127.246094 0)"/>
      </g>
     </g>
    </g>
    <g id="xtick_9">
     <g id="line2d_17">
      <path d="M 581.132993 354.958125 
L 581.132993 22.318125 
" clip-path="url(#p3b68ae4b7d)" style="fill: none; stroke-dasharray: 2.96,1.28; stroke-dashoffset: 0; stroke: #b0b0b0; stroke-opacity: 0.7; stroke-width: 0.8"/>
     </g>
     <g id="line2d_18">
      <g>
       <use xlink:href="#mb58057dbd6" x="581.132993" y="354.958125" style="stroke: #000000; stroke-width: 0.8"/>
      </g>
     </g>
     <g id="text_9">
      <!-- 200 -->
      <g transform="translate(571.589243 369.556562) scale(0.1 -0.1)">
       <use xlink:href="#DejaVuSans-32"/>
       <use xlink:href="#DejaVuSans-30" transform="translate(63.623047 0)"/>
       <use xlink:href="#DejaVuSans-30" transform="translate(127.246094 0)"/>
      </g>
     </g>
    </g>
    <g id="text_10">
     <!-- Hill Coefficient (d) -->
     <g transform="translate(280.903906 383.234687) scale(0.1 -0.1)">
      <defs>
       <path id="DejaVuSans-48" d="M 628 4666 
L 1259 4666 
L 1259 2753 
L 3553 2753 
L 3553 4666 
L 4184 4666 
L 4184 0 
L 3553 0 
L 3553 2222 
L 1259 2222 
L 1259 0 
L 628 0 
L 628 4666 
z
" transform="scale(0.015625)"/>
       <path id="DejaVuSans-69" d="M 603 3500 
L 1178 3500 
L 1178 0 
L 603 0 
L 603 3500 
z
M 603 4863 
L 1178 4863 
L 1178 4134 
L 603 4134 
L 603 4863 
z
" transform="scale(0.015625)"/>
       <path id="DejaVuSans-6c" d="M 603 4863 
L 1178 4863 
L 1178 0 
L 603 0 
L 603 4863 
z
" transform="scale(0.015625)"/>
       <path id="DejaVuSans-20" transform="scale(0.015625)"/>
       <path id="DejaVuSans-43" d="M 4122 4306 
L 4122 3641 
Q 3803 3938 3442 4084 
Q 3081 4231 2675 4231 
Q 1875 4231 1450 3742 
Q 1025 3253 1025 2328 
Q 1025 1406 1450 917 
Q 1875 428 2675 428 
Q 3081 428 3442 575 
Q 3803 722 4122 1019 
L 4122 359 
Q 3791 134 3420 21 
Q 3050 -91 2638 -91 
Q 1578 -91 968 557 
Q 359 1206 359 2328 
Q 359 3453 968 4101 
Q 1578 4750 2638 4750 
Q 3056 4750 3426 4639 
Q 3797 4528 4122 4306 
z
" transform="scale(0.015625)"/>
       <path id="DejaVuSans-6f" d="M 1959 3097 
Q 1497 3097 1228 2736 
Q 959 2375 959 1747 
Q 959 1119 1226 758 
Q 1494 397 1959 397 
Q 2419 397 2687 759 
Q 2956 1122 2956 1747 
Q 2956 2369 2687 2733 
Q 2419 3097 1959 3097 
z
M 1959 3584 
Q 2709 3584 3137 3096 
Q 3566 2609 3566 1747 
Q 3566 888 3137 398 
Q 2709 -91 1959 -91 
Q 1206 -91 779 398 
Q 353 888 353 1747 
Q 353 2609 779 3096 
Q 1206 3584 1959 3584 
z
" transform="scale(0.015625)"/>
       <path id="DejaVuSans-65" d="M 3597 1894 
L 3597 1613 
L 953 1613 
Q 991 1019 1311 708 
Q 1631 397 2203 397 
Q 2534 397 2845 478 
Q 3156 559 3463 722 
L 3463 178 
Q 3153 47 2828 -22 
Q 2503 -91 2169 -91 
Q 1331 -91 842 396 
Q 353 884 353 1716 
Q 353 2575 817 3079 
Q 1281 3584 2069 3584 
Q 2775 3584 3186 3129 
Q 3597 2675 3597 1894 
z
M 3022 2063 
Q 3016 2534 2758 2815 
Q 2500 3097 2075 3097 
Q 1594 3097 1305 2825 
Q 1016 2553 972 2059 
L 3022 2063 
z
" transform="scale(0.015625)"/>
       <path id="DejaVuSans-66" d="M 2375 4863 
L 2375 4384 
L 1825 4384 
Q 1516 4384 1395 4259 
Q 1275 4134 1275 3809 
L 1275 3500 
L 2222 3500 
L 2222 3053 
L 1275 3053 
L 1275 0 
L 697 0 
L 697 3053 
L 147 3053 
L 147 3500 
L 697 3500 
L 697 3744 
Q 697 4328 969 4595 
Q 1241 4863 1831 4863 
L 2375 4863 
z
" transform="scale(0.015625)"/>
       <path id="DejaVuSans-63" d="M 3122 3366 
L 3122 2828 
Q 2878 2963 2633 3030 
Q 2388 3097 2138 3097 
Q 1578 3097 1268 2742 
Q 959 2388 959 1747 
Q 959 1106 1268 751 
Q 1578 397 2138 397 
Q 2388 397 2633 464 
Q 2878 531 3122 666 
L 3122 134 
Q 2881 22 2623 -34 
Q 2366 -91 2075 -91 
Q 1284 -91 818 406 
Q 353 903 353 1747 
Q 353 2603 823 3093 
Q 1294 3584 2113 3584 
Q 2378 3584 2631 3529 
Q 2884 3475 3122 3366 
z
" transform="scale(0.015625)"/>
       <path id="DejaVuSans-6e" d="M 3513 2113 
L 3513 0 
L 2938 0 
L 2938 2094 
Q 2938 2591 2744 2837 
Q 2550 3084 2163 3084 
Q 1697 3084 1428 2787 
Q 1159 2491 1159 1978 
L 1159 0 
L 581 0 
L 581 3500 
L 1159 3500 
L 1159 2956 
Q 1366 3272 1645 3428 
Q 1925 3584 2291 3584 
Q 2894 3584 3203 3211 
Q 3513 2838 3513 2113 
z
" transform="scale(0.015625)"/>
       <path id="DejaVuSans-74" d="M 1172 4494 
L 1172 3500 
L 2356 3500 
L 2356 3053 
L 1172 3053 
L 1172 1153 
Q 1172 725 1289 603 
Q 1406 481 1766 481 
L 2356 481 
L 2356 0 
L 1766 0 
Q 1100 0 847 248 
Q 594 497 594 1153 
L 594 3053 
L 172 3053 
L 172 3500 
L 594 3500 
L 594 4494 
L 1172 4494 
z
" transform="scale(0.015625)"/>
       <path id="DejaVuSans-28" d="M 1984 4856 
Q 1566 4138 1362 3434 
Q 1159 2731 1159 2009 
Q 1159 1288 1364 580 
Q 1569 -128 1984 -844 
L 1484 -844 
Q 1016 -109 783 600 
Q 550 1309 550 2009 
Q 550 2706 781 3412 
Q 1013 4119 1484 4856 
L 1984 4856 
z
" transform="scale(0.015625)"/>
       <path id="DejaVuSans-64" d="M 2906 2969 
L 2906 4863 
L 3481 4863 
L 3481 0 
L 2906 0 
L 2906 525 
Q 2725 213 2448 61 
Q 2172 -91 1784 -91 
Q 1150 -91 751 415 
Q 353 922 353 1747 
Q 353 2572 751 3078 
Q 1150 3584 1784 3584 
Q 2172 3584 2448 3432 
Q 2725 3281 2906 2969 
z
M 947 1747 
Q 947 1113 1208 752 
Q 1469 391 1925 391 
Q 2381 391 2643 752 
Q 2906 1113 2906 1747 
Q 2906 2381 2643 2742 
Q 2381 3103 1925 3103 
Q 1469 3103 1208 2742 
Q 947 2381 947 1747 
z
" transform="scale(0.015625)"/>
       <path id="DejaVuSans-29" d="M 513 4856 
L 1013 4856 
Q 1481 4119 1714 3412 
Q 1947 2706 1947 2009 
Q 1947 1309 1714 600 
Q 1481 -109 1013 -844 
L 513 -844 
Q 928 -128 1133 580 
Q 1338 1288 1338 2009 
Q 1338 2731 1133 3434 
Q 928 4138 513 4856 
z
" transform="scale(0.015625)"/>
      </defs>
      <use xlink:href="#DejaVuSans-48"/>
      <use xlink:href="#DejaVuSans-69" transform="translate(75.195312 0)"/>
      <use xlink:href="#DejaVuSans-6c" transform="translate(102.978516 0)"/>
      <use xlink:href="#DejaVuSans-6c" transform="translate(130.761719 0)"/>
      <use xlink:href="#DejaVuSans-20" transform="translate(158.544922 0)"/>
      <use xlink:href="#DejaVuSans-43" transform="translate(190.332031 0)"/>
      <use xlink:href="#DejaVuSans-6f" transform="translate(260.15625 0)"/>
      <use xlink:href="#DejaVuSans-65" transform="translate(321.337891 0)"/>
      <use xlink:href="#DejaVuSans-66" transform="translate(382.861328 0)"/>
      <use xlink:href="#DejaVuSans-66" transform="translate(418.066406 0)"/>
      <use xlink:href="#DejaVuSans-69" transform="translate(453.271484 0)"/>
      <use xlink:href="#DejaVuSans-63" transform="translate(481.054688 0)"/>
      <use xlink:href="#DejaVuSans-69" transform="translate(536.035156 0)"/>
      <use xlink:href="#DejaVuSans-65" transform="translate(563.818359 0)"/>
      <use xlink:href="#DejaVuSans-6e" transform="translate(625.341797 0)"/>
      <use xlink:href="#DejaVuSans-74" transform="translate(688.720703 0)"/>
      <use xlink:href="#DejaVuSans-20" transform="translate(727.929688 0)"/>
      <use xlink:href="#DejaVuSans-28" transform="translate(759.716797 0)"/>
      <use xlink:href="#DejaVuSans-64" transform="translate(798.730469 0)"/>
      <use xlink:href="#DejaVuSans-29" transform="translate(862.207031 0)"/>
     </g>
    </g>
   </g>
   <g id="matplotlib.axis_2">
    <g id="ytick_1">
     <g id="line2d_19">
      <path d="M 46.965625 354.958125 
L 604.965625 354.958125 
" clip-path="url(#p3b68ae4b7d)" style="fill: none; stroke-dasharray: 2.96,1.28; stroke-dashoffset: 0; stroke: #b0b0b0; stroke-opacity: 0.7; stroke-width: 0.8"/>
     </g>
     <g id="line2d_20">
      <defs>
       <path id="m875033809f" d="M 0 0 
L -3.5 0 
" style="stroke: #000000; stroke-width: 0.8"/>
      </defs>
      <g>
       <use xlink:href="#m875033809f" x="46.965625" y="354.958125" style="stroke: #000000; stroke-width: 0.8"/>
      </g>
     </g>
     <g id="text_11">
      <!-- 0 -->
      <g transform="translate(33.603125 358.757344) scale(0.1 -0.1)">
       <use xlink:href="#DejaVuSans-30"/>
      </g>
     </g>
    </g>
    <g id="ytick_2">
     <g id="line2d_21">
      <path d="M 46.965625 294.478125 
L 604.965625 294.478125 
" clip-path="url(#p3b68ae4b7d)" style="fill: none; stroke-dasharray: 2.96,1.28; stroke-dashoffset: 0; stroke: #b0b0b0; stroke-opacity: 0.7; stroke-width: 0.8"/>
     </g>
     <g id="line2d_22">
      <g>
       <use xlink:href="#m875033809f" x="46.965625" y="294.478125" style="stroke: #000000; stroke-width: 0.8"/>
      </g>
     </g>
     <g id="text_12">
      <!-- 20 -->
      <g transform="translate(27.240625 298.277344) scale(0.1 -0.1)">
       <use xlink:href="#DejaVuSans-32"/>
       <use xlink:href="#DejaVuSans-30" transform="translate(63.623047 0)"/>
      </g>
     </g>
    </g>
    <g id="ytick_3">
     <g id="line2d_23">
      <path d="M 46.965625 233.998125 
L 604.965625 233.998125 
" clip-path="url(#p3b68ae4b7d)" style="fill: none; stroke-dasharray: 2.96,1.28; stroke-dashoffset: 0; stroke: #b0b0b0; stroke-opacity: 0.7; stroke-width: 0.8"/>
     </g>
     <g id="line2d_24">
      <g>
       <use xlink:href="#m875033809f" x="46.965625" y="233.998125" style="stroke: #000000; stroke-width: 0.8"/>
      </g>
     </g>
     <g id="text_13">
      <!-- 40 -->
      <g transform="translate(27.240625 237.797344) scale(0.1 -0.1)">
       <defs>
        <path id="DejaVuSans-34" d="M 2419 4116 
L 825 1625 
L 2419 1625 
L 2419 4116 
z
M 2253 4666 
L 3047 4666 
L 3047 1625 
L 3713 1625 
L 3713 1100 
L 3047 1100 
L 3047 0 
L 2419 0 
L 2419 1100 
L 313 1100 
L 313 1709 
L 2253 4666 
z
" transform="scale(0.015625)"/>
       </defs>
       <use xlink:href="#DejaVuSans-34"/>
       <use xlink:href="#DejaVuSans-30" transform="translate(63.623047 0)"/>
      </g>
     </g>
    </g>
    <g id="ytick_4">
     <g id="line2d_25">
      <path d="M 46.965625 173.518125 
L 604.965625 173.518125 
" clip-path="url(#p3b68ae4b7d)" style="fill: none; stroke-dasharray: 2.96,1.28; stroke-dashoffset: 0; stroke: #b0b0b0; stroke-opacity: 0.7; stroke-width: 0.8"/>
     </g>
     <g id="line2d_26">
      <g>
       <use xlink:href="#m875033809f" x="46.965625" y="173.518125" style="stroke: #000000; stroke-width: 0.8"/>
      </g>
     </g>
     <g id="text_14">
      <!-- 60 -->
      <g transform="translate(27.240625 177.317344) scale(0.1 -0.1)">
       <defs>
        <path id="DejaVuSans-36" d="M 2113 2584 
Q 1688 2584 1439 2293 
Q 1191 2003 1191 1497 
Q 1191 994 1439 701 
Q 1688 409 2113 409 
Q 2538 409 2786 701 
Q 3034 994 3034 1497 
Q 3034 2003 2786 2293 
Q 2538 2584 2113 2584 
z
M 3366 4563 
L 3366 3988 
Q 3128 4100 2886 4159 
Q 2644 4219 2406 4219 
Q 1781 4219 1451 3797 
Q 1122 3375 1075 2522 
Q 1259 2794 1537 2939 
Q 1816 3084 2150 3084 
Q 2853 3084 3261 2657 
Q 3669 2231 3669 1497 
Q 3669 778 3244 343 
Q 2819 -91 2113 -91 
Q 1303 -91 875 529 
Q 447 1150 447 2328 
Q 447 3434 972 4092 
Q 1497 4750 2381 4750 
Q 2619 4750 2861 4703 
Q 3103 4656 3366 4563 
z
" transform="scale(0.015625)"/>
       </defs>
       <use xlink:href="#DejaVuSans-36"/>
       <use xlink:href="#DejaVuSans-30" transform="translate(63.623047 0)"/>
      </g>
     </g>
    </g>
    <g id="ytick_5">
     <g id="line2d_27">
      <path d="M 46.965625 113.038125 
L 604.965625 113.038125 
" clip-path="url(#p3b68ae4b7d)" style="fill: none; stroke-dasharray: 2.96,1.28; stroke-dashoffset: 0; stroke: #b0b0b0; stroke-opacity: 0.7; stroke-width: 0.8"/>
     </g>
     <g id="line2d_28">
      <g>
       <use xlink:href="#m875033809f" x="46.965625" y="113.038125" style="stroke: #000000; stroke-width: 0.8"/>
      </g>
     </g>
     <g id="text_15">
      <!-- 80 -->
      <g transform="translate(27.240625 116.837344) scale(0.1 -0.1)">
       <defs>
        <path id="DejaVuSans-38" d="M 2034 2216 
Q 1584 2216 1326 1975 
Q 1069 1734 1069 1313 
Q 1069 891 1326 650 
Q 1584 409 2034 409 
Q 2484 409 2743 651 
Q 3003 894 3003 1313 
Q 3003 1734 2745 1975 
Q 2488 2216 2034 2216 
z
M 1403 2484 
Q 997 2584 770 2862 
Q 544 3141 544 3541 
Q 544 4100 942 4425 
Q 1341 4750 2034 4750 
Q 2731 4750 3128 4425 
Q 3525 4100 3525 3541 
Q 3525 3141 3298 2862 
Q 3072 2584 2669 2484 
Q 3125 2378 3379 2068 
Q 3634 1759 3634 1313 
Q 3634 634 3220 271 
Q 2806 -91 2034 -91 
Q 1263 -91 848 271 
Q 434 634 434 1313 
Q 434 1759 690 2068 
Q 947 2378 1403 2484 
z
M 1172 3481 
Q 1172 3119 1398 2916 
Q 1625 2713 2034 2713 
Q 2441 2713 2670 2916 
Q 2900 3119 2900 3481 
Q 2900 3844 2670 4047 
Q 2441 4250 2034 4250 
Q 1625 4250 1398 4047 
Q 1172 3844 1172 3481 
z
" transform="scale(0.015625)"/>
       </defs>
       <use xlink:href="#DejaVuSans-38"/>
       <use xlink:href="#DejaVuSans-30" transform="translate(63.623047 0)"/>
      </g>
     </g>
    </g>
    <g id="ytick_6">
     <g id="line2d_29">
      <path d="M 46.965625 52.558125 
L 604.965625 52.558125 
" clip-path="url(#p3b68ae4b7d)" style="fill: none; stroke-dasharray: 2.96,1.28; stroke-dashoffset: 0; stroke: #b0b0b0; stroke-opacity: 0.7; stroke-width: 0.8"/>
     </g>
     <g id="line2d_30">
      <g>
       <use xlink:href="#m875033809f" x="46.965625" y="52.558125" style="stroke: #000000; stroke-width: 0.8"/>
      </g>
     </g>
     <g id="text_16">
      <!-- 100 -->
      <g transform="translate(20.878125 56.357344) scale(0.1 -0.1)">
       <use xlink:href="#DejaVuSans-31"/>
       <use xlink:href="#DejaVuSans-30" transform="translate(63.623047 0)"/>
       <use xlink:href="#DejaVuSans-30" transform="translate(127.246094 0)"/>
      </g>
     </g>
    </g>
    <g id="text_17">
     <!-- Matching Success (%) -->
     <g transform="translate(14.798438 243.584219) rotate(-90) scale(0.1 -0.1)">
      <defs>
       <path id="DejaVuSans-4d" d="M 628 4666 
L 1569 4666 
L 2759 1491 
L 3956 4666 
L 4897 4666 
L 4897 0 
L 4281 0 
L 4281 4097 
L 3078 897 
L 2444 897 
L 1241 4097 
L 1241 0 
L 628 0 
L 628 4666 
z
" transform="scale(0.015625)"/>
       <path id="DejaVuSans-61" d="M 2194 1759 
Q 1497 1759 1228 1600 
Q 959 1441 959 1056 
Q 959 750 1161 570 
Q 1363 391 1709 391 
Q 2188 391 2477 730 
Q 2766 1069 2766 1631 
L 2766 1759 
L 2194 1759 
z
M 3341 1997 
L 3341 0 
L 2766 0 
L 2766 531 
Q 2569 213 2275 61 
Q 1981 -91 1556 -91 
Q 1019 -91 701 211 
Q 384 513 384 1019 
Q 384 1609 779 1909 
Q 1175 2209 1959 2209 
L 2766 2209 
L 2766 2266 
Q 2766 2663 2505 2880 
Q 2244 3097 1772 3097 
Q 1472 3097 1187 3025 
Q 903 2953 641 2809 
L 641 3341 
Q 956 3463 1253 3523 
Q 1550 3584 1831 3584 
Q 2591 3584 2966 3190 
Q 3341 2797 3341 1997 
z
" transform="scale(0.015625)"/>
       <path id="DejaVuSans-68" d="M 3513 2113 
L 3513 0 
L 2938 0 
L 2938 2094 
Q 2938 2591 2744 2837 
Q 2550 3084 2163 3084 
Q 1697 3084 1428 2787 
Q 1159 2491 1159 1978 
L 1159 0 
L 581 0 
L 581 4863 
L 1159 4863 
L 1159 2956 
Q 1366 3272 1645 3428 
Q 1925 3584 2291 3584 
Q 2894 3584 3203 3211 
Q 3513 2838 3513 2113 
z
" transform="scale(0.015625)"/>
       <path id="DejaVuSans-67" d="M 2906 1791 
Q 2906 2416 2648 2759 
Q 2391 3103 1925 3103 
Q 1463 3103 1205 2759 
Q 947 2416 947 1791 
Q 947 1169 1205 825 
Q 1463 481 1925 481 
Q 2391 481 2648 825 
Q 2906 1169 2906 1791 
z
M 3481 434 
Q 3481 -459 3084 -895 
Q 2688 -1331 1869 -1331 
Q 1566 -1331 1297 -1286 
Q 1028 -1241 775 -1147 
L 775 -588 
Q 1028 -725 1275 -790 
Q 1522 -856 1778 -856 
Q 2344 -856 2625 -561 
Q 2906 -266 2906 331 
L 2906 616 
Q 2728 306 2450 153 
Q 2172 0 1784 0 
Q 1141 0 747 490 
Q 353 981 353 1791 
Q 353 2603 747 3093 
Q 1141 3584 1784 3584 
Q 2172 3584 2450 3431 
Q 2728 3278 2906 2969 
L 2906 3500 
L 3481 3500 
L 3481 434 
z
" transform="scale(0.015625)"/>
       <path id="DejaVuSans-53" d="M 3425 4513 
L 3425 3897 
Q 3066 4069 2747 4153 
Q 2428 4238 2131 4238 
Q 1616 4238 1336 4038 
Q 1056 3838 1056 3469 
Q 1056 3159 1242 3001 
Q 1428 2844 1947 2747 
L 2328 2669 
Q 3034 2534 3370 2195 
Q 3706 1856 3706 1288 
Q 3706 609 3251 259 
Q 2797 -91 1919 -91 
Q 1588 -91 1214 -16 
Q 841 59 441 206 
L 441 856 
Q 825 641 1194 531 
Q 1563 422 1919 422 
Q 2459 422 2753 634 
Q 3047 847 3047 1241 
Q 3047 1584 2836 1778 
Q 2625 1972 2144 2069 
L 1759 2144 
Q 1053 2284 737 2584 
Q 422 2884 422 3419 
Q 422 4038 858 4394 
Q 1294 4750 2059 4750 
Q 2388 4750 2728 4690 
Q 3069 4631 3425 4513 
z
" transform="scale(0.015625)"/>
       <path id="DejaVuSans-75" d="M 544 1381 
L 544 3500 
L 1119 3500 
L 1119 1403 
Q 1119 906 1312 657 
Q 1506 409 1894 409 
Q 2359 409 2629 706 
Q 2900 1003 2900 1516 
L 2900 3500 
L 3475 3500 
L 3475 0 
L 2900 0 
L 2900 538 
Q 2691 219 2414 64 
Q 2138 -91 1772 -91 
Q 1169 -91 856 284 
Q 544 659 544 1381 
z
M 1991 3584 
L 1991 3584 
z
" transform="scale(0.015625)"/>
       <path id="DejaVuSans-73" d="M 2834 3397 
L 2834 2853 
Q 2591 2978 2328 3040 
Q 2066 3103 1784 3103 
Q 1356 3103 1142 2972 
Q 928 2841 928 2578 
Q 928 2378 1081 2264 
Q 1234 2150 1697 2047 
L 1894 2003 
Q 2506 1872 2764 1633 
Q 3022 1394 3022 966 
Q 3022 478 2636 193 
Q 2250 -91 1575 -91 
Q 1294 -91 989 -36 
Q 684 19 347 128 
L 347 722 
Q 666 556 975 473 
Q 1284 391 1588 391 
Q 1994 391 2212 530 
Q 2431 669 2431 922 
Q 2431 1156 2273 1281 
Q 2116 1406 1581 1522 
L 1381 1569 
Q 847 1681 609 1914 
Q 372 2147 372 2553 
Q 372 3047 722 3315 
Q 1072 3584 1716 3584 
Q 2034 3584 2315 3537 
Q 2597 3491 2834 3397 
z
" transform="scale(0.015625)"/>
       <path id="DejaVuSans-25" d="M 4653 2053 
Q 4381 2053 4226 1822 
Q 4072 1591 4072 1178 
Q 4072 772 4226 539 
Q 4381 306 4653 306 
Q 4919 306 5073 539 
Q 5228 772 5228 1178 
Q 5228 1588 5073 1820 
Q 4919 2053 4653 2053 
z
M 4653 2450 
Q 5147 2450 5437 2106 
Q 5728 1763 5728 1178 
Q 5728 594 5436 251 
Q 5144 -91 4653 -91 
Q 4153 -91 3862 251 
Q 3572 594 3572 1178 
Q 3572 1766 3864 2108 
Q 4156 2450 4653 2450 
z
M 1428 4353 
Q 1159 4353 1004 4120 
Q 850 3888 850 3481 
Q 850 3069 1003 2837 
Q 1156 2606 1428 2606 
Q 1700 2606 1854 2837 
Q 2009 3069 2009 3481 
Q 2009 3884 1853 4118 
Q 1697 4353 1428 4353 
z
M 4250 4750 
L 4750 4750 
L 1831 -91 
L 1331 -91 
L 4250 4750 
z
M 1428 4750 
Q 1922 4750 2215 4408 
Q 2509 4066 2509 3481 
Q 2509 2891 2217 2550 
Q 1925 2209 1428 2209 
Q 931 2209 642 2551 
Q 353 2894 353 3481 
Q 353 4063 643 4406 
Q 934 4750 1428 4750 
z
" transform="scale(0.015625)"/>
      </defs>
      <use xlink:href="#DejaVuSans-4d"/>
      <use xlink:href="#DejaVuSans-61" transform="translate(86.279297 0)"/>
      <use xlink:href="#DejaVuSans-74" transform="translate(147.558594 0)"/>
      <use xlink:href="#DejaVuSans-63" transform="translate(186.767578 0)"/>
      <use xlink:href="#DejaVuSans-68" transform="translate(241.748047 0)"/>
      <use xlink:href="#DejaVuSans-69" transform="translate(305.126953 0)"/>
      <use xlink:href="#DejaVuSans-6e" transform="translate(332.910156 0)"/>
      <use xlink:href="#DejaVuSans-67" transform="translate(396.289062 0)"/>
      <use xlink:href="#DejaVuSans-20" transform="translate(459.765625 0)"/>
      <use xlink:href="#DejaVuSans-53" transform="translate(491.552734 0)"/>
      <use xlink:href="#DejaVuSans-75" transform="translate(555.029297 0)"/>
      <use xlink:href="#DejaVuSans-63" transform="translate(618.408203 0)"/>
      <use xlink:href="#DejaVuSans-63" transform="translate(673.388672 0)"/>
      <use xlink:href="#DejaVuSans-65" transform="translate(728.369141 0)"/>
      <use xlink:href="#DejaVuSans-73" transform="translate(789.892578 0)"/>
      <use xlink:href="#DejaVuSans-73" transform="translate(841.992188 0)"/>
      <use xlink:href="#DejaVuSans-20" transform="translate(894.091797 0)"/>
      <use xlink:href="#DejaVuSans-28" transform="translate(925.878906 0)"/>
      <use xlink:href="#DejaVuSans-25" transform="translate(964.892578 0)"/>
      <use xlink:href="#DejaVuSans-29" transform="translate(1059.912109 0)"/>
     </g>
    </g>
   </g>
   <g id="patch_202">
    <path d="M 46.965625 354.958125 
L 46.965625 22.318125 
" style="fill: none; stroke: #000000; stroke-width: 0.8; stroke-linejoin: miter; stroke-linecap: square"/>
   </g>
   <g id="patch_203">
    <path d="M 604.965625 354.958125 
L 604.965625 22.318125 
" style="fill: none; stroke: #000000; stroke-width: 0.8; stroke-linejoin: miter; stroke-linecap: square"/>
   </g>
   <g id="patch_204">
    <path d="M 46.965625 354.958125 
L 604.965625 354.958125 
" style="fill: none; stroke: #000000; stroke-width: 0.8; stroke-linejoin: miter; stroke-linecap: square"/>
   </g>
   <g id="patch_205">
    <path d="M 46.965625 22.318125 
L 604.965625 22.318125 
" style="fill: none; stroke: #000000; stroke-width: 0.8; stroke-linejoin: miter; stroke-linecap: square"/>
   </g>
   <g id="text_18">
    <!-- Matching Success Rates vs Hill Coefficient (Parameter 98) -->
    <g transform="translate(152.02 16.318125) scale(0.12 -0.12)">
     <defs>
      <path id="DejaVuSans-52" d="M 2841 2188 
Q 3044 2119 3236 1894 
Q 3428 1669 3622 1275 
L 4263 0 
L 3584 0 
L 2988 1197 
Q 2756 1666 2539 1819 
Q 2322 1972 1947 1972 
L 1259 1972 
L 1259 0 
L 628 0 
L 628 4666 
L 2053 4666 
Q 2853 4666 3247 4331 
Q 3641 3997 3641 3322 
Q 3641 2881 3436 2590 
Q 3231 2300 2841 2188 
z
M 1259 4147 
L 1259 2491 
L 2053 2491 
Q 2509 2491 2742 2702 
Q 2975 2913 2975 3322 
Q 2975 3731 2742 3939 
Q 2509 4147 2053 4147 
L 1259 4147 
z
" transform="scale(0.015625)"/>
      <path id="DejaVuSans-76" d="M 191 3500 
L 800 3500 
L 1894 563 
L 2988 3500 
L 3597 3500 
L 2284 0 
L 1503 0 
L 191 3500 
z
" transform="scale(0.015625)"/>
      <path id="DejaVuSans-50" d="M 1259 4147 
L 1259 2394 
L 2053 2394 
Q 2494 2394 2734 2622 
Q 2975 2850 2975 3272 
Q 2975 3691 2734 3919 
Q 2494 4147 2053 4147 
L 1259 4147 
z
M 628 4666 
L 2053 4666 
Q 2838 4666 3239 4311 
Q 3641 3956 3641 3272 
Q 3641 2581 3239 2228 
Q 2838 1875 2053 1875 
L 1259 1875 
L 1259 0 
L 628 0 
L 628 4666 
z
" transform="scale(0.015625)"/>
      <path id="DejaVuSans-72" d="M 2631 2963 
Q 2534 3019 2420 3045 
Q 2306 3072 2169 3072 
Q 1681 3072 1420 2755 
Q 1159 2438 1159 1844 
L 1159 0 
L 581 0 
L 581 3500 
L 1159 3500 
L 1159 2956 
Q 1341 3275 1631 3429 
Q 1922 3584 2338 3584 
Q 2397 3584 2469 3576 
Q 2541 3569 2628 3553 
L 2631 2963 
z
" transform="scale(0.015625)"/>
      <path id="DejaVuSans-6d" d="M 3328 2828 
Q 3544 3216 3844 3400 
Q 4144 3584 4550 3584 
Q 5097 3584 5394 3201 
Q 5691 2819 5691 2113 
L 5691 0 
L 5113 0 
L 5113 2094 
Q 5113 2597 4934 2840 
Q 4756 3084 4391 3084 
Q 3944 3084 3684 2787 
Q 3425 2491 3425 1978 
L 3425 0 
L 2847 0 
L 2847 2094 
Q 2847 2600 2669 2842 
Q 2491 3084 2119 3084 
Q 1678 3084 1418 2786 
Q 1159 2488 1159 1978 
L 1159 0 
L 581 0 
L 581 3500 
L 1159 3500 
L 1159 2956 
Q 1356 3278 1631 3431 
Q 1906 3584 2284 3584 
Q 2666 3584 2933 3390 
Q 3200 3197 3328 2828 
z
" transform="scale(0.015625)"/>
      <path id="DejaVuSans-39" d="M 703 97 
L 703 672 
Q 941 559 1184 500 
Q 1428 441 1663 441 
Q 2288 441 2617 861 
Q 2947 1281 2994 2138 
Q 2813 1869 2534 1725 
Q 2256 1581 1919 1581 
Q 1219 1581 811 2004 
Q 403 2428 403 3163 
Q 403 3881 828 4315 
Q 1253 4750 1959 4750 
Q 2769 4750 3195 4129 
Q 3622 3509 3622 2328 
Q 3622 1225 3098 567 
Q 2575 -91 1691 -91 
Q 1453 -91 1209 -44 
Q 966 3 703 97 
z
M 1959 2075 
Q 2384 2075 2632 2365 
Q 2881 2656 2881 3163 
Q 2881 3666 2632 3958 
Q 2384 4250 1959 4250 
Q 1534 4250 1286 3958 
Q 1038 3666 1038 3163 
Q 1038 2656 1286 2365 
Q 1534 2075 1959 2075 
z
" transform="scale(0.015625)"/>
     </defs>
     <use xlink:href="#DejaVuSans-4d"/>
     <use xlink:href="#DejaVuSans-61" transform="translate(86.279297 0)"/>
     <use xlink:href="#DejaVuSans-74" transform="translate(147.558594 0)"/>
     <use xlink:href="#DejaVuSans-63" transform="translate(186.767578 0)"/>
     <use xlink:href="#DejaVuSans-68" transform="translate(241.748047 0)"/>
     <use xlink:href="#DejaVuSans-69" transform="translate(305.126953 0)"/>
     <use xlink:href="#DejaVuSans-6e" transform="translate(332.910156 0)"/>
     <use xlink:href="#DejaVuSans-67" transform="translate(396.289062 0)"/>
     <use xlink:href="#DejaVuSans-20" transform="translate(459.765625 0)"/>
     <use xlink:href="#DejaVuSans-53" transform="translate(491.552734 0)"/>
     <use xlink:href="#DejaVuSans-75" transform="translate(555.029297 0)"/>
     <use xlink:href="#DejaVuSans-63" transform="translate(618.408203 0)"/>
     <use xlink:href="#DejaVuSans-63" transform="translate(673.388672 0)"/>
     <use xlink:href="#DejaVuSans-65" transform="translate(728.369141 0)"/>
     <use xlink:href="#DejaVuSans-73" transform="translate(789.892578 0)"/>
     <use xlink:href="#DejaVuSans-73" transform="translate(841.992188 0)"/>
     <use xlink:href="#DejaVuSans-20" transform="translate(894.091797 0)"/>
     <use xlink:href="#DejaVuSans-52" transform="translate(925.878906 0)"/>
     <use xlink:href="#DejaVuSans-61" transform="translate(993.111328 0)"/>
     <use xlink:href="#DejaVuSans-74" transform="translate(1054.390625 0)"/>
     <use xlink:href="#DejaVuSans-65" transform="translate(1093.599609 0)"/>
     <use xlink:href="#DejaVuSans-73" transform="translate(1155.123047 0)"/>
     <use xlink:href="#DejaVuSans-20" transform="translate(1207.222656 0)"/>
     <use xlink:href="#DejaVuSans-76" transform="translate(1239.009766 0)"/>
     <use xlink:href="#DejaVuSans-73" transform="translate(1298.189453 0)"/>
     <use xlink:href="#DejaVuSans-20" transform="translate(1350.289062 0)"/>
     <use xlink:href="#DejaVuSans-48" transform="translate(1382.076172 0)"/>
     <use xlink:href="#DejaVuSans-69" transform="translate(1457.271484 0)"/>
     <use xlink:href="#DejaVuSans-6c" transform="translate(1485.054688 0)"/>
     <use xlink:href="#DejaVuSans-6c" transform="translate(1512.837891 0)"/>
     <use xlink:href="#DejaVuSans-20" transform="translate(1540.621094 0)"/>
     <use xlink:href="#DejaVuSans-43" transform="translate(1572.408203 0)"/>
     <use xlink:href="#DejaVuSans-6f" transform="translate(1642.232422 0)"/>
     <use xlink:href="#DejaVuSans-65" transform="translate(1703.414062 0)"/>
     <use xlink:href="#DejaVuSans-66" transform="translate(1764.9375 0)"/>
     <use xlink:href="#DejaVuSans-66" transform="translate(1800.142578 0)"/>
     <use xlink:href="#DejaVuSans-69" transform="translate(1835.347656 0)"/>
     <use xlink:href="#DejaVuSans-63" transform="translate(1863.130859 0)"/>
     <use xlink:href="#DejaVuSans-69" transform="translate(1918.111328 0)"/>
     <use xlink:href="#DejaVuSans-65" transform="translate(1945.894531 0)"/>
     <use xlink:href="#DejaVuSans-6e" transform="translate(2007.417969 0)"/>
     <use xlink:href="#DejaVuSans-74" transform="translate(2070.796875 0)"/>
     <use xlink:href="#DejaVuSans-20" transform="translate(2110.005859 0)"/>
     <use xlink:href="#DejaVuSans-28" transform="translate(2141.792969 0)"/>
     <use xlink:href="#DejaVuSans-50" transform="translate(2180.806641 0)"/>
     <use xlink:href="#DejaVuSans-61" transform="translate(2236.609375 0)"/>
     <use xlink:href="#DejaVuSans-72" transform="translate(2297.888672 0)"/>
     <use xlink:href="#DejaVuSans-61" transform="translate(2339.001953 0)"/>
     <use xlink:href="#DejaVuSans-6d" transform="translate(2400.28125 0)"/>
     <use xlink:href="#DejaVuSans-65" transform="translate(2497.693359 0)"/>
     <use xlink:href="#DejaVuSans-74" transform="translate(2559.216797 0)"/>
     <use xlink:href="#DejaVuSans-65" transform="translate(2598.425781 0)"/>
     <use xlink:href="#DejaVuSans-72" transform="translate(2659.949219 0)"/>
     <use xlink:href="#DejaVuSans-20" transform="translate(2701.0625 0)"/>
     <use xlink:href="#DejaVuSans-39" transform="translate(2732.849609 0)"/>
     <use xlink:href="#DejaVuSans-38" transform="translate(2796.472656 0)"/>
     <use xlink:href="#DejaVuSans-29" transform="translate(2860.095703 0)"/>
    </g>
   </g>
  </g>
 </g>
 <defs>
  <clipPath id="p3b68ae4b7d">
   <rect x="46.965625" y="22.318125" width="558" height="332.64"/>
  </clipPath>
 </defs>
</svg>
