<?xml version="1.0" encoding="utf-8" standalone="no"?>
<!DOCTYPE svg PUBLIC "-//W3C//DTD SVG 1.1//EN"
  "http://www.w3.org/Graphics/SVG/1.1/DTD/svg11.dtd">
<svg xmlns:xlink="http://www.w3.org/1999/xlink" width="616.184623pt" height="392.514375pt" viewBox="0 0 616.184623 392.514375" xmlns="http://www.w3.org/2000/svg" version="1.1">
 <metadata>
  <rdf:RDF xmlns:dc="http://purl.org/dc/elements/1.1/" xmlns:cc="http://creativecommons.org/ns#" xmlns:rdf="http://www.w3.org/1999/02/22-rdf-syntax-ns#">
   <cc:Work>
    <dc:type rdf:resource="http://purl.org/dc/dcmitype/StillImage"/>
    <dc:date>2025-02-08T14:21:25.339807</dc:date>
    <dc:format>image/svg+xml</dc:format>
    <dc:creator>
     <cc:Agent>
      <dc:title>Matplotlib v3.10.0, https://matplotlib.org/</dc:title>
     </cc:Agent>
    </dc:creator>
   </cc:Work>
  </rdf:RDF>
 </metadata>
 <defs>
  <style type="text/css">*{stroke-linejoin: round; stroke-linecap: butt}</style>
 </defs>
 <g id="figure_1">
  <g id="patch_1">
   <path d="M 0 392.514375 
L 616.184623 392.514375 
L 616.184623 0 
L 0 0 
z
" style="fill: #ffffff"/>
  </g>
  <g id="axes_1">
   <g id="patch_2">
    <path d="M 46.965625 354.958125 
L 604.965625 354.958125 
L 604.965625 22.318125 
L 46.965625 22.318125 
z
" style="fill: #ffffff"/>
   </g>
   <g id="patch_3">
    <path d="M 44.755724 354.958125 
L 49.175526 354.958125 
L 49.175526 354.958125 
L 44.755724 354.958125 
z
" clip-path="url(#p6a04f277c7)" style="fill: #87ceeb"/>
   </g>
   <g id="patch_4">
    <path d="M 50.280476 354.958125 
L 54.700278 354.958125 
L 54.700278 354.958125 
L 50.280476 354.958125 
z
" clip-path="url(#p6a04f277c7)" style="fill: #87ceeb"/>
   </g>
   <g id="patch_5">
    <path d="M 55.805229 354.958125 
L 60.225031 354.958125 
L 60.225031 354.958125 
L 55.805229 354.958125 
z
" clip-path="url(#p6a04f277c7)" style="fill: #87ceeb"/>
   </g>
   <g id="patch_6">
    <path d="M 61.329981 354.958125 
L 65.749783 354.958125 
L 65.749783 354.958125 
L 61.329981 354.958125 
z
" clip-path="url(#p6a04f277c7)" style="fill: #87ceeb"/>
   </g>
   <g id="patch_7">
    <path d="M 66.854734 354.958125 
L 71.274536 354.958125 
L 71.274536 354.958125 
L 66.854734 354.958125 
z
" clip-path="url(#p6a04f277c7)" style="fill: #87ceeb"/>
   </g>
   <g id="patch_8">
    <path d="M 72.379486 354.958125 
L 76.799288 354.958125 
L 76.799288 354.958125 
L 72.379486 354.958125 
z
" clip-path="url(#p6a04f277c7)" style="fill: #87ceeb"/>
   </g>
   <g id="patch_9">
    <path d="M 77.904239 354.958125 
L 82.324041 354.958125 
L 82.324041 354.958125 
L 77.904239 354.958125 
z
" clip-path="url(#p6a04f277c7)" style="fill: #87ceeb"/>
   </g>
   <g id="patch_10">
    <path d="M 83.428991 354.958125 
L 87.848793 354.958125 
L 87.848793 354.958125 
L 83.428991 354.958125 
z
" clip-path="url(#p6a04f277c7)" style="fill: #87ceeb"/>
   </g>
   <g id="patch_11">
    <path d="M 88.953744 354.958125 
L 93.373546 354.958125 
L 93.373546 354.958125 
L 88.953744 354.958125 
z
" clip-path="url(#p6a04f277c7)" style="fill: #87ceeb"/>
   </g>
   <g id="patch_12">
    <path d="M 94.478496 354.958125 
L 98.898298 354.958125 
L 98.898298 354.958125 
L 94.478496 354.958125 
z
" clip-path="url(#p6a04f277c7)" style="fill: #87ceeb"/>
   </g>
   <g id="patch_13">
    <path d="M 100.003249 354.958125 
L 104.423051 354.958125 
L 104.423051 354.958125 
L 100.003249 354.958125 
z
" clip-path="url(#p6a04f277c7)" style="fill: #87ceeb"/>
   </g>
   <g id="patch_14">
    <path d="M 105.528001 354.958125 
L 109.947803 354.958125 
L 109.947803 354.958125 
L 105.528001 354.958125 
z
" clip-path="url(#p6a04f277c7)" style="fill: #87ceeb"/>
   </g>
   <g id="patch_15">
    <path d="M 111.052754 354.958125 
L 115.472556 354.958125 
L 115.472556 354.958125 
L 111.052754 354.958125 
z
" clip-path="url(#p6a04f277c7)" style="fill: #87ceeb"/>
   </g>
   <g id="patch_16">
    <path d="M 116.577506 354.958125 
L 120.997308 354.958125 
L 120.997308 354.958125 
L 116.577506 354.958125 
z
" clip-path="url(#p6a04f277c7)" style="fill: #87ceeb"/>
   </g>
   <g id="patch_17">
    <path d="M 122.102259 354.958125 
L 126.522061 354.958125 
L 126.522061 203.758125 
L 122.102259 203.758125 
z
" clip-path="url(#p6a04f277c7)" style="fill: #87ceeb"/>
   </g>
   <g id="patch_18">
    <path d="M 127.627011 354.958125 
L 132.046813 354.958125 
L 132.046813 203.758125 
L 127.627011 203.758125 
z
" clip-path="url(#p6a04f277c7)" style="fill: #87ceeb"/>
   </g>
   <g id="patch_19">
    <path d="M 133.151764 354.958125 
L 137.571566 354.958125 
L 137.571566 203.758125 
L 133.151764 203.758125 
z
" clip-path="url(#p6a04f277c7)" style="fill: #87ceeb"/>
   </g>
   <g id="patch_20">
    <path d="M 138.676516 354.958125 
L 143.096318 354.958125 
L 143.096318 203.758125 
L 138.676516 203.758125 
z
" clip-path="url(#p6a04f277c7)" style="fill: #87ceeb"/>
   </g>
   <g id="patch_21">
    <path d="M 144.201269 354.958125 
L 148.621071 354.958125 
L 148.621071 203.758125 
L 144.201269 203.758125 
z
" clip-path="url(#p6a04f277c7)" style="fill: #87ceeb"/>
   </g>
   <g id="patch_22">
    <path d="M 149.726021 354.958125 
L 154.145823 354.958125 
L 154.145823 203.758125 
L 149.726021 203.758125 
z
" clip-path="url(#p6a04f277c7)" style="fill: #87ceeb"/>
   </g>
   <g id="patch_23">
    <path d="M 155.250774 354.958125 
L 159.670575 354.958125 
L 159.670575 203.758125 
L 155.250774 203.758125 
z
" clip-path="url(#p6a04f277c7)" style="fill: #87ceeb"/>
   </g>
   <g id="patch_24">
    <path d="M 160.775526 354.958125 
L 165.195328 354.958125 
L 165.195328 52.558125 
L 160.775526 52.558125 
z
" clip-path="url(#p6a04f277c7)" style="fill: #87ceeb"/>
   </g>
   <g id="patch_25">
    <path d="M 166.300278 354.958125 
L 170.72008 354.958125 
L 170.72008 52.558125 
L 166.300278 52.558125 
z
" clip-path="url(#p6a04f277c7)" style="fill: #87ceeb"/>
   </g>
   <g id="patch_26">
    <path d="M 171.825031 354.958125 
L 176.244833 354.958125 
L 176.244833 52.558125 
L 171.825031 52.558125 
z
" clip-path="url(#p6a04f277c7)" style="fill: #87ceeb"/>
   </g>
   <g id="patch_27">
    <path d="M 177.349783 354.958125 
L 181.769585 354.958125 
L 181.769585 52.558125 
L 177.349783 52.558125 
z
" clip-path="url(#p6a04f277c7)" style="fill: #87ceeb"/>
   </g>
   <g id="patch_28">
    <path d="M 182.874536 354.958125 
L 187.294338 354.958125 
L 187.294338 52.558125 
L 182.874536 52.558125 
z
" clip-path="url(#p6a04f277c7)" style="fill: #87ceeb"/>
   </g>
   <g id="patch_29">
    <path d="M 188.399288 354.958125 
L 192.81909 354.958125 
L 192.81909 52.558125 
L 188.399288 52.558125 
z
" clip-path="url(#p6a04f277c7)" style="fill: #87ceeb"/>
   </g>
   <g id="patch_30">
    <path d="M 193.924041 354.958125 
L 198.343843 354.958125 
L 198.343843 52.558125 
L 193.924041 52.558125 
z
" clip-path="url(#p6a04f277c7)" style="fill: #87ceeb"/>
   </g>
   <g id="patch_31">
    <path d="M 199.448793 354.958125 
L 203.868595 354.958125 
L 203.868595 52.558125 
L 199.448793 52.558125 
z
" clip-path="url(#p6a04f277c7)" style="fill: #87ceeb"/>
   </g>
   <g id="patch_32">
    <path d="M 204.973546 354.958125 
L 209.393348 354.958125 
L 209.393348 52.558125 
L 204.973546 52.558125 
z
" clip-path="url(#p6a04f277c7)" style="fill: #87ceeb"/>
   </g>
   <g id="patch_33">
    <path d="M 210.498298 354.958125 
L 214.9181 354.958125 
L 214.9181 52.558125 
L 210.498298 52.558125 
z
" clip-path="url(#p6a04f277c7)" style="fill: #87ceeb"/>
   </g>
   <g id="patch_34">
    <path d="M 216.023051 354.958125 
L 220.442853 354.958125 
L 220.442853 52.558125 
L 216.023051 52.558125 
z
" clip-path="url(#p6a04f277c7)" style="fill: #87ceeb"/>
   </g>
   <g id="patch_35">
    <path d="M 221.547803 354.958125 
L 225.967605 354.958125 
L 225.967605 52.558125 
L 221.547803 52.558125 
z
" clip-path="url(#p6a04f277c7)" style="fill: #87ceeb"/>
   </g>
   <g id="patch_36">
    <path d="M 227.072556 354.958125 
L 231.492358 354.958125 
L 231.492358 52.558125 
L 227.072556 52.558125 
z
" clip-path="url(#p6a04f277c7)" style="fill: #87ceeb"/>
   </g>
   <g id="patch_37">
    <path d="M 232.597308 354.958125 
L 237.01711 354.958125 
L 237.01711 52.558125 
L 232.597308 52.558125 
z
" clip-path="url(#p6a04f277c7)" style="fill: #87ceeb"/>
   </g>
   <g id="patch_38">
    <path d="M 238.122061 354.958125 
L 242.541863 354.958125 
L 242.541863 52.558125 
L 238.122061 52.558125 
z
" clip-path="url(#p6a04f277c7)" style="fill: #87ceeb"/>
   </g>
   <g id="patch_39">
    <path d="M 243.646813 354.958125 
L 248.066615 354.958125 
L 248.066615 52.558125 
L 243.646813 52.558125 
z
" clip-path="url(#p6a04f277c7)" style="fill: #87ceeb"/>
   </g>
   <g id="patch_40">
    <path d="M 249.171566 354.958125 
L 253.591368 354.958125 
L 253.591368 52.558125 
L 249.171566 52.558125 
z
" clip-path="url(#p6a04f277c7)" style="fill: #87ceeb"/>
   </g>
   <g id="patch_41">
    <path d="M 254.696318 354.958125 
L 259.11612 354.958125 
L 259.11612 52.558125 
L 254.696318 52.558125 
z
" clip-path="url(#p6a04f277c7)" style="fill: #87ceeb"/>
   </g>
   <g id="patch_42">
    <path d="M 260.221071 354.958125 
L 264.640873 354.958125 
L 264.640873 52.558125 
L 260.221071 52.558125 
z
" clip-path="url(#p6a04f277c7)" style="fill: #87ceeb"/>
   </g>
   <g id="patch_43">
    <path d="M 265.745823 354.958125 
L 270.165625 354.958125 
L 270.165625 52.558125 
L 265.745823 52.558125 
z
" clip-path="url(#p6a04f277c7)" style="fill: #87ceeb"/>
   </g>
   <g id="patch_44">
    <path d="M 271.270575 354.958125 
L 275.690377 354.958125 
L 275.690377 52.558125 
L 271.270575 52.558125 
z
" clip-path="url(#p6a04f277c7)" style="fill: #87ceeb"/>
   </g>
   <g id="patch_45">
    <path d="M 276.795328 354.958125 
L 281.21513 354.958125 
L 281.21513 52.558125 
L 276.795328 52.558125 
z
" clip-path="url(#p6a04f277c7)" style="fill: #87ceeb"/>
   </g>
   <g id="patch_46">
    <path d="M 282.32008 354.958125 
L 286.739882 354.958125 
L 286.739882 52.558125 
L 282.32008 52.558125 
z
" clip-path="url(#p6a04f277c7)" style="fill: #87ceeb"/>
   </g>
   <g id="patch_47">
    <path d="M 287.844833 354.958125 
L 292.264635 354.958125 
L 292.264635 52.558125 
L 287.844833 52.558125 
z
" clip-path="url(#p6a04f277c7)" style="fill: #87ceeb"/>
   </g>
   <g id="patch_48">
    <path d="M 293.369585 354.958125 
L 297.789387 354.958125 
L 297.789387 52.558125 
L 293.369585 52.558125 
z
" clip-path="url(#p6a04f277c7)" style="fill: #87ceeb"/>
   </g>
   <g id="patch_49">
    <path d="M 298.894338 354.958125 
L 303.31414 354.958125 
L 303.31414 52.558125 
L 298.894338 52.558125 
z
" clip-path="url(#p6a04f277c7)" style="fill: #87ceeb"/>
   </g>
   <g id="patch_50">
    <path d="M 304.41909 354.958125 
L 308.838892 354.958125 
L 308.838892 52.558125 
L 304.41909 52.558125 
z
" clip-path="url(#p6a04f277c7)" style="fill: #87ceeb"/>
   </g>
   <g id="patch_51">
    <path d="M 309.943843 354.958125 
L 314.363645 354.958125 
L 314.363645 52.558125 
L 309.943843 52.558125 
z
" clip-path="url(#p6a04f277c7)" style="fill: #87ceeb"/>
   </g>
   <g id="patch_52">
    <path d="M 315.468595 354.958125 
L 319.888397 354.958125 
L 319.888397 52.558125 
L 315.468595 52.558125 
z
" clip-path="url(#p6a04f277c7)" style="fill: #87ceeb"/>
   </g>
   <g id="patch_53">
    <path d="M 320.993348 354.958125 
L 325.41315 354.958125 
L 325.41315 52.558125 
L 320.993348 52.558125 
z
" clip-path="url(#p6a04f277c7)" style="fill: #87ceeb"/>
   </g>
   <g id="patch_54">
    <path d="M 326.5181 354.958125 
L 330.937902 354.958125 
L 330.937902 52.558125 
L 326.5181 52.558125 
z
" clip-path="url(#p6a04f277c7)" style="fill: #87ceeb"/>
   </g>
   <g id="patch_55">
    <path d="M 332.042853 354.958125 
L 336.462655 354.958125 
L 336.462655 52.558125 
L 332.042853 52.558125 
z
" clip-path="url(#p6a04f277c7)" style="fill: #87ceeb"/>
   </g>
   <g id="patch_56">
    <path d="M 337.567605 354.958125 
L 341.987407 354.958125 
L 341.987407 52.558125 
L 337.567605 52.558125 
z
" clip-path="url(#p6a04f277c7)" style="fill: #87ceeb"/>
   </g>
   <g id="patch_57">
    <path d="M 343.092358 354.958125 
L 347.51216 354.958125 
L 347.51216 52.558125 
L 343.092358 52.558125 
z
" clip-path="url(#p6a04f277c7)" style="fill: #87ceeb"/>
   </g>
   <g id="patch_58">
    <path d="M 348.61711 354.958125 
L 353.036912 354.958125 
L 353.036912 52.558125 
L 348.61711 52.558125 
z
" clip-path="url(#p6a04f277c7)" style="fill: #87ceeb"/>
   </g>
   <g id="patch_59">
    <path d="M 354.141863 354.958125 
L 358.561665 354.958125 
L 358.561665 52.558125 
L 354.141863 52.558125 
z
" clip-path="url(#p6a04f277c7)" style="fill: #87ceeb"/>
   </g>
   <g id="patch_60">
    <path d="M 359.666615 354.958125 
L 364.086417 354.958125 
L 364.086417 52.558125 
L 359.666615 52.558125 
z
" clip-path="url(#p6a04f277c7)" style="fill: #87ceeb"/>
   </g>
   <g id="patch_61">
    <path d="M 365.191368 354.958125 
L 369.61117 354.958125 
L 369.61117 52.558125 
L 365.191368 52.558125 
z
" clip-path="url(#p6a04f277c7)" style="fill: #87ceeb"/>
   </g>
   <g id="patch_62">
    <path d="M 370.71612 354.958125 
L 375.135922 354.958125 
L 375.135922 52.558125 
L 370.71612 52.558125 
z
" clip-path="url(#p6a04f277c7)" style="fill: #87ceeb"/>
   </g>
   <g id="patch_63">
    <path d="M 376.240873 354.958125 
L 380.660675 354.958125 
L 380.660675 52.558125 
L 376.240873 52.558125 
z
" clip-path="url(#p6a04f277c7)" style="fill: #87ceeb"/>
   </g>
   <g id="patch_64">
    <path d="M 381.765625 354.958125 
L 386.185427 354.958125 
L 386.185427 52.558125 
L 381.765625 52.558125 
z
" clip-path="url(#p6a04f277c7)" style="fill: #87ceeb"/>
   </g>
   <g id="patch_65">
    <path d="M 387.290377 354.958125 
L 391.710179 354.958125 
L 391.710179 52.558125 
L 387.290377 52.558125 
z
" clip-path="url(#p6a04f277c7)" style="fill: #87ceeb"/>
   </g>
   <g id="patch_66">
    <path d="M 392.81513 354.958125 
L 397.234932 354.958125 
L 397.234932 52.558125 
L 392.81513 52.558125 
z
" clip-path="url(#p6a04f277c7)" style="fill: #87ceeb"/>
   </g>
   <g id="patch_67">
    <path d="M 398.339882 354.958125 
L 402.759684 354.958125 
L 402.759684 52.558125 
L 398.339882 52.558125 
z
" clip-path="url(#p6a04f277c7)" style="fill: #87ceeb"/>
   </g>
   <g id="patch_68">
    <path d="M 403.864635 354.958125 
L 408.284437 354.958125 
L 408.284437 52.558125 
L 403.864635 52.558125 
z
" clip-path="url(#p6a04f277c7)" style="fill: #87ceeb"/>
   </g>
   <g id="patch_69">
    <path d="M 409.389387 354.958125 
L 413.809189 354.958125 
L 413.809189 52.558125 
L 409.389387 52.558125 
z
" clip-path="url(#p6a04f277c7)" style="fill: #87ceeb"/>
   </g>
   <g id="patch_70">
    <path d="M 414.91414 354.958125 
L 419.333942 354.958125 
L 419.333942 52.558125 
L 414.91414 52.558125 
z
" clip-path="url(#p6a04f277c7)" style="fill: #87ceeb"/>
   </g>
   <g id="patch_71">
    <path d="M 420.438892 354.958125 
L 424.858694 354.958125 
L 424.858694 52.558125 
L 420.438892 52.558125 
z
" clip-path="url(#p6a04f277c7)" style="fill: #87ceeb"/>
   </g>
   <g id="patch_72">
    <path d="M 425.963645 354.958125 
L 430.383447 354.958125 
L 430.383447 52.558125 
L 425.963645 52.558125 
z
" clip-path="url(#p6a04f277c7)" style="fill: #87ceeb"/>
   </g>
   <g id="patch_73">
    <path d="M 431.488397 354.958125 
L 435.908199 354.958125 
L 435.908199 52.558125 
L 431.488397 52.558125 
z
" clip-path="url(#p6a04f277c7)" style="fill: #87ceeb"/>
   </g>
   <g id="patch_74">
    <path d="M 437.01315 354.958125 
L 441.432952 354.958125 
L 441.432952 52.558125 
L 437.01315 52.558125 
z
" clip-path="url(#p6a04f277c7)" style="fill: #87ceeb"/>
   </g>
   <g id="patch_75">
    <path d="M 442.537902 354.958125 
L 446.957704 354.958125 
L 446.957704 52.558125 
L 442.537902 52.558125 
z
" clip-path="url(#p6a04f277c7)" style="fill: #87ceeb"/>
   </g>
   <g id="patch_76">
    <path d="M 448.062655 354.958125 
L 452.482457 354.958125 
L 452.482457 52.558125 
L 448.062655 52.558125 
z
" clip-path="url(#p6a04f277c7)" style="fill: #87ceeb"/>
   </g>
   <g id="patch_77">
    <path d="M 453.587407 354.958125 
L 458.007209 354.958125 
L 458.007209 52.558125 
L 453.587407 52.558125 
z
" clip-path="url(#p6a04f277c7)" style="fill: #87ceeb"/>
   </g>
   <g id="patch_78">
    <path d="M 459.11216 354.958125 
L 463.531962 354.958125 
L 463.531962 52.558125 
L 459.11216 52.558125 
z
" clip-path="url(#p6a04f277c7)" style="fill: #87ceeb"/>
   </g>
   <g id="patch_79">
    <path d="M 464.636912 354.958125 
L 469.056714 354.958125 
L 469.056714 52.558125 
L 464.636912 52.558125 
z
" clip-path="url(#p6a04f277c7)" style="fill: #87ceeb"/>
   </g>
   <g id="patch_80">
    <path d="M 470.161665 354.958125 
L 474.581467 354.958125 
L 474.581467 52.558125 
L 470.161665 52.558125 
z
" clip-path="url(#p6a04f277c7)" style="fill: #87ceeb"/>
   </g>
   <g id="patch_81">
    <path d="M 475.686417 354.958125 
L 480.106219 354.958125 
L 480.106219 52.558125 
L 475.686417 52.558125 
z
" clip-path="url(#p6a04f277c7)" style="fill: #87ceeb"/>
   </g>
   <g id="patch_82">
    <path d="M 481.21117 354.958125 
L 485.630972 354.958125 
L 485.630972 52.558125 
L 481.21117 52.558125 
z
" clip-path="url(#p6a04f277c7)" style="fill: #87ceeb"/>
   </g>
   <g id="patch_83">
    <path d="M 486.735922 354.958125 
L 491.155724 354.958125 
L 491.155724 52.558125 
L 486.735922 52.558125 
z
" clip-path="url(#p6a04f277c7)" style="fill: #87ceeb"/>
   </g>
   <g id="patch_84">
    <path d="M 492.260675 354.958125 
L 496.680476 354.958125 
L 496.680476 52.558125 
L 492.260675 52.558125 
z
" clip-path="url(#p6a04f277c7)" style="fill: #87ceeb"/>
   </g>
   <g id="patch_85">
    <path d="M 497.785427 354.958125 
L 502.205229 354.958125 
L 502.205229 52.558125 
L 497.785427 52.558125 
z
" clip-path="url(#p6a04f277c7)" style="fill: #87ceeb"/>
   </g>
   <g id="patch_86">
    <path d="M 503.310179 354.958125 
L 507.729981 354.958125 
L 507.729981 52.558125 
L 503.310179 52.558125 
z
" clip-path="url(#p6a04f277c7)" style="fill: #87ceeb"/>
   </g>
   <g id="patch_87">
    <path d="M 508.834932 354.958125 
L 513.254734 354.958125 
L 513.254734 52.558125 
L 508.834932 52.558125 
z
" clip-path="url(#p6a04f277c7)" style="fill: #87ceeb"/>
   </g>
   <g id="patch_88">
    <path d="M 514.359684 354.958125 
L 518.779486 354.958125 
L 518.779486 52.558125 
L 514.359684 52.558125 
z
" clip-path="url(#p6a04f277c7)" style="fill: #87ceeb"/>
   </g>
   <g id="patch_89">
    <path d="M 519.884437 354.958125 
L 524.304239 354.958125 
L 524.304239 52.558125 
L 519.884437 52.558125 
z
" clip-path="url(#p6a04f277c7)" style="fill: #87ceeb"/>
   </g>
   <g id="patch_90">
    <path d="M 525.409189 354.958125 
L 529.828991 354.958125 
L 529.828991 52.558125 
L 525.409189 52.558125 
z
" clip-path="url(#p6a04f277c7)" style="fill: #87ceeb"/>
   </g>
   <g id="patch_91">
    <path d="M 530.933942 354.958125 
L 535.353744 354.958125 
L 535.353744 52.558125 
L 530.933942 52.558125 
z
" clip-path="url(#p6a04f277c7)" style="fill: #87ceeb"/>
   </g>
   <g id="patch_92">
    <path d="M 536.458694 354.958125 
L 540.878496 354.958125 
L 540.878496 52.558125 
L 536.458694 52.558125 
z
" clip-path="url(#p6a04f277c7)" style="fill: #87ceeb"/>
   </g>
   <g id="patch_93">
    <path d="M 541.983447 354.958125 
L 546.403249 354.958125 
L 546.403249 52.558125 
L 541.983447 52.558125 
z
" clip-path="url(#p6a04f277c7)" style="fill: #87ceeb"/>
   </g>
   <g id="patch_94">
    <path d="M 547.508199 354.958125 
L 551.928001 354.958125 
L 551.928001 52.558125 
L 547.508199 52.558125 
z
" clip-path="url(#p6a04f277c7)" style="fill: #87ceeb"/>
   </g>
   <g id="patch_95">
    <path d="M 553.032952 354.958125 
L 557.452754 354.958125 
L 557.452754 52.558125 
L 553.032952 52.558125 
z
" clip-path="url(#p6a04f277c7)" style="fill: #87ceeb"/>
   </g>
   <g id="patch_96">
    <path d="M 558.557704 354.958125 
L 562.977506 354.958125 
L 562.977506 52.558125 
L 558.557704 52.558125 
z
" clip-path="url(#p6a04f277c7)" style="fill: #87ceeb"/>
   </g>
   <g id="patch_97">
    <path d="M 564.082457 354.958125 
L 568.502259 354.958125 
L 568.502259 52.558125 
L 564.082457 52.558125 
z
" clip-path="url(#p6a04f277c7)" style="fill: #87ceeb"/>
   </g>
   <g id="patch_98">
    <path d="M 569.607209 354.958125 
L 574.027011 354.958125 
L 574.027011 52.558125 
L 569.607209 52.558125 
z
" clip-path="url(#p6a04f277c7)" style="fill: #87ceeb"/>
   </g>
   <g id="patch_99">
    <path d="M 575.131962 354.958125 
L 579.551764 354.958125 
L 579.551764 52.558125 
L 575.131962 52.558125 
z
" clip-path="url(#p6a04f277c7)" style="fill: #87ceeb"/>
   </g>
   <g id="patch_100">
    <path d="M 580.656714 354.958125 
L 585.076516 354.958125 
L 585.076516 52.558125 
L 580.656714 52.558125 
z
" clip-path="url(#p6a04f277c7)" style="fill: #87ceeb"/>
   </g>
   <g id="patch_101">
    <path d="M 586.181467 354.958125 
L 590.601269 354.958125 
L 590.601269 52.558125 
L 586.181467 52.558125 
z
" clip-path="url(#p6a04f277c7)" style="fill: #87ceeb"/>
   </g>
   <g id="patch_102">
    <path d="M 591.706219 354.958125 
L 596.126021 354.958125 
L 596.126021 52.558125 
L 591.706219 52.558125 
z
" clip-path="url(#p6a04f277c7)" style="fill: #87ceeb"/>
   </g>
   <g id="patch_103">
    <path d="M 597.230972 354.958125 
L 601.650774 354.958125 
L 601.650774 52.558125 
L 597.230972 52.558125 
z
" clip-path="url(#p6a04f277c7)" style="fill: #87ceeb"/>
   </g>
   <g id="matplotlib.axis_1">
    <g id="xtick_1">
     <g id="line2d_1">
      <path d="M 46.965625 354.958125 
L 46.965625 22.318125 
" clip-path="url(#p6a04f277c7)" style="fill: none; stroke-dasharray: 2.96,1.28; stroke-dashoffset: 0; stroke: #b0b0b0; stroke-opacity: 0.7; stroke-width: 0.8"/>
     </g>
     <g id="line2d_2">
      <defs>
       <path id="mc2dee7b196" d="M 0 0 
L 0 3.5 
" style="stroke: #000000; stroke-width: 0.8"/>
      </defs>
      <g>
       <use xlink:href="#mc2dee7b196" x="46.965625" y="354.958125" style="stroke: #000000; stroke-width: 0.8"/>
      </g>
     </g>
     <g id="text_1">
      <!-- 0 -->
      <g transform="translate(43.784375 369.556562) scale(0.1 -0.1)">
       <defs>
        <path id="DejaVuSans-30" d="M 2034 4250 
Q 1547 4250 1301 3770 
Q 1056 3291 1056 2328 
Q 1056 1369 1301 889 
Q 1547 409 2034 409 
Q 2525 409 2770 889 
Q 3016 1369 3016 2328 
Q 3016 3291 2770 3770 
Q 2525 4250 2034 4250 
z
M 2034 4750 
Q 2819 4750 3233 4129 
Q 3647 3509 3647 2328 
Q 3647 1150 3233 529 
Q 2819 -91 2034 -91 
Q 1250 -91 836 529 
Q 422 1150 422 2328 
Q 422 3509 836 4129 
Q 1250 4750 2034 4750 
z
" transform="scale(0.015625)"/>
       </defs>
       <use xlink:href="#DejaVuSans-30"/>
      </g>
     </g>
    </g>
    <g id="xtick_2">
     <g id="line2d_3">
      <path d="M 157.460675 354.958125 
L 157.460675 22.318125 
" clip-path="url(#p6a04f277c7)" style="fill: none; stroke-dasharray: 2.96,1.28; stroke-dashoffset: 0; stroke: #b0b0b0; stroke-opacity: 0.7; stroke-width: 0.8"/>
     </g>
     <g id="line2d_4">
      <g>
       <use xlink:href="#mc2dee7b196" x="157.460675" y="354.958125" style="stroke: #000000; stroke-width: 0.8"/>
      </g>
     </g>
     <g id="text_2">
      <!-- 20 -->
      <g transform="translate(151.098175 369.556562) scale(0.1 -0.1)">
       <defs>
        <path id="DejaVuSans-32" d="M 1228 531 
L 3431 531 
L 3431 0 
L 469 0 
L 469 531 
Q 828 903 1448 1529 
Q 2069 2156 2228 2338 
Q 2531 2678 2651 2914 
Q 2772 3150 2772 3378 
Q 2772 3750 2511 3984 
Q 2250 4219 1831 4219 
Q 1534 4219 1204 4116 
Q 875 4013 500 3803 
L 500 4441 
Q 881 4594 1212 4672 
Q 1544 4750 1819 4750 
Q 2544 4750 2975 4387 
Q 3406 4025 3406 3419 
Q 3406 3131 3298 2873 
Q 3191 2616 2906 2266 
Q 2828 2175 2409 1742 
Q 1991 1309 1228 531 
z
" transform="scale(0.015625)"/>
       </defs>
       <use xlink:href="#DejaVuSans-32"/>
       <use xlink:href="#DejaVuSans-30" transform="translate(63.623047 0)"/>
      </g>
     </g>
    </g>
    <g id="xtick_3">
     <g id="line2d_5">
      <path d="M 267.955724 354.958125 
L 267.955724 22.318125 
" clip-path="url(#p6a04f277c7)" style="fill: none; stroke-dasharray: 2.96,1.28; stroke-dashoffset: 0; stroke: #b0b0b0; stroke-opacity: 0.7; stroke-width: 0.8"/>
     </g>
     <g id="line2d_6">
      <g>
       <use xlink:href="#mc2dee7b196" x="267.955724" y="354.958125" style="stroke: #000000; stroke-width: 0.8"/>
      </g>
     </g>
     <g id="text_3">
      <!-- 40 -->
      <g transform="translate(261.593224 369.556562) scale(0.1 -0.1)">
       <defs>
        <path id="DejaVuSans-34" d="M 2419 4116 
L 825 1625 
L 2419 1625 
L 2419 4116 
z
M 2253 4666 
L 3047 4666 
L 3047 1625 
L 3713 1625 
L 3713 1100 
L 3047 1100 
L 3047 0 
L 2419 0 
L 2419 1100 
L 313 1100 
L 313 1709 
L 2253 4666 
z
" transform="scale(0.015625)"/>
       </defs>
       <use xlink:href="#DejaVuSans-34"/>
       <use xlink:href="#DejaVuSans-30" transform="translate(63.623047 0)"/>
      </g>
     </g>
    </g>
    <g id="xtick_4">
     <g id="line2d_7">
      <path d="M 378.450774 354.958125 
L 378.450774 22.318125 
" clip-path="url(#p6a04f277c7)" style="fill: none; stroke-dasharray: 2.96,1.28; stroke-dashoffset: 0; stroke: #b0b0b0; stroke-opacity: 0.7; stroke-width: 0.8"/>
     </g>
     <g id="line2d_8">
      <g>
       <use xlink:href="#mc2dee7b196" x="378.450774" y="354.958125" style="stroke: #000000; stroke-width: 0.8"/>
      </g>
     </g>
     <g id="text_4">
      <!-- 60 -->
      <g transform="translate(372.088274 369.556562) scale(0.1 -0.1)">
       <defs>
        <path id="DejaVuSans-36" d="M 2113 2584 
Q 1688 2584 1439 2293 
Q 1191 2003 1191 1497 
Q 1191 994 1439 701 
Q 1688 409 2113 409 
Q 2538 409 2786 701 
Q 3034 994 3034 1497 
Q 3034 2003 2786 2293 
Q 2538 2584 2113 2584 
z
M 3366 4563 
L 3366 3988 
Q 3128 4100 2886 4159 
Q 2644 4219 2406 4219 
Q 1781 4219 1451 3797 
Q 1122 3375 1075 2522 
Q 1259 2794 1537 2939 
Q 1816 3084 2150 3084 
Q 2853 3084 3261 2657 
Q 3669 2231 3669 1497 
Q 3669 778 3244 343 
Q 2819 -91 2113 -91 
Q 1303 -91 875 529 
Q 447 1150 447 2328 
Q 447 3434 972 4092 
Q 1497 4750 2381 4750 
Q 2619 4750 2861 4703 
Q 3103 4656 3366 4563 
z
" transform="scale(0.015625)"/>
       </defs>
       <use xlink:href="#DejaVuSans-36"/>
       <use xlink:href="#DejaVuSans-30" transform="translate(63.623047 0)"/>
      </g>
     </g>
    </g>
    <g id="xtick_5">
     <g id="line2d_9">
      <path d="M 488.945823 354.958125 
L 488.945823 22.318125 
" clip-path="url(#p6a04f277c7)" style="fill: none; stroke-dasharray: 2.96,1.28; stroke-dashoffset: 0; stroke: #b0b0b0; stroke-opacity: 0.7; stroke-width: 0.8"/>
     </g>
     <g id="line2d_10">
      <g>
       <use xlink:href="#mc2dee7b196" x="488.945823" y="354.958125" style="stroke: #000000; stroke-width: 0.8"/>
      </g>
     </g>
     <g id="text_5">
      <!-- 80 -->
      <g transform="translate(482.583323 369.556562) scale(0.1 -0.1)">
       <defs>
        <path id="DejaVuSans-38" d="M 2034 2216 
Q 1584 2216 1326 1975 
Q 1069 1734 1069 1313 
Q 1069 891 1326 650 
Q 1584 409 2034 409 
Q 2484 409 2743 651 
Q 3003 894 3003 1313 
Q 3003 1734 2745 1975 
Q 2488 2216 2034 2216 
z
M 1403 2484 
Q 997 2584 770 2862 
Q 544 3141 544 3541 
Q 544 4100 942 4425 
Q 1341 4750 2034 4750 
Q 2731 4750 3128 4425 
Q 3525 4100 3525 3541 
Q 3525 3141 3298 2862 
Q 3072 2584 2669 2484 
Q 3125 2378 3379 2068 
Q 3634 1759 3634 1313 
Q 3634 634 3220 271 
Q 2806 -91 2034 -91 
Q 1263 -91 848 271 
Q 434 634 434 1313 
Q 434 1759 690 2068 
Q 947 2378 1403 2484 
z
M 1172 3481 
Q 1172 3119 1398 2916 
Q 1625 2713 2034 2713 
Q 2441 2713 2670 2916 
Q 2900 3119 2900 3481 
Q 2900 3844 2670 4047 
Q 2441 4250 2034 4250 
Q 1625 4250 1398 4047 
Q 1172 3844 1172 3481 
z
" transform="scale(0.015625)"/>
       </defs>
       <use xlink:href="#DejaVuSans-38"/>
       <use xlink:href="#DejaVuSans-30" transform="translate(63.623047 0)"/>
      </g>
     </g>
    </g>
    <g id="xtick_6">
     <g id="line2d_11">
      <path d="M 599.440873 354.958125 
L 599.440873 22.318125 
" clip-path="url(#p6a04f277c7)" style="fill: none; stroke-dasharray: 2.96,1.28; stroke-dashoffset: 0; stroke: #b0b0b0; stroke-opacity: 0.7; stroke-width: 0.8"/>
     </g>
     <g id="line2d_12">
      <g>
       <use xlink:href="#mc2dee7b196" x="599.440873" y="354.958125" style="stroke: #000000; stroke-width: 0.8"/>
      </g>
     </g>
     <g id="text_6">
      <!-- 100 -->
      <g transform="translate(589.897123 369.556562) scale(0.1 -0.1)">
       <defs>
        <path id="DejaVuSans-31" d="M 794 531 
L 1825 531 
L 1825 4091 
L 703 3866 
L 703 4441 
L 1819 4666 
L 2450 4666 
L 2450 531 
L 3481 531 
L 3481 0 
L 794 0 
L 794 531 
z
" transform="scale(0.015625)"/>
       </defs>
       <use xlink:href="#DejaVuSans-31"/>
       <use xlink:href="#DejaVuSans-30" transform="translate(63.623047 0)"/>
       <use xlink:href="#DejaVuSans-30" transform="translate(127.246094 0)"/>
      </g>
     </g>
    </g>
    <g id="text_7">
     <!-- Hill Coefficient (d) -->
     <g transform="translate(280.903906 383.234687) scale(0.1 -0.1)">
      <defs>
       <path id="DejaVuSans-48" d="M 628 4666 
L 1259 4666 
L 1259 2753 
L 3553 2753 
L 3553 4666 
L 4184 4666 
L 4184 0 
L 3553 0 
L 3553 2222 
L 1259 2222 
L 1259 0 
L 628 0 
L 628 4666 
z
" transform="scale(0.015625)"/>
       <path id="DejaVuSans-69" d="M 603 3500 
L 1178 3500 
L 1178 0 
L 603 0 
L 603 3500 
z
M 603 4863 
L 1178 4863 
L 1178 4134 
L 603 4134 
L 603 4863 
z
" transform="scale(0.015625)"/>
       <path id="DejaVuSans-6c" d="M 603 4863 
L 1178 4863 
L 1178 0 
L 603 0 
L 603 4863 
z
" transform="scale(0.015625)"/>
       <path id="DejaVuSans-20" transform="scale(0.015625)"/>
       <path id="DejaVuSans-43" d="M 4122 4306 
L 4122 3641 
Q 3803 3938 3442 4084 
Q 3081 4231 2675 4231 
Q 1875 4231 1450 3742 
Q 1025 3253 1025 2328 
Q 1025 1406 1450 917 
Q 1875 428 2675 428 
Q 3081 428 3442 575 
Q 3803 722 4122 1019 
L 4122 359 
Q 3791 134 3420 21 
Q 3050 -91 2638 -91 
Q 1578 -91 968 557 
Q 359 1206 359 2328 
Q 359 3453 968 4101 
Q 1578 4750 2638 4750 
Q 3056 4750 3426 4639 
Q 3797 4528 4122 4306 
z
" transform="scale(0.015625)"/>
       <path id="DejaVuSans-6f" d="M 1959 3097 
Q 1497 3097 1228 2736 
Q 959 2375 959 1747 
Q 959 1119 1226 758 
Q 1494 397 1959 397 
Q 2419 397 2687 759 
Q 2956 1122 2956 1747 
Q 2956 2369 2687 2733 
Q 2419 3097 1959 3097 
z
M 1959 3584 
Q 2709 3584 3137 3096 
Q 3566 2609 3566 1747 
Q 3566 888 3137 398 
Q 2709 -91 1959 -91 
Q 1206 -91 779 398 
Q 353 888 353 1747 
Q 353 2609 779 3096 
Q 1206 3584 1959 3584 
z
" transform="scale(0.015625)"/>
       <path id="DejaVuSans-65" d="M 3597 1894 
L 3597 1613 
L 953 1613 
Q 991 1019 1311 708 
Q 1631 397 2203 397 
Q 2534 397 2845 478 
Q 3156 559 3463 722 
L 3463 178 
Q 3153 47 2828 -22 
Q 2503 -91 2169 -91 
Q 1331 -91 842 396 
Q 353 884 353 1716 
Q 353 2575 817 3079 
Q 1281 3584 2069 3584 
Q 2775 3584 3186 3129 
Q 3597 2675 3597 1894 
z
M 3022 2063 
Q 3016 2534 2758 2815 
Q 2500 3097 2075 3097 
Q 1594 3097 1305 2825 
Q 1016 2553 972 2059 
L 3022 2063 
z
" transform="scale(0.015625)"/>
       <path id="DejaVuSans-66" d="M 2375 4863 
L 2375 4384 
L 1825 4384 
Q 1516 4384 1395 4259 
Q 1275 4134 1275 3809 
L 1275 3500 
L 2222 3500 
L 2222 3053 
L 1275 3053 
L 1275 0 
L 697 0 
L 697 3053 
L 147 3053 
L 147 3500 
L 697 3500 
L 697 3744 
Q 697 4328 969 4595 
Q 1241 4863 1831 4863 
L 2375 4863 
z
" transform="scale(0.015625)"/>
       <path id="DejaVuSans-63" d="M 3122 3366 
L 3122 2828 
Q 2878 2963 2633 3030 
Q 2388 3097 2138 3097 
Q 1578 3097 1268 2742 
Q 959 2388 959 1747 
Q 959 1106 1268 751 
Q 1578 397 2138 397 
Q 2388 397 2633 464 
Q 2878 531 3122 666 
L 3122 134 
Q 2881 22 2623 -34 
Q 2366 -91 2075 -91 
Q 1284 -91 818 406 
Q 353 903 353 1747 
Q 353 2603 823 3093 
Q 1294 3584 2113 3584 
Q 2378 3584 2631 3529 
Q 2884 3475 3122 3366 
z
" transform="scale(0.015625)"/>
       <path id="DejaVuSans-6e" d="M 3513 2113 
L 3513 0 
L 2938 0 
L 2938 2094 
Q 2938 2591 2744 2837 
Q 2550 3084 2163 3084 
Q 1697 3084 1428 2787 
Q 1159 2491 1159 1978 
L 1159 0 
L 581 0 
L 581 3500 
L 1159 3500 
L 1159 2956 
Q 1366 3272 1645 3428 
Q 1925 3584 2291 3584 
Q 2894 3584 3203 3211 
Q 3513 2838 3513 2113 
z
" transform="scale(0.015625)"/>
       <path id="DejaVuSans-74" d="M 1172 4494 
L 1172 3500 
L 2356 3500 
L 2356 3053 
L 1172 3053 
L 1172 1153 
Q 1172 725 1289 603 
Q 1406 481 1766 481 
L 2356 481 
L 2356 0 
L 1766 0 
Q 1100 0 847 248 
Q 594 497 594 1153 
L 594 3053 
L 172 3053 
L 172 3500 
L 594 3500 
L 594 4494 
L 1172 4494 
z
" transform="scale(0.015625)"/>
       <path id="DejaVuSans-28" d="M 1984 4856 
Q 1566 4138 1362 3434 
Q 1159 2731 1159 2009 
Q 1159 1288 1364 580 
Q 1569 -128 1984 -844 
L 1484 -844 
Q 1016 -109 783 600 
Q 550 1309 550 2009 
Q 550 2706 781 3412 
Q 1013 4119 1484 4856 
L 1984 4856 
z
" transform="scale(0.015625)"/>
       <path id="DejaVuSans-64" d="M 2906 2969 
L 2906 4863 
L 3481 4863 
L 3481 0 
L 2906 0 
L 2906 525 
Q 2725 213 2448 61 
Q 2172 -91 1784 -91 
Q 1150 -91 751 415 
Q 353 922 353 1747 
Q 353 2572 751 3078 
Q 1150 3584 1784 3584 
Q 2172 3584 2448 3432 
Q 2725 3281 2906 2969 
z
M 947 1747 
Q 947 1113 1208 752 
Q 1469 391 1925 391 
Q 2381 391 2643 752 
Q 2906 1113 2906 1747 
Q 2906 2381 2643 2742 
Q 2381 3103 1925 3103 
Q 1469 3103 1208 2742 
Q 947 2381 947 1747 
z
" transform="scale(0.015625)"/>
       <path id="DejaVuSans-29" d="M 513 4856 
L 1013 4856 
Q 1481 4119 1714 3412 
Q 1947 2706 1947 2009 
Q 1947 1309 1714 600 
Q 1481 -109 1013 -844 
L 513 -844 
Q 928 -128 1133 580 
Q 1338 1288 1338 2009 
Q 1338 2731 1133 3434 
Q 928 4138 513 4856 
z
" transform="scale(0.015625)"/>
      </defs>
      <use xlink:href="#DejaVuSans-48"/>
      <use xlink:href="#DejaVuSans-69" transform="translate(75.195312 0)"/>
      <use xlink:href="#DejaVuSans-6c" transform="translate(102.978516 0)"/>
      <use xlink:href="#DejaVuSans-6c" transform="translate(130.761719 0)"/>
      <use xlink:href="#DejaVuSans-20" transform="translate(158.544922 0)"/>
      <use xlink:href="#DejaVuSans-43" transform="translate(190.332031 0)"/>
      <use xlink:href="#DejaVuSans-6f" transform="translate(260.15625 0)"/>
      <use xlink:href="#DejaVuSans-65" transform="translate(321.337891 0)"/>
      <use xlink:href="#DejaVuSans-66" transform="translate(382.861328 0)"/>
      <use xlink:href="#DejaVuSans-66" transform="translate(418.066406 0)"/>
      <use xlink:href="#DejaVuSans-69" transform="translate(453.271484 0)"/>
      <use xlink:href="#DejaVuSans-63" transform="translate(481.054688 0)"/>
      <use xlink:href="#DejaVuSans-69" transform="translate(536.035156 0)"/>
      <use xlink:href="#DejaVuSans-65" transform="translate(563.818359 0)"/>
      <use xlink:href="#DejaVuSans-6e" transform="translate(625.341797 0)"/>
      <use xlink:href="#DejaVuSans-74" transform="translate(688.720703 0)"/>
      <use xlink:href="#DejaVuSans-20" transform="translate(727.929688 0)"/>
      <use xlink:href="#DejaVuSans-28" transform="translate(759.716797 0)"/>
      <use xlink:href="#DejaVuSans-64" transform="translate(798.730469 0)"/>
      <use xlink:href="#DejaVuSans-29" transform="translate(862.207031 0)"/>
     </g>
    </g>
   </g>
   <g id="matplotlib.axis_2">
    <g id="ytick_1">
     <g id="line2d_13">
      <path d="M 46.965625 354.958125 
L 604.965625 354.958125 
" clip-path="url(#p6a04f277c7)" style="fill: none; stroke-dasharray: 2.96,1.28; stroke-dashoffset: 0; stroke: #b0b0b0; stroke-opacity: 0.7; stroke-width: 0.8"/>
     </g>
     <g id="line2d_14">
      <defs>
       <path id="m85500b004f" d="M 0 0 
L -3.5 0 
" style="stroke: #000000; stroke-width: 0.8"/>
      </defs>
      <g>
       <use xlink:href="#m85500b004f" x="46.965625" y="354.958125" style="stroke: #000000; stroke-width: 0.8"/>
      </g>
     </g>
     <g id="text_8">
      <!-- 0 -->
      <g transform="translate(33.603125 358.757344) scale(0.1 -0.1)">
       <use xlink:href="#DejaVuSans-30"/>
      </g>
     </g>
    </g>
    <g id="ytick_2">
     <g id="line2d_15">
      <path d="M 46.965625 294.478125 
L 604.965625 294.478125 
" clip-path="url(#p6a04f277c7)" style="fill: none; stroke-dasharray: 2.96,1.28; stroke-dashoffset: 0; stroke: #b0b0b0; stroke-opacity: 0.7; stroke-width: 0.8"/>
     </g>
     <g id="line2d_16">
      <g>
       <use xlink:href="#m85500b004f" x="46.965625" y="294.478125" style="stroke: #000000; stroke-width: 0.8"/>
      </g>
     </g>
     <g id="text_9">
      <!-- 20 -->
      <g transform="translate(27.240625 298.277344) scale(0.1 -0.1)">
       <use xlink:href="#DejaVuSans-32"/>
       <use xlink:href="#DejaVuSans-30" transform="translate(63.623047 0)"/>
      </g>
     </g>
    </g>
    <g id="ytick_3">
     <g id="line2d_17">
      <path d="M 46.965625 233.998125 
L 604.965625 233.998125 
" clip-path="url(#p6a04f277c7)" style="fill: none; stroke-dasharray: 2.96,1.28; stroke-dashoffset: 0; stroke: #b0b0b0; stroke-opacity: 0.7; stroke-width: 0.8"/>
     </g>
     <g id="line2d_18">
      <g>
       <use xlink:href="#m85500b004f" x="46.965625" y="233.998125" style="stroke: #000000; stroke-width: 0.8"/>
      </g>
     </g>
     <g id="text_10">
      <!-- 40 -->
      <g transform="translate(27.240625 237.797344) scale(0.1 -0.1)">
       <use xlink:href="#DejaVuSans-34"/>
       <use xlink:href="#DejaVuSans-30" transform="translate(63.623047 0)"/>
      </g>
     </g>
    </g>
    <g id="ytick_4">
     <g id="line2d_19">
      <path d="M 46.965625 173.518125 
L 604.965625 173.518125 
" clip-path="url(#p6a04f277c7)" style="fill: none; stroke-dasharray: 2.96,1.28; stroke-dashoffset: 0; stroke: #b0b0b0; stroke-opacity: 0.7; stroke-width: 0.8"/>
     </g>
     <g id="line2d_20">
      <g>
       <use xlink:href="#m85500b004f" x="46.965625" y="173.518125" style="stroke: #000000; stroke-width: 0.8"/>
      </g>
     </g>
     <g id="text_11">
      <!-- 60 -->
      <g transform="translate(27.240625 177.317344) scale(0.1 -0.1)">
       <use xlink:href="#DejaVuSans-36"/>
       <use xlink:href="#DejaVuSans-30" transform="translate(63.623047 0)"/>
      </g>
     </g>
    </g>
    <g id="ytick_5">
     <g id="line2d_21">
      <path d="M 46.965625 113.038125 
L 604.965625 113.038125 
" clip-path="url(#p6a04f277c7)" style="fill: none; stroke-dasharray: 2.96,1.28; stroke-dashoffset: 0; stroke: #b0b0b0; stroke-opacity: 0.7; stroke-width: 0.8"/>
     </g>
     <g id="line2d_22">
      <g>
       <use xlink:href="#m85500b004f" x="46.965625" y="113.038125" style="stroke: #000000; stroke-width: 0.8"/>
      </g>
     </g>
     <g id="text_12">
      <!-- 80 -->
      <g transform="translate(27.240625 116.837344) scale(0.1 -0.1)">
       <use xlink:href="#DejaVuSans-38"/>
       <use xlink:href="#DejaVuSans-30" transform="translate(63.623047 0)"/>
      </g>
     </g>
    </g>
    <g id="ytick_6">
     <g id="line2d_23">
      <path d="M 46.965625 52.558125 
L 604.965625 52.558125 
" clip-path="url(#p6a04f277c7)" style="fill: none; stroke-dasharray: 2.96,1.28; stroke-dashoffset: 0; stroke: #b0b0b0; stroke-opacity: 0.7; stroke-width: 0.8"/>
     </g>
     <g id="line2d_24">
      <g>
       <use xlink:href="#m85500b004f" x="46.965625" y="52.558125" style="stroke: #000000; stroke-width: 0.8"/>
      </g>
     </g>
     <g id="text_13">
      <!-- 100 -->
      <g transform="translate(20.878125 56.357344) scale(0.1 -0.1)">
       <use xlink:href="#DejaVuSans-31"/>
       <use xlink:href="#DejaVuSans-30" transform="translate(63.623047 0)"/>
       <use xlink:href="#DejaVuSans-30" transform="translate(127.246094 0)"/>
      </g>
     </g>
    </g>
    <g id="text_14">
     <!-- Matching Success (%) -->
     <g transform="translate(14.798438 243.584219) rotate(-90) scale(0.1 -0.1)">
      <defs>
       <path id="DejaVuSans-4d" d="M 628 4666 
L 1569 4666 
L 2759 1491 
L 3956 4666 
L 4897 4666 
L 4897 0 
L 4281 0 
L 4281 4097 
L 3078 897 
L 2444 897 
L 1241 4097 
L 1241 0 
L 628 0 
L 628 4666 
z
" transform="scale(0.015625)"/>
       <path id="DejaVuSans-61" d="M 2194 1759 
Q 1497 1759 1228 1600 
Q 959 1441 959 1056 
Q 959 750 1161 570 
Q 1363 391 1709 391 
Q 2188 391 2477 730 
Q 2766 1069 2766 1631 
L 2766 1759 
L 2194 1759 
z
M 3341 1997 
L 3341 0 
L 2766 0 
L 2766 531 
Q 2569 213 2275 61 
Q 1981 -91 1556 -91 
Q 1019 -91 701 211 
Q 384 513 384 1019 
Q 384 1609 779 1909 
Q 1175 2209 1959 2209 
L 2766 2209 
L 2766 2266 
Q 2766 2663 2505 2880 
Q 2244 3097 1772 3097 
Q 1472 3097 1187 3025 
Q 903 2953 641 2809 
L 641 3341 
Q 956 3463 1253 3523 
Q 1550 3584 1831 3584 
Q 2591 3584 2966 3190 
Q 3341 2797 3341 1997 
z
" transform="scale(0.015625)"/>
       <path id="DejaVuSans-68" d="M 3513 2113 
L 3513 0 
L 2938 0 
L 2938 2094 
Q 2938 2591 2744 2837 
Q 2550 3084 2163 3084 
Q 1697 3084 1428 2787 
Q 1159 2491 1159 1978 
L 1159 0 
L 581 0 
L 581 4863 
L 1159 4863 
L 1159 2956 
Q 1366 3272 1645 3428 
Q 1925 3584 2291 3584 
Q 2894 3584 3203 3211 
Q 3513 2838 3513 2113 
z
" transform="scale(0.015625)"/>
       <path id="DejaVuSans-67" d="M 2906 1791 
Q 2906 2416 2648 2759 
Q 2391 3103 1925 3103 
Q 1463 3103 1205 2759 
Q 947 2416 947 1791 
Q 947 1169 1205 825 
Q 1463 481 1925 481 
Q 2391 481 2648 825 
Q 2906 1169 2906 1791 
z
M 3481 434 
Q 3481 -459 3084 -895 
Q 2688 -1331 1869 -1331 
Q 1566 -1331 1297 -1286 
Q 1028 -1241 775 -1147 
L 775 -588 
Q 1028 -725 1275 -790 
Q 1522 -856 1778 -856 
Q 2344 -856 2625 -561 
Q 2906 -266 2906 331 
L 2906 616 
Q 2728 306 2450 153 
Q 2172 0 1784 0 
Q 1141 0 747 490 
Q 353 981 353 1791 
Q 353 2603 747 3093 
Q 1141 3584 1784 3584 
Q 2172 3584 2450 3431 
Q 2728 3278 2906 2969 
L 2906 3500 
L 3481 3500 
L 3481 434 
z
" transform="scale(0.015625)"/>
       <path id="DejaVuSans-53" d="M 3425 4513 
L 3425 3897 
Q 3066 4069 2747 4153 
Q 2428 4238 2131 4238 
Q 1616 4238 1336 4038 
Q 1056 3838 1056 3469 
Q 1056 3159 1242 3001 
Q 1428 2844 1947 2747 
L 2328 2669 
Q 3034 2534 3370 2195 
Q 3706 1856 3706 1288 
Q 3706 609 3251 259 
Q 2797 -91 1919 -91 
Q 1588 -91 1214 -16 
Q 841 59 441 206 
L 441 856 
Q 825 641 1194 531 
Q 1563 422 1919 422 
Q 2459 422 2753 634 
Q 3047 847 3047 1241 
Q 3047 1584 2836 1778 
Q 2625 1972 2144 2069 
L 1759 2144 
Q 1053 2284 737 2584 
Q 422 2884 422 3419 
Q 422 4038 858 4394 
Q 1294 4750 2059 4750 
Q 2388 4750 2728 4690 
Q 3069 4631 3425 4513 
z
" transform="scale(0.015625)"/>
       <path id="DejaVuSans-75" d="M 544 1381 
L 544 3500 
L 1119 3500 
L 1119 1403 
Q 1119 906 1312 657 
Q 1506 409 1894 409 
Q 2359 409 2629 706 
Q 2900 1003 2900 1516 
L 2900 3500 
L 3475 3500 
L 3475 0 
L 2900 0 
L 2900 538 
Q 2691 219 2414 64 
Q 2138 -91 1772 -91 
Q 1169 -91 856 284 
Q 544 659 544 1381 
z
M 1991 3584 
L 1991 3584 
z
" transform="scale(0.015625)"/>
       <path id="DejaVuSans-73" d="M 2834 3397 
L 2834 2853 
Q 2591 2978 2328 3040 
Q 2066 3103 1784 3103 
Q 1356 3103 1142 2972 
Q 928 2841 928 2578 
Q 928 2378 1081 2264 
Q 1234 2150 1697 2047 
L 1894 2003 
Q 2506 1872 2764 1633 
Q 3022 1394 3022 966 
Q 3022 478 2636 193 
Q 2250 -91 1575 -91 
Q 1294 -91 989 -36 
Q 684 19 347 128 
L 347 722 
Q 666 556 975 473 
Q 1284 391 1588 391 
Q 1994 391 2212 530 
Q 2431 669 2431 922 
Q 2431 1156 2273 1281 
Q 2116 1406 1581 1522 
L 1381 1569 
Q 847 1681 609 1914 
Q 372 2147 372 2553 
Q 372 3047 722 3315 
Q 1072 3584 1716 3584 
Q 2034 3584 2315 3537 
Q 2597 3491 2834 3397 
z
" transform="scale(0.015625)"/>
       <path id="DejaVuSans-25" d="M 4653 2053 
Q 4381 2053 4226 1822 
Q 4072 1591 4072 1178 
Q 4072 772 4226 539 
Q 4381 306 4653 306 
Q 4919 306 5073 539 
Q 5228 772 5228 1178 
Q 5228 1588 5073 1820 
Q 4919 2053 4653 2053 
z
M 4653 2450 
Q 5147 2450 5437 2106 
Q 5728 1763 5728 1178 
Q 5728 594 5436 251 
Q 5144 -91 4653 -91 
Q 4153 -91 3862 251 
Q 3572 594 3572 1178 
Q 3572 1766 3864 2108 
Q 4156 2450 4653 2450 
z
M 1428 4353 
Q 1159 4353 1004 4120 
Q 850 3888 850 3481 
Q 850 3069 1003 2837 
Q 1156 2606 1428 2606 
Q 1700 2606 1854 2837 
Q 2009 3069 2009 3481 
Q 2009 3884 1853 4118 
Q 1697 4353 1428 4353 
z
M 4250 4750 
L 4750 4750 
L 1831 -91 
L 1331 -91 
L 4250 4750 
z
M 1428 4750 
Q 1922 4750 2215 4408 
Q 2509 4066 2509 3481 
Q 2509 2891 2217 2550 
Q 1925 2209 1428 2209 
Q 931 2209 642 2551 
Q 353 2894 353 3481 
Q 353 4063 643 4406 
Q 934 4750 1428 4750 
z
" transform="scale(0.015625)"/>
      </defs>
      <use xlink:href="#DejaVuSans-4d"/>
      <use xlink:href="#DejaVuSans-61" transform="translate(86.279297 0)"/>
      <use xlink:href="#DejaVuSans-74" transform="translate(147.558594 0)"/>
      <use xlink:href="#DejaVuSans-63" transform="translate(186.767578 0)"/>
      <use xlink:href="#DejaVuSans-68" transform="translate(241.748047 0)"/>
      <use xlink:href="#DejaVuSans-69" transform="translate(305.126953 0)"/>
      <use xlink:href="#DejaVuSans-6e" transform="translate(332.910156 0)"/>
      <use xlink:href="#DejaVuSans-67" transform="translate(396.289062 0)"/>
      <use xlink:href="#DejaVuSans-20" transform="translate(459.765625 0)"/>
      <use xlink:href="#DejaVuSans-53" transform="translate(491.552734 0)"/>
      <use xlink:href="#DejaVuSans-75" transform="translate(555.029297 0)"/>
      <use xlink:href="#DejaVuSans-63" transform="translate(618.408203 0)"/>
      <use xlink:href="#DejaVuSans-63" transform="translate(673.388672 0)"/>
      <use xlink:href="#DejaVuSans-65" transform="translate(728.369141 0)"/>
      <use xlink:href="#DejaVuSans-73" transform="translate(789.892578 0)"/>
      <use xlink:href="#DejaVuSans-73" transform="translate(841.992188 0)"/>
      <use xlink:href="#DejaVuSans-20" transform="translate(894.091797 0)"/>
      <use xlink:href="#DejaVuSans-28" transform="translate(925.878906 0)"/>
      <use xlink:href="#DejaVuSans-25" transform="translate(964.892578 0)"/>
      <use xlink:href="#DejaVuSans-29" transform="translate(1059.912109 0)"/>
     </g>
    </g>
   </g>
   <g id="patch_104">
    <path d="M 46.965625 354.958125 
L 46.965625 22.318125 
" style="fill: none; stroke: #000000; stroke-width: 0.8; stroke-linejoin: miter; stroke-linecap: square"/>
   </g>
   <g id="patch_105">
    <path d="M 604.965625 354.958125 
L 604.965625 22.318125 
" style="fill: none; stroke: #000000; stroke-width: 0.8; stroke-linejoin: miter; stroke-linecap: square"/>
   </g>
   <g id="patch_106">
    <path d="M 46.965625 354.958125 
L 604.965625 354.958125 
" style="fill: none; stroke: #000000; stroke-width: 0.8; stroke-linejoin: miter; stroke-linecap: square"/>
   </g>
   <g id="patch_107">
    <path d="M 46.965625 22.318125 
L 604.965625 22.318125 
" style="fill: none; stroke: #000000; stroke-width: 0.8; stroke-linejoin: miter; stroke-linecap: square"/>
   </g>
   <g id="text_15">
    <!-- Matching Success Rates vs Hill Coefficient (Parameter 98) -->
    <g transform="translate(152.02 16.318125) scale(0.12 -0.12)">
     <defs>
      <path id="DejaVuSans-52" d="M 2841 2188 
Q 3044 2119 3236 1894 
Q 3428 1669 3622 1275 
L 4263 0 
L 3584 0 
L 2988 1197 
Q 2756 1666 2539 1819 
Q 2322 1972 1947 1972 
L 1259 1972 
L 1259 0 
L 628 0 
L 628 4666 
L 2053 4666 
Q 2853 4666 3247 4331 
Q 3641 3997 3641 3322 
Q 3641 2881 3436 2590 
Q 3231 2300 2841 2188 
z
M 1259 4147 
L 1259 2491 
L 2053 2491 
Q 2509 2491 2742 2702 
Q 2975 2913 2975 3322 
Q 2975 3731 2742 3939 
Q 2509 4147 2053 4147 
L 1259 4147 
z
" transform="scale(0.015625)"/>
      <path id="DejaVuSans-76" d="M 191 3500 
L 800 3500 
L 1894 563 
L 2988 3500 
L 3597 3500 
L 2284 0 
L 1503 0 
L 191 3500 
z
" transform="scale(0.015625)"/>
      <path id="DejaVuSans-50" d="M 1259 4147 
L 1259 2394 
L 2053 2394 
Q 2494 2394 2734 2622 
Q 2975 2850 2975 3272 
Q 2975 3691 2734 3919 
Q 2494 4147 2053 4147 
L 1259 4147 
z
M 628 4666 
L 2053 4666 
Q 2838 4666 3239 4311 
Q 3641 3956 3641 3272 
Q 3641 2581 3239 2228 
Q 2838 1875 2053 1875 
L 1259 1875 
L 1259 0 
L 628 0 
L 628 4666 
z
" transform="scale(0.015625)"/>
      <path id="DejaVuSans-72" d="M 2631 2963 
Q 2534 3019 2420 3045 
Q 2306 3072 2169 3072 
Q 1681 3072 1420 2755 
Q 1159 2438 1159 1844 
L 1159 0 
L 581 0 
L 581 3500 
L 1159 3500 
L 1159 2956 
Q 1341 3275 1631 3429 
Q 1922 3584 2338 3584 
Q 2397 3584 2469 3576 
Q 2541 3569 2628 3553 
L 2631 2963 
z
" transform="scale(0.015625)"/>
      <path id="DejaVuSans-6d" d="M 3328 2828 
Q 3544 3216 3844 3400 
Q 4144 3584 4550 3584 
Q 5097 3584 5394 3201 
Q 5691 2819 5691 2113 
L 5691 0 
L 5113 0 
L 5113 2094 
Q 5113 2597 4934 2840 
Q 4756 3084 4391 3084 
Q 3944 3084 3684 2787 
Q 3425 2491 3425 1978 
L 3425 0 
L 2847 0 
L 2847 2094 
Q 2847 2600 2669 2842 
Q 2491 3084 2119 3084 
Q 1678 3084 1418 2786 
Q 1159 2488 1159 1978 
L 1159 0 
L 581 0 
L 581 3500 
L 1159 3500 
L 1159 2956 
Q 1356 3278 1631 3431 
Q 1906 3584 2284 3584 
Q 2666 3584 2933 3390 
Q 3200 3197 3328 2828 
z
" transform="scale(0.015625)"/>
      <path id="DejaVuSans-39" d="M 703 97 
L 703 672 
Q 941 559 1184 500 
Q 1428 441 1663 441 
Q 2288 441 2617 861 
Q 2947 1281 2994 2138 
Q 2813 1869 2534 1725 
Q 2256 1581 1919 1581 
Q 1219 1581 811 2004 
Q 403 2428 403 3163 
Q 403 3881 828 4315 
Q 1253 4750 1959 4750 
Q 2769 4750 3195 4129 
Q 3622 3509 3622 2328 
Q 3622 1225 3098 567 
Q 2575 -91 1691 -91 
Q 1453 -91 1209 -44 
Q 966 3 703 97 
z
M 1959 2075 
Q 2384 2075 2632 2365 
Q 2881 2656 2881 3163 
Q 2881 3666 2632 3958 
Q 2384 4250 1959 4250 
Q 1534 4250 1286 3958 
Q 1038 3666 1038 3163 
Q 1038 2656 1286 2365 
Q 1534 2075 1959 2075 
z
" transform="scale(0.015625)"/>
     </defs>
     <use xlink:href="#DejaVuSans-4d"/>
     <use xlink:href="#DejaVuSans-61" transform="translate(86.279297 0)"/>
     <use xlink:href="#DejaVuSans-74" transform="translate(147.558594 0)"/>
     <use xlink:href="#DejaVuSans-63" transform="translate(186.767578 0)"/>
     <use xlink:href="#DejaVuSans-68" transform="translate(241.748047 0)"/>
     <use xlink:href="#DejaVuSans-69" transform="translate(305.126953 0)"/>
     <use xlink:href="#DejaVuSans-6e" transform="translate(332.910156 0)"/>
     <use xlink:href="#DejaVuSans-67" transform="translate(396.289062 0)"/>
     <use xlink:href="#DejaVuSans-20" transform="translate(459.765625 0)"/>
     <use xlink:href="#DejaVuSans-53" transform="translate(491.552734 0)"/>
     <use xlink:href="#DejaVuSans-75" transform="translate(555.029297 0)"/>
     <use xlink:href="#DejaVuSans-63" transform="translate(618.408203 0)"/>
     <use xlink:href="#DejaVuSans-63" transform="translate(673.388672 0)"/>
     <use xlink:href="#DejaVuSans-65" transform="translate(728.369141 0)"/>
     <use xlink:href="#DejaVuSans-73" transform="translate(789.892578 0)"/>
     <use xlink:href="#DejaVuSans-73" transform="translate(841.992188 0)"/>
     <use xlink:href="#DejaVuSans-20" transform="translate(894.091797 0)"/>
     <use xlink:href="#DejaVuSans-52" transform="translate(925.878906 0)"/>
     <use xlink:href="#DejaVuSans-61" transform="translate(993.111328 0)"/>
     <use xlink:href="#DejaVuSans-74" transform="translate(1054.390625 0)"/>
     <use xlink:href="#DejaVuSans-65" transform="translate(1093.599609 0)"/>
     <use xlink:href="#DejaVuSans-73" transform="translate(1155.123047 0)"/>
     <use xlink:href="#DejaVuSans-20" transform="translate(1207.222656 0)"/>
     <use xlink:href="#DejaVuSans-76" transform="translate(1239.009766 0)"/>
     <use xlink:href="#DejaVuSans-73" transform="translate(1298.189453 0)"/>
     <use xlink:href="#DejaVuSans-20" transform="translate(1350.289062 0)"/>
     <use xlink:href="#DejaVuSans-48" transform="translate(1382.076172 0)"/>
     <use xlink:href="#DejaVuSans-69" transform="translate(1457.271484 0)"/>
     <use xlink:href="#DejaVuSans-6c" transform="translate(1485.054688 0)"/>
     <use xlink:href="#DejaVuSans-6c" transform="translate(1512.837891 0)"/>
     <use xlink:href="#DejaVuSans-20" transform="translate(1540.621094 0)"/>
     <use xlink:href="#DejaVuSans-43" transform="translate(1572.408203 0)"/>
     <use xlink:href="#DejaVuSans-6f" transform="translate(1642.232422 0)"/>
     <use xlink:href="#DejaVuSans-65" transform="translate(1703.414062 0)"/>
     <use xlink:href="#DejaVuSans-66" transform="translate(1764.9375 0)"/>
     <use xlink:href="#DejaVuSans-66" transform="translate(1800.142578 0)"/>
     <use xlink:href="#DejaVuSans-69" transform="translate(1835.347656 0)"/>
     <use xlink:href="#DejaVuSans-63" transform="translate(1863.130859 0)"/>
     <use xlink:href="#DejaVuSans-69" transform="translate(1918.111328 0)"/>
     <use xlink:href="#DejaVuSans-65" transform="translate(1945.894531 0)"/>
     <use xlink:href="#DejaVuSans-6e" transform="translate(2007.417969 0)"/>
     <use xlink:href="#DejaVuSans-74" transform="translate(2070.796875 0)"/>
     <use xlink:href="#DejaVuSans-20" transform="translate(2110.005859 0)"/>
     <use xlink:href="#DejaVuSans-28" transform="translate(2141.792969 0)"/>
     <use xlink:href="#DejaVuSans-50" transform="translate(2180.806641 0)"/>
     <use xlink:href="#DejaVuSans-61" transform="translate(2236.609375 0)"/>
     <use xlink:href="#DejaVuSans-72" transform="translate(2297.888672 0)"/>
     <use xlink:href="#DejaVuSans-61" transform="translate(2339.001953 0)"/>
     <use xlink:href="#DejaVuSans-6d" transform="translate(2400.28125 0)"/>
     <use xlink:href="#DejaVuSans-65" transform="translate(2497.693359 0)"/>
     <use xlink:href="#DejaVuSans-74" transform="translate(2559.216797 0)"/>
     <use xlink:href="#DejaVuSans-65" transform="translate(2598.425781 0)"/>
     <use xlink:href="#DejaVuSans-72" transform="translate(2659.949219 0)"/>
     <use xlink:href="#DejaVuSans-20" transform="translate(2701.0625 0)"/>
     <use xlink:href="#DejaVuSans-39" transform="translate(2732.849609 0)"/>
     <use xlink:href="#DejaVuSans-38" transform="translate(2796.472656 0)"/>
     <use xlink:href="#DejaVuSans-29" transform="translate(2860.095703 0)"/>
    </g>
   </g>
  </g>
 </g>
 <defs>
  <clipPath id="p6a04f277c7">
   <rect x="46.965625" y="22.318125" width="558" height="332.64"/>
  </clipPath>
 </defs>
</svg>
