<?xml version="1.0" encoding="utf-8" standalone="no"?>
<!DOCTYPE svg PUBLIC "-//W3C//DTD SVG 1.1//EN"
  "http://www.w3.org/Graphics/SVG/1.1/DTD/svg11.dtd">
<svg xmlns:xlink="http://www.w3.org/1999/xlink" width="608.98125pt" height="392.514375pt" viewBox="0 0 608.98125 392.514375" xmlns="http://www.w3.org/2000/svg" version="1.1">
 <metadata>
  <rdf:RDF xmlns:dc="http://purl.org/dc/elements/1.1/" xmlns:cc="http://creativecommons.org/ns#" xmlns:rdf="http://www.w3.org/1999/02/22-rdf-syntax-ns#">
   <cc:Work>
    <dc:type rdf:resource="http://purl.org/dc/dcmitype/StillImage"/>
    <dc:date>2025-01-31T16:51:38.656780</dc:date>
    <dc:format>image/svg+xml</dc:format>
    <dc:creator>
     <cc:Agent>
      <dc:title>Matplotlib v3.10.0, https://matplotlib.org/</dc:title>
     </cc:Agent>
    </dc:creator>
   </cc:Work>
  </rdf:RDF>
 </metadata>
 <defs>
  <style type="text/css">*{stroke-linejoin: round; stroke-linecap: butt}</style>
 </defs>
 <g id="figure_1">
  <g id="patch_1">
   <path d="M 0 392.514375 
L 608.98125 392.514375 
L 608.98125 0 
L 0 0 
z
" style="fill: #ffffff"/>
  </g>
  <g id="axes_1">
   <g id="patch_2">
    <path d="M 43.78125 354.958125 
L 601.78125 354.958125 
L 601.78125 22.318125 
L 43.78125 22.318125 
z
" style="fill: #ffffff"/>
   </g>
   <g id="patch_3">
    <path d="M 69.144886 354.958125 
L 74.942289 354.958125 
L 74.942289 38.158125 
L 69.144886 38.158125 
z
" clip-path="url(#pc8f24ad339)" style="fill: #1f77b4"/>
   </g>
   <g id="patch_4">
    <path d="M 250.313718 354.958125 
L 256.11112 354.958125 
L 256.11112 354.958125 
L 250.313718 354.958125 
z
" clip-path="url(#pc8f24ad339)" style="fill: #1f77b4"/>
   </g>
   <g id="patch_5">
    <path d="M 431.482549 354.958125 
L 437.279951 354.958125 
L 437.279951 354.958125 
L 431.482549 354.958125 
z
" clip-path="url(#pc8f24ad339)" style="fill: #1f77b4"/>
   </g>
   <g id="patch_6">
    <path d="M 74.942289 354.958125 
L 80.739692 354.958125 
L 80.739692 38.158125 
L 74.942289 38.158125 
z
" clip-path="url(#pc8f24ad339)" style="fill: #ff7f0e"/>
   </g>
   <g id="patch_7">
    <path d="M 256.11112 354.958125 
L 261.908523 354.958125 
L 261.908523 354.958125 
L 256.11112 354.958125 
z
" clip-path="url(#pc8f24ad339)" style="fill: #ff7f0e"/>
   </g>
   <g id="patch_8">
    <path d="M 437.279951 354.958125 
L 443.077354 354.958125 
L 443.077354 354.958125 
L 437.279951 354.958125 
z
" clip-path="url(#pc8f24ad339)" style="fill: #ff7f0e"/>
   </g>
   <g id="patch_9">
    <path d="M 80.739692 354.958125 
L 86.537094 354.958125 
L 86.537094 354.958125 
L 80.739692 354.958125 
z
" clip-path="url(#pc8f24ad339)" style="fill: #2ca02c"/>
   </g>
   <g id="patch_10">
    <path d="M 261.908523 354.958125 
L 267.705925 354.958125 
L 267.705925 38.158125 
L 261.908523 38.158125 
z
" clip-path="url(#pc8f24ad339)" style="fill: #2ca02c"/>
   </g>
   <g id="patch_11">
    <path d="M 443.077354 354.958125 
L 448.874756 354.958125 
L 448.874756 354.958125 
L 443.077354 354.958125 
z
" clip-path="url(#pc8f24ad339)" style="fill: #2ca02c"/>
   </g>
   <g id="patch_12">
    <path d="M 86.537094 354.958125 
L 92.334497 354.958125 
L 92.334497 354.958125 
L 86.537094 354.958125 
z
" clip-path="url(#pc8f24ad339)" style="fill: #d62728"/>
   </g>
   <g id="patch_13">
    <path d="M 267.705925 354.958125 
L 273.503328 354.958125 
L 273.503328 38.158125 
L 267.705925 38.158125 
z
" clip-path="url(#pc8f24ad339)" style="fill: #d62728"/>
   </g>
   <g id="patch_14">
    <path d="M 448.874756 354.958125 
L 454.672159 354.958125 
L 454.672159 354.958125 
L 448.874756 354.958125 
z
" clip-path="url(#pc8f24ad339)" style="fill: #d62728"/>
   </g>
   <g id="patch_15">
    <path d="M 92.334497 354.958125 
L 98.131899 354.958125 
L 98.131899 354.958125 
L 92.334497 354.958125 
z
" clip-path="url(#pc8f24ad339)" style="fill: #9467bd"/>
   </g>
   <g id="patch_16">
    <path d="M 273.503328 354.958125 
L 279.300731 354.958125 
L 279.300731 38.158125 
L 273.503328 38.158125 
z
" clip-path="url(#pc8f24ad339)" style="fill: #9467bd"/>
   </g>
   <g id="patch_17">
    <path d="M 454.672159 354.958125 
L 460.469562 354.958125 
L 460.469562 354.958125 
L 454.672159 354.958125 
z
" clip-path="url(#pc8f24ad339)" style="fill: #9467bd"/>
   </g>
   <g id="patch_18">
    <path d="M 98.131899 354.958125 
L 103.929302 354.958125 
L 103.929302 354.958125 
L 98.131899 354.958125 
z
" clip-path="url(#pc8f24ad339)" style="fill: #8c564b"/>
   </g>
   <g id="patch_19">
    <path d="M 279.300731 354.958125 
L 285.098133 354.958125 
L 285.098133 38.158125 
L 279.300731 38.158125 
z
" clip-path="url(#pc8f24ad339)" style="fill: #8c564b"/>
   </g>
   <g id="patch_20">
    <path d="M 460.469562 354.958125 
L 466.266964 354.958125 
L 466.266964 354.958125 
L 460.469562 354.958125 
z
" clip-path="url(#pc8f24ad339)" style="fill: #8c564b"/>
   </g>
   <g id="patch_21">
    <path d="M 103.929302 354.958125 
L 109.726705 354.958125 
L 109.726705 354.958125 
L 103.929302 354.958125 
z
" clip-path="url(#pc8f24ad339)" style="fill: #e377c2"/>
   </g>
   <g id="patch_22">
    <path d="M 285.098133 354.958125 
L 290.895536 354.958125 
L 290.895536 354.958125 
L 285.098133 354.958125 
z
" clip-path="url(#pc8f24ad339)" style="fill: #e377c2"/>
   </g>
   <g id="patch_23">
    <path d="M 466.266964 354.958125 
L 472.064367 354.958125 
L 472.064367 38.158125 
L 466.266964 38.158125 
z
" clip-path="url(#pc8f24ad339)" style="fill: #e377c2"/>
   </g>
   <g id="patch_24">
    <path d="M 109.726705 354.958125 
L 115.524107 354.958125 
L 115.524107 354.958125 
L 109.726705 354.958125 
z
" clip-path="url(#pc8f24ad339)" style="fill: #7f7f7f"/>
   </g>
   <g id="patch_25">
    <path d="M 290.895536 354.958125 
L 296.692938 354.958125 
L 296.692938 354.958125 
L 290.895536 354.958125 
z
" clip-path="url(#pc8f24ad339)" style="fill: #7f7f7f"/>
   </g>
   <g id="patch_26">
    <path d="M 472.064367 354.958125 
L 477.861769 354.958125 
L 477.861769 38.158125 
L 472.064367 38.158125 
z
" clip-path="url(#pc8f24ad339)" style="fill: #7f7f7f"/>
   </g>
   <g id="patch_27">
    <path d="M 115.524107 354.958125 
L 121.32151 354.958125 
L 121.32151 354.958125 
L 115.524107 354.958125 
z
" clip-path="url(#pc8f24ad339)" style="fill: #bcbd22"/>
   </g>
   <g id="patch_28">
    <path d="M 296.692938 354.958125 
L 302.490341 354.958125 
L 302.490341 354.958125 
L 296.692938 354.958125 
z
" clip-path="url(#pc8f24ad339)" style="fill: #bcbd22"/>
   </g>
   <g id="patch_29">
    <path d="M 477.861769 354.958125 
L 483.659172 354.958125 
L 483.659172 38.158125 
L 477.861769 38.158125 
z
" clip-path="url(#pc8f24ad339)" style="fill: #bcbd22"/>
   </g>
   <g id="patch_30">
    <path d="M 121.32151 354.958125 
L 127.118912 354.958125 
L 127.118912 354.958125 
L 121.32151 354.958125 
z
" clip-path="url(#pc8f24ad339)" style="fill: #17becf"/>
   </g>
   <g id="patch_31">
    <path d="M 302.490341 354.958125 
L 308.287744 354.958125 
L 308.287744 354.958125 
L 302.490341 354.958125 
z
" clip-path="url(#pc8f24ad339)" style="fill: #17becf"/>
   </g>
   <g id="patch_32">
    <path d="M 483.659172 354.958125 
L 489.456575 354.958125 
L 489.456575 38.158125 
L 483.659172 38.158125 
z
" clip-path="url(#pc8f24ad339)" style="fill: #17becf"/>
   </g>
   <g id="patch_33">
    <path d="M 127.118912 354.958125 
L 132.916315 354.958125 
L 132.916315 354.958125 
L 127.118912 354.958125 
z
" clip-path="url(#pc8f24ad339)" style="fill: #1f77b4"/>
   </g>
   <g id="patch_34">
    <path d="M 308.287744 354.958125 
L 314.085146 354.958125 
L 314.085146 354.958125 
L 308.287744 354.958125 
z
" clip-path="url(#pc8f24ad339)" style="fill: #1f77b4"/>
   </g>
   <g id="patch_35">
    <path d="M 489.456575 354.958125 
L 495.253977 354.958125 
L 495.253977 38.158125 
L 489.456575 38.158125 
z
" clip-path="url(#pc8f24ad339)" style="fill: #1f77b4"/>
   </g>
   <g id="patch_36">
    <path d="M 132.916315 354.958125 
L 138.713718 354.958125 
L 138.713718 354.958125 
L 132.916315 354.958125 
z
" clip-path="url(#pc8f24ad339)" style="fill: #ff7f0e"/>
   </g>
   <g id="patch_37">
    <path d="M 314.085146 354.958125 
L 319.882549 354.958125 
L 319.882549 354.958125 
L 314.085146 354.958125 
z
" clip-path="url(#pc8f24ad339)" style="fill: #ff7f0e"/>
   </g>
   <g id="patch_38">
    <path d="M 495.253977 354.958125 
L 501.05138 354.958125 
L 501.05138 38.158125 
L 495.253977 38.158125 
z
" clip-path="url(#pc8f24ad339)" style="fill: #ff7f0e"/>
   </g>
   <g id="patch_39">
    <path d="M 138.713718 354.958125 
L 144.51112 354.958125 
L 144.51112 354.958125 
L 138.713718 354.958125 
z
" clip-path="url(#pc8f24ad339)" style="fill: #2ca02c"/>
   </g>
   <g id="patch_40">
    <path d="M 319.882549 354.958125 
L 325.679951 354.958125 
L 325.679951 354.958125 
L 319.882549 354.958125 
z
" clip-path="url(#pc8f24ad339)" style="fill: #2ca02c"/>
   </g>
   <g id="patch_41">
    <path d="M 501.05138 354.958125 
L 506.848782 354.958125 
L 506.848782 38.158125 
L 501.05138 38.158125 
z
" clip-path="url(#pc8f24ad339)" style="fill: #2ca02c"/>
   </g>
   <g id="patch_42">
    <path d="M 144.51112 354.958125 
L 150.308523 354.958125 
L 150.308523 354.958125 
L 144.51112 354.958125 
z
" clip-path="url(#pc8f24ad339)" style="fill: #d62728"/>
   </g>
   <g id="patch_43">
    <path d="M 325.679951 354.958125 
L 331.477354 354.958125 
L 331.477354 354.958125 
L 325.679951 354.958125 
z
" clip-path="url(#pc8f24ad339)" style="fill: #d62728"/>
   </g>
   <g id="patch_44">
    <path d="M 506.848782 354.958125 
L 512.646185 354.958125 
L 512.646185 38.158125 
L 506.848782 38.158125 
z
" clip-path="url(#pc8f24ad339)" style="fill: #d62728"/>
   </g>
   <g id="patch_45">
    <path d="M 150.308523 354.958125 
L 156.105925 354.958125 
L 156.105925 354.958125 
L 150.308523 354.958125 
z
" clip-path="url(#pc8f24ad339)" style="fill: #9467bd"/>
   </g>
   <g id="patch_46">
    <path d="M 331.477354 354.958125 
L 337.274756 354.958125 
L 337.274756 354.958125 
L 331.477354 354.958125 
z
" clip-path="url(#pc8f24ad339)" style="fill: #9467bd"/>
   </g>
   <g id="patch_47">
    <path d="M 512.646185 354.958125 
L 518.443588 354.958125 
L 518.443588 38.158125 
L 512.646185 38.158125 
z
" clip-path="url(#pc8f24ad339)" style="fill: #9467bd"/>
   </g>
   <g id="patch_48">
    <path d="M 156.105925 354.958125 
L 161.903328 354.958125 
L 161.903328 354.958125 
L 156.105925 354.958125 
z
" clip-path="url(#pc8f24ad339)" style="fill: #8c564b"/>
   </g>
   <g id="patch_49">
    <path d="M 337.274756 354.958125 
L 343.072159 354.958125 
L 343.072159 354.958125 
L 337.274756 354.958125 
z
" clip-path="url(#pc8f24ad339)" style="fill: #8c564b"/>
   </g>
   <g id="patch_50">
    <path d="M 518.443588 354.958125 
L 524.24099 354.958125 
L 524.24099 38.158125 
L 518.443588 38.158125 
z
" clip-path="url(#pc8f24ad339)" style="fill: #8c564b"/>
   </g>
   <g id="patch_51">
    <path d="M 161.903328 354.958125 
L 167.700731 354.958125 
L 167.700731 354.958125 
L 161.903328 354.958125 
z
" clip-path="url(#pc8f24ad339)" style="fill: #e377c2"/>
   </g>
   <g id="patch_52">
    <path d="M 343.072159 354.958125 
L 348.869562 354.958125 
L 348.869562 354.958125 
L 343.072159 354.958125 
z
" clip-path="url(#pc8f24ad339)" style="fill: #e377c2"/>
   </g>
   <g id="patch_53">
    <path d="M 524.24099 354.958125 
L 530.038393 354.958125 
L 530.038393 38.158125 
L 524.24099 38.158125 
z
" clip-path="url(#pc8f24ad339)" style="fill: #e377c2"/>
   </g>
   <g id="patch_54">
    <path d="M 167.700731 354.958125 
L 173.498133 354.958125 
L 173.498133 354.958125 
L 167.700731 354.958125 
z
" clip-path="url(#pc8f24ad339)" style="fill: #7f7f7f"/>
   </g>
   <g id="patch_55">
    <path d="M 348.869562 354.958125 
L 354.666964 354.958125 
L 354.666964 354.958125 
L 348.869562 354.958125 
z
" clip-path="url(#pc8f24ad339)" style="fill: #7f7f7f"/>
   </g>
   <g id="patch_56">
    <path d="M 530.038393 354.958125 
L 535.835795 354.958125 
L 535.835795 38.158125 
L 530.038393 38.158125 
z
" clip-path="url(#pc8f24ad339)" style="fill: #7f7f7f"/>
   </g>
   <g id="patch_57">
    <path d="M 173.498133 354.958125 
L 179.295536 354.958125 
L 179.295536 354.958125 
L 173.498133 354.958125 
z
" clip-path="url(#pc8f24ad339)" style="fill: #bcbd22"/>
   </g>
   <g id="patch_58">
    <path d="M 354.666964 354.958125 
L 360.464367 354.958125 
L 360.464367 354.958125 
L 354.666964 354.958125 
z
" clip-path="url(#pc8f24ad339)" style="fill: #bcbd22"/>
   </g>
   <g id="patch_59">
    <path d="M 535.835795 354.958125 
L 541.633198 354.958125 
L 541.633198 38.158125 
L 535.835795 38.158125 
z
" clip-path="url(#pc8f24ad339)" style="fill: #bcbd22"/>
   </g>
   <g id="patch_60">
    <path d="M 179.295536 354.958125 
L 185.092938 354.958125 
L 185.092938 354.958125 
L 179.295536 354.958125 
z
" clip-path="url(#pc8f24ad339)" style="fill: #17becf"/>
   </g>
   <g id="patch_61">
    <path d="M 360.464367 354.958125 
L 366.261769 354.958125 
L 366.261769 354.958125 
L 360.464367 354.958125 
z
" clip-path="url(#pc8f24ad339)" style="fill: #17becf"/>
   </g>
   <g id="patch_62">
    <path d="M 541.633198 354.958125 
L 547.430601 354.958125 
L 547.430601 38.158125 
L 541.633198 38.158125 
z
" clip-path="url(#pc8f24ad339)" style="fill: #17becf"/>
   </g>
   <g id="patch_63">
    <path d="M 185.092938 354.958125 
L 190.890341 354.958125 
L 190.890341 354.958125 
L 185.092938 354.958125 
z
" clip-path="url(#pc8f24ad339)" style="fill: #1f77b4"/>
   </g>
   <g id="patch_64">
    <path d="M 366.261769 354.958125 
L 372.059172 354.958125 
L 372.059172 354.958125 
L 366.261769 354.958125 
z
" clip-path="url(#pc8f24ad339)" style="fill: #1f77b4"/>
   </g>
   <g id="patch_65">
    <path d="M 547.430601 354.958125 
L 553.228003 354.958125 
L 553.228003 38.158125 
L 547.430601 38.158125 
z
" clip-path="url(#pc8f24ad339)" style="fill: #1f77b4"/>
   </g>
   <g id="patch_66">
    <path d="M 190.890341 354.958125 
L 196.687744 354.958125 
L 196.687744 354.958125 
L 190.890341 354.958125 
z
" clip-path="url(#pc8f24ad339)" style="fill: #ff7f0e"/>
   </g>
   <g id="patch_67">
    <path d="M 372.059172 354.958125 
L 377.856575 354.958125 
L 377.856575 354.958125 
L 372.059172 354.958125 
z
" clip-path="url(#pc8f24ad339)" style="fill: #ff7f0e"/>
   </g>
   <g id="patch_68">
    <path d="M 553.228003 354.958125 
L 559.025406 354.958125 
L 559.025406 38.158125 
L 553.228003 38.158125 
z
" clip-path="url(#pc8f24ad339)" style="fill: #ff7f0e"/>
   </g>
   <g id="patch_69">
    <path d="M 196.687744 354.958125 
L 202.485146 354.958125 
L 202.485146 354.958125 
L 196.687744 354.958125 
z
" clip-path="url(#pc8f24ad339)" style="fill: #2ca02c"/>
   </g>
   <g id="patch_70">
    <path d="M 377.856575 354.958125 
L 383.653977 354.958125 
L 383.653977 354.958125 
L 377.856575 354.958125 
z
" clip-path="url(#pc8f24ad339)" style="fill: #2ca02c"/>
   </g>
   <g id="patch_71">
    <path d="M 559.025406 354.958125 
L 564.822808 354.958125 
L 564.822808 38.158125 
L 559.025406 38.158125 
z
" clip-path="url(#pc8f24ad339)" style="fill: #2ca02c"/>
   </g>
   <g id="patch_72">
    <path d="M 202.485146 354.958125 
L 208.282549 354.958125 
L 208.282549 354.958125 
L 202.485146 354.958125 
z
" clip-path="url(#pc8f24ad339)" style="fill: #d62728"/>
   </g>
   <g id="patch_73">
    <path d="M 383.653977 354.958125 
L 389.45138 354.958125 
L 389.45138 354.958125 
L 383.653977 354.958125 
z
" clip-path="url(#pc8f24ad339)" style="fill: #d62728"/>
   </g>
   <g id="patch_74">
    <path d="M 564.822808 354.958125 
L 570.620211 354.958125 
L 570.620211 38.158125 
L 564.822808 38.158125 
z
" clip-path="url(#pc8f24ad339)" style="fill: #d62728"/>
   </g>
   <g id="patch_75">
    <path d="M 208.282549 354.958125 
L 214.079951 354.958125 
L 214.079951 354.958125 
L 208.282549 354.958125 
z
" clip-path="url(#pc8f24ad339)" style="fill: #9467bd"/>
   </g>
   <g id="patch_76">
    <path d="M 389.45138 354.958125 
L 395.248782 354.958125 
L 395.248782 354.958125 
L 389.45138 354.958125 
z
" clip-path="url(#pc8f24ad339)" style="fill: #9467bd"/>
   </g>
   <g id="patch_77">
    <path d="M 570.620211 354.958125 
L 576.417614 354.958125 
L 576.417614 38.158125 
L 570.620211 38.158125 
z
" clip-path="url(#pc8f24ad339)" style="fill: #9467bd"/>
   </g>
   <g id="matplotlib.axis_1">
    <g id="xtick_1">
     <g id="line2d_1">
      <path d="M 144.51112 354.958125 
L 144.51112 22.318125 
" clip-path="url(#pc8f24ad339)" style="fill: none; stroke: #b0b0b0; stroke-opacity: 0.3; stroke-width: 0.8; stroke-linecap: square"/>
     </g>
     <g id="line2d_2">
      <defs>
       <path id="mdce4629f59" d="M 0 0 
L 0 3.5 
" style="stroke: #000000; stroke-width: 0.8"/>
      </defs>
      <g>
       <use xlink:href="#mdce4629f59" x="144.51112" y="354.958125" style="stroke: #000000; stroke-width: 0.8"/>
      </g>
     </g>
     <g id="text_1">
      <!-- 1 -->
      <g transform="translate(141.32987 369.556562) scale(0.1 -0.1)">
       <defs>
        <path id="DejaVuSans-31" d="M 794 531 
L 1825 531 
L 1825 4091 
L 703 3866 
L 703 4441 
L 1819 4666 
L 2450 4666 
L 2450 531 
L 3481 531 
L 3481 0 
L 794 0 
L 794 531 
z
" transform="scale(0.015625)"/>
       </defs>
       <use xlink:href="#DejaVuSans-31"/>
      </g>
     </g>
    </g>
    <g id="xtick_2">
     <g id="line2d_3">
      <path d="M 325.679951 354.958125 
L 325.679951 22.318125 
" clip-path="url(#pc8f24ad339)" style="fill: none; stroke: #b0b0b0; stroke-opacity: 0.3; stroke-width: 0.8; stroke-linecap: square"/>
     </g>
     <g id="line2d_4">
      <g>
       <use xlink:href="#mdce4629f59" x="325.679951" y="354.958125" style="stroke: #000000; stroke-width: 0.8"/>
      </g>
     </g>
     <g id="text_2">
      <!-- 2 -->
      <g transform="translate(322.498701 369.556562) scale(0.1 -0.1)">
       <defs>
        <path id="DejaVuSans-32" d="M 1228 531 
L 3431 531 
L 3431 0 
L 469 0 
L 469 531 
Q 828 903 1448 1529 
Q 2069 2156 2228 2338 
Q 2531 2678 2651 2914 
Q 2772 3150 2772 3378 
Q 2772 3750 2511 3984 
Q 2250 4219 1831 4219 
Q 1534 4219 1204 4116 
Q 875 4013 500 3803 
L 500 4441 
Q 881 4594 1212 4672 
Q 1544 4750 1819 4750 
Q 2544 4750 2975 4387 
Q 3406 4025 3406 3419 
Q 3406 3131 3298 2873 
Q 3191 2616 2906 2266 
Q 2828 2175 2409 1742 
Q 1991 1309 1228 531 
z
" transform="scale(0.015625)"/>
       </defs>
       <use xlink:href="#DejaVuSans-32"/>
      </g>
     </g>
    </g>
    <g id="xtick_3">
     <g id="line2d_5">
      <path d="M 506.848782 354.958125 
L 506.848782 22.318125 
" clip-path="url(#pc8f24ad339)" style="fill: none; stroke: #b0b0b0; stroke-opacity: 0.3; stroke-width: 0.8; stroke-linecap: square"/>
     </g>
     <g id="line2d_6">
      <g>
       <use xlink:href="#mdce4629f59" x="506.848782" y="354.958125" style="stroke: #000000; stroke-width: 0.8"/>
      </g>
     </g>
     <g id="text_3">
      <!-- 3 -->
      <g transform="translate(503.667532 369.556562) scale(0.1 -0.1)">
       <defs>
        <path id="DejaVuSans-33" d="M 2597 2516 
Q 3050 2419 3304 2112 
Q 3559 1806 3559 1356 
Q 3559 666 3084 287 
Q 2609 -91 1734 -91 
Q 1441 -91 1130 -33 
Q 819 25 488 141 
L 488 750 
Q 750 597 1062 519 
Q 1375 441 1716 441 
Q 2309 441 2620 675 
Q 2931 909 2931 1356 
Q 2931 1769 2642 2001 
Q 2353 2234 1838 2234 
L 1294 2234 
L 1294 2753 
L 1863 2753 
Q 2328 2753 2575 2939 
Q 2822 3125 2822 3475 
Q 2822 3834 2567 4026 
Q 2313 4219 1838 4219 
Q 1578 4219 1281 4162 
Q 984 4106 628 3988 
L 628 4550 
Q 988 4650 1302 4700 
Q 1616 4750 1894 4750 
Q 2613 4750 3031 4423 
Q 3450 4097 3450 3541 
Q 3450 3153 3228 2886 
Q 3006 2619 2597 2516 
z
" transform="scale(0.015625)"/>
       </defs>
       <use xlink:href="#DejaVuSans-33"/>
      </g>
     </g>
    </g>
    <g id="text_4">
     <!-- Number of Stable States -->
     <g transform="translate(261.430469 383.234687) scale(0.1 -0.1)">
      <defs>
       <path id="DejaVuSans-4e" d="M 628 4666 
L 1478 4666 
L 3547 763 
L 3547 4666 
L 4159 4666 
L 4159 0 
L 3309 0 
L 1241 3903 
L 1241 0 
L 628 0 
L 628 4666 
z
" transform="scale(0.015625)"/>
       <path id="DejaVuSans-75" d="M 544 1381 
L 544 3500 
L 1119 3500 
L 1119 1403 
Q 1119 906 1312 657 
Q 1506 409 1894 409 
Q 2359 409 2629 706 
Q 2900 1003 2900 1516 
L 2900 3500 
L 3475 3500 
L 3475 0 
L 2900 0 
L 2900 538 
Q 2691 219 2414 64 
Q 2138 -91 1772 -91 
Q 1169 -91 856 284 
Q 544 659 544 1381 
z
M 1991 3584 
L 1991 3584 
z
" transform="scale(0.015625)"/>
       <path id="DejaVuSans-6d" d="M 3328 2828 
Q 3544 3216 3844 3400 
Q 4144 3584 4550 3584 
Q 5097 3584 5394 3201 
Q 5691 2819 5691 2113 
L 5691 0 
L 5113 0 
L 5113 2094 
Q 5113 2597 4934 2840 
Q 4756 3084 4391 3084 
Q 3944 3084 3684 2787 
Q 3425 2491 3425 1978 
L 3425 0 
L 2847 0 
L 2847 2094 
Q 2847 2600 2669 2842 
Q 2491 3084 2119 3084 
Q 1678 3084 1418 2786 
Q 1159 2488 1159 1978 
L 1159 0 
L 581 0 
L 581 3500 
L 1159 3500 
L 1159 2956 
Q 1356 3278 1631 3431 
Q 1906 3584 2284 3584 
Q 2666 3584 2933 3390 
Q 3200 3197 3328 2828 
z
" transform="scale(0.015625)"/>
       <path id="DejaVuSans-62" d="M 3116 1747 
Q 3116 2381 2855 2742 
Q 2594 3103 2138 3103 
Q 1681 3103 1420 2742 
Q 1159 2381 1159 1747 
Q 1159 1113 1420 752 
Q 1681 391 2138 391 
Q 2594 391 2855 752 
Q 3116 1113 3116 1747 
z
M 1159 2969 
Q 1341 3281 1617 3432 
Q 1894 3584 2278 3584 
Q 2916 3584 3314 3078 
Q 3713 2572 3713 1747 
Q 3713 922 3314 415 
Q 2916 -91 2278 -91 
Q 1894 -91 1617 61 
Q 1341 213 1159 525 
L 1159 0 
L 581 0 
L 581 4863 
L 1159 4863 
L 1159 2969 
z
" transform="scale(0.015625)"/>
       <path id="DejaVuSans-65" d="M 3597 1894 
L 3597 1613 
L 953 1613 
Q 991 1019 1311 708 
Q 1631 397 2203 397 
Q 2534 397 2845 478 
Q 3156 559 3463 722 
L 3463 178 
Q 3153 47 2828 -22 
Q 2503 -91 2169 -91 
Q 1331 -91 842 396 
Q 353 884 353 1716 
Q 353 2575 817 3079 
Q 1281 3584 2069 3584 
Q 2775 3584 3186 3129 
Q 3597 2675 3597 1894 
z
M 3022 2063 
Q 3016 2534 2758 2815 
Q 2500 3097 2075 3097 
Q 1594 3097 1305 2825 
Q 1016 2553 972 2059 
L 3022 2063 
z
" transform="scale(0.015625)"/>
       <path id="DejaVuSans-72" d="M 2631 2963 
Q 2534 3019 2420 3045 
Q 2306 3072 2169 3072 
Q 1681 3072 1420 2755 
Q 1159 2438 1159 1844 
L 1159 0 
L 581 0 
L 581 3500 
L 1159 3500 
L 1159 2956 
Q 1341 3275 1631 3429 
Q 1922 3584 2338 3584 
Q 2397 3584 2469 3576 
Q 2541 3569 2628 3553 
L 2631 2963 
z
" transform="scale(0.015625)"/>
       <path id="DejaVuSans-20" transform="scale(0.015625)"/>
       <path id="DejaVuSans-6f" d="M 1959 3097 
Q 1497 3097 1228 2736 
Q 959 2375 959 1747 
Q 959 1119 1226 758 
Q 1494 397 1959 397 
Q 2419 397 2687 759 
Q 2956 1122 2956 1747 
Q 2956 2369 2687 2733 
Q 2419 3097 1959 3097 
z
M 1959 3584 
Q 2709 3584 3137 3096 
Q 3566 2609 3566 1747 
Q 3566 888 3137 398 
Q 2709 -91 1959 -91 
Q 1206 -91 779 398 
Q 353 888 353 1747 
Q 353 2609 779 3096 
Q 1206 3584 1959 3584 
z
" transform="scale(0.015625)"/>
       <path id="DejaVuSans-66" d="M 2375 4863 
L 2375 4384 
L 1825 4384 
Q 1516 4384 1395 4259 
Q 1275 4134 1275 3809 
L 1275 3500 
L 2222 3500 
L 2222 3053 
L 1275 3053 
L 1275 0 
L 697 0 
L 697 3053 
L 147 3053 
L 147 3500 
L 697 3500 
L 697 3744 
Q 697 4328 969 4595 
Q 1241 4863 1831 4863 
L 2375 4863 
z
" transform="scale(0.015625)"/>
       <path id="DejaVuSans-53" d="M 3425 4513 
L 3425 3897 
Q 3066 4069 2747 4153 
Q 2428 4238 2131 4238 
Q 1616 4238 1336 4038 
Q 1056 3838 1056 3469 
Q 1056 3159 1242 3001 
Q 1428 2844 1947 2747 
L 2328 2669 
Q 3034 2534 3370 2195 
Q 3706 1856 3706 1288 
Q 3706 609 3251 259 
Q 2797 -91 1919 -91 
Q 1588 -91 1214 -16 
Q 841 59 441 206 
L 441 856 
Q 825 641 1194 531 
Q 1563 422 1919 422 
Q 2459 422 2753 634 
Q 3047 847 3047 1241 
Q 3047 1584 2836 1778 
Q 2625 1972 2144 2069 
L 1759 2144 
Q 1053 2284 737 2584 
Q 422 2884 422 3419 
Q 422 4038 858 4394 
Q 1294 4750 2059 4750 
Q 2388 4750 2728 4690 
Q 3069 4631 3425 4513 
z
" transform="scale(0.015625)"/>
       <path id="DejaVuSans-74" d="M 1172 4494 
L 1172 3500 
L 2356 3500 
L 2356 3053 
L 1172 3053 
L 1172 1153 
Q 1172 725 1289 603 
Q 1406 481 1766 481 
L 2356 481 
L 2356 0 
L 1766 0 
Q 1100 0 847 248 
Q 594 497 594 1153 
L 594 3053 
L 172 3053 
L 172 3500 
L 594 3500 
L 594 4494 
L 1172 4494 
z
" transform="scale(0.015625)"/>
       <path id="DejaVuSans-61" d="M 2194 1759 
Q 1497 1759 1228 1600 
Q 959 1441 959 1056 
Q 959 750 1161 570 
Q 1363 391 1709 391 
Q 2188 391 2477 730 
Q 2766 1069 2766 1631 
L 2766 1759 
L 2194 1759 
z
M 3341 1997 
L 3341 0 
L 2766 0 
L 2766 531 
Q 2569 213 2275 61 
Q 1981 -91 1556 -91 
Q 1019 -91 701 211 
Q 384 513 384 1019 
Q 384 1609 779 1909 
Q 1175 2209 1959 2209 
L 2766 2209 
L 2766 2266 
Q 2766 2663 2505 2880 
Q 2244 3097 1772 3097 
Q 1472 3097 1187 3025 
Q 903 2953 641 2809 
L 641 3341 
Q 956 3463 1253 3523 
Q 1550 3584 1831 3584 
Q 2591 3584 2966 3190 
Q 3341 2797 3341 1997 
z
" transform="scale(0.015625)"/>
       <path id="DejaVuSans-6c" d="M 603 4863 
L 1178 4863 
L 1178 0 
L 603 0 
L 603 4863 
z
" transform="scale(0.015625)"/>
       <path id="DejaVuSans-73" d="M 2834 3397 
L 2834 2853 
Q 2591 2978 2328 3040 
Q 2066 3103 1784 3103 
Q 1356 3103 1142 2972 
Q 928 2841 928 2578 
Q 928 2378 1081 2264 
Q 1234 2150 1697 2047 
L 1894 2003 
Q 2506 1872 2764 1633 
Q 3022 1394 3022 966 
Q 3022 478 2636 193 
Q 2250 -91 1575 -91 
Q 1294 -91 989 -36 
Q 684 19 347 128 
L 347 722 
Q 666 556 975 473 
Q 1284 391 1588 391 
Q 1994 391 2212 530 
Q 2431 669 2431 922 
Q 2431 1156 2273 1281 
Q 2116 1406 1581 1522 
L 1381 1569 
Q 847 1681 609 1914 
Q 372 2147 372 2553 
Q 372 3047 722 3315 
Q 1072 3584 1716 3584 
Q 2034 3584 2315 3537 
Q 2597 3491 2834 3397 
z
" transform="scale(0.015625)"/>
      </defs>
      <use xlink:href="#DejaVuSans-4e"/>
      <use xlink:href="#DejaVuSans-75" transform="translate(74.804688 0)"/>
      <use xlink:href="#DejaVuSans-6d" transform="translate(138.183594 0)"/>
      <use xlink:href="#DejaVuSans-62" transform="translate(235.595703 0)"/>
      <use xlink:href="#DejaVuSans-65" transform="translate(299.072266 0)"/>
      <use xlink:href="#DejaVuSans-72" transform="translate(360.595703 0)"/>
      <use xlink:href="#DejaVuSans-20" transform="translate(401.708984 0)"/>
      <use xlink:href="#DejaVuSans-6f" transform="translate(433.496094 0)"/>
      <use xlink:href="#DejaVuSans-66" transform="translate(494.677734 0)"/>
      <use xlink:href="#DejaVuSans-20" transform="translate(529.882812 0)"/>
      <use xlink:href="#DejaVuSans-53" transform="translate(561.669922 0)"/>
      <use xlink:href="#DejaVuSans-74" transform="translate(625.146484 0)"/>
      <use xlink:href="#DejaVuSans-61" transform="translate(664.355469 0)"/>
      <use xlink:href="#DejaVuSans-62" transform="translate(725.634766 0)"/>
      <use xlink:href="#DejaVuSans-6c" transform="translate(789.111328 0)"/>
      <use xlink:href="#DejaVuSans-65" transform="translate(816.894531 0)"/>
      <use xlink:href="#DejaVuSans-20" transform="translate(878.417969 0)"/>
      <use xlink:href="#DejaVuSans-53" transform="translate(910.205078 0)"/>
      <use xlink:href="#DejaVuSans-74" transform="translate(973.681641 0)"/>
      <use xlink:href="#DejaVuSans-61" transform="translate(1012.890625 0)"/>
      <use xlink:href="#DejaVuSans-74" transform="translate(1074.169922 0)"/>
      <use xlink:href="#DejaVuSans-65" transform="translate(1113.378906 0)"/>
      <use xlink:href="#DejaVuSans-73" transform="translate(1174.902344 0)"/>
     </g>
    </g>
   </g>
   <g id="matplotlib.axis_2">
    <g id="ytick_1">
     <g id="line2d_7">
      <path d="M 43.78125 354.958125 
L 601.78125 354.958125 
" clip-path="url(#pc8f24ad339)" style="fill: none; stroke: #b0b0b0; stroke-opacity: 0.3; stroke-width: 0.8; stroke-linecap: square"/>
     </g>
     <g id="line2d_8">
      <defs>
       <path id="mff111f2329" d="M 0 0 
L -3.5 0 
" style="stroke: #000000; stroke-width: 0.8"/>
      </defs>
      <g>
       <use xlink:href="#mff111f2329" x="43.78125" y="354.958125" style="stroke: #000000; stroke-width: 0.8"/>
      </g>
     </g>
     <g id="text_5">
      <!-- 0.0 -->
      <g transform="translate(20.878125 358.757344) scale(0.1 -0.1)">
       <defs>
        <path id="DejaVuSans-30" d="M 2034 4250 
Q 1547 4250 1301 3770 
Q 1056 3291 1056 2328 
Q 1056 1369 1301 889 
Q 1547 409 2034 409 
Q 2525 409 2770 889 
Q 3016 1369 3016 2328 
Q 3016 3291 2770 3770 
Q 2525 4250 2034 4250 
z
M 2034 4750 
Q 2819 4750 3233 4129 
Q 3647 3509 3647 2328 
Q 3647 1150 3233 529 
Q 2819 -91 2034 -91 
Q 1250 -91 836 529 
Q 422 1150 422 2328 
Q 422 3509 836 4129 
Q 1250 4750 2034 4750 
z
" transform="scale(0.015625)"/>
        <path id="DejaVuSans-2e" d="M 684 794 
L 1344 794 
L 1344 0 
L 684 0 
L 684 794 
z
" transform="scale(0.015625)"/>
       </defs>
       <use xlink:href="#DejaVuSans-30"/>
       <use xlink:href="#DejaVuSans-2e" transform="translate(63.623047 0)"/>
       <use xlink:href="#DejaVuSans-30" transform="translate(95.410156 0)"/>
      </g>
     </g>
    </g>
    <g id="ytick_2">
     <g id="line2d_9">
      <path d="M 43.78125 291.598125 
L 601.78125 291.598125 
" clip-path="url(#pc8f24ad339)" style="fill: none; stroke: #b0b0b0; stroke-opacity: 0.3; stroke-width: 0.8; stroke-linecap: square"/>
     </g>
     <g id="line2d_10">
      <g>
       <use xlink:href="#mff111f2329" x="43.78125" y="291.598125" style="stroke: #000000; stroke-width: 0.8"/>
      </g>
     </g>
     <g id="text_6">
      <!-- 0.2 -->
      <g transform="translate(20.878125 295.397344) scale(0.1 -0.1)">
       <use xlink:href="#DejaVuSans-30"/>
       <use xlink:href="#DejaVuSans-2e" transform="translate(63.623047 0)"/>
       <use xlink:href="#DejaVuSans-32" transform="translate(95.410156 0)"/>
      </g>
     </g>
    </g>
    <g id="ytick_3">
     <g id="line2d_11">
      <path d="M 43.78125 228.238125 
L 601.78125 228.238125 
" clip-path="url(#pc8f24ad339)" style="fill: none; stroke: #b0b0b0; stroke-opacity: 0.3; stroke-width: 0.8; stroke-linecap: square"/>
     </g>
     <g id="line2d_12">
      <g>
       <use xlink:href="#mff111f2329" x="43.78125" y="228.238125" style="stroke: #000000; stroke-width: 0.8"/>
      </g>
     </g>
     <g id="text_7">
      <!-- 0.4 -->
      <g transform="translate(20.878125 232.037344) scale(0.1 -0.1)">
       <defs>
        <path id="DejaVuSans-34" d="M 2419 4116 
L 825 1625 
L 2419 1625 
L 2419 4116 
z
M 2253 4666 
L 3047 4666 
L 3047 1625 
L 3713 1625 
L 3713 1100 
L 3047 1100 
L 3047 0 
L 2419 0 
L 2419 1100 
L 313 1100 
L 313 1709 
L 2253 4666 
z
" transform="scale(0.015625)"/>
       </defs>
       <use xlink:href="#DejaVuSans-30"/>
       <use xlink:href="#DejaVuSans-2e" transform="translate(63.623047 0)"/>
       <use xlink:href="#DejaVuSans-34" transform="translate(95.410156 0)"/>
      </g>
     </g>
    </g>
    <g id="ytick_4">
     <g id="line2d_13">
      <path d="M 43.78125 164.878125 
L 601.78125 164.878125 
" clip-path="url(#pc8f24ad339)" style="fill: none; stroke: #b0b0b0; stroke-opacity: 0.3; stroke-width: 0.8; stroke-linecap: square"/>
     </g>
     <g id="line2d_14">
      <g>
       <use xlink:href="#mff111f2329" x="43.78125" y="164.878125" style="stroke: #000000; stroke-width: 0.8"/>
      </g>
     </g>
     <g id="text_8">
      <!-- 0.6 -->
      <g transform="translate(20.878125 168.677344) scale(0.1 -0.1)">
       <defs>
        <path id="DejaVuSans-36" d="M 2113 2584 
Q 1688 2584 1439 2293 
Q 1191 2003 1191 1497 
Q 1191 994 1439 701 
Q 1688 409 2113 409 
Q 2538 409 2786 701 
Q 3034 994 3034 1497 
Q 3034 2003 2786 2293 
Q 2538 2584 2113 2584 
z
M 3366 4563 
L 3366 3988 
Q 3128 4100 2886 4159 
Q 2644 4219 2406 4219 
Q 1781 4219 1451 3797 
Q 1122 3375 1075 2522 
Q 1259 2794 1537 2939 
Q 1816 3084 2150 3084 
Q 2853 3084 3261 2657 
Q 3669 2231 3669 1497 
Q 3669 778 3244 343 
Q 2819 -91 2113 -91 
Q 1303 -91 875 529 
Q 447 1150 447 2328 
Q 447 3434 972 4092 
Q 1497 4750 2381 4750 
Q 2619 4750 2861 4703 
Q 3103 4656 3366 4563 
z
" transform="scale(0.015625)"/>
       </defs>
       <use xlink:href="#DejaVuSans-30"/>
       <use xlink:href="#DejaVuSans-2e" transform="translate(63.623047 0)"/>
       <use xlink:href="#DejaVuSans-36" transform="translate(95.410156 0)"/>
      </g>
     </g>
    </g>
    <g id="ytick_5">
     <g id="line2d_15">
      <path d="M 43.78125 101.518125 
L 601.78125 101.518125 
" clip-path="url(#pc8f24ad339)" style="fill: none; stroke: #b0b0b0; stroke-opacity: 0.3; stroke-width: 0.8; stroke-linecap: square"/>
     </g>
     <g id="line2d_16">
      <g>
       <use xlink:href="#mff111f2329" x="43.78125" y="101.518125" style="stroke: #000000; stroke-width: 0.8"/>
      </g>
     </g>
     <g id="text_9">
      <!-- 0.8 -->
      <g transform="translate(20.878125 105.317344) scale(0.1 -0.1)">
       <defs>
        <path id="DejaVuSans-38" d="M 2034 2216 
Q 1584 2216 1326 1975 
Q 1069 1734 1069 1313 
Q 1069 891 1326 650 
Q 1584 409 2034 409 
Q 2484 409 2743 651 
Q 3003 894 3003 1313 
Q 3003 1734 2745 1975 
Q 2488 2216 2034 2216 
z
M 1403 2484 
Q 997 2584 770 2862 
Q 544 3141 544 3541 
Q 544 4100 942 4425 
Q 1341 4750 2034 4750 
Q 2731 4750 3128 4425 
Q 3525 4100 3525 3541 
Q 3525 3141 3298 2862 
Q 3072 2584 2669 2484 
Q 3125 2378 3379 2068 
Q 3634 1759 3634 1313 
Q 3634 634 3220 271 
Q 2806 -91 2034 -91 
Q 1263 -91 848 271 
Q 434 634 434 1313 
Q 434 1759 690 2068 
Q 947 2378 1403 2484 
z
M 1172 3481 
Q 1172 3119 1398 2916 
Q 1625 2713 2034 2713 
Q 2441 2713 2670 2916 
Q 2900 3119 2900 3481 
Q 2900 3844 2670 4047 
Q 2441 4250 2034 4250 
Q 1625 4250 1398 4047 
Q 1172 3844 1172 3481 
z
" transform="scale(0.015625)"/>
       </defs>
       <use xlink:href="#DejaVuSans-30"/>
       <use xlink:href="#DejaVuSans-2e" transform="translate(63.623047 0)"/>
       <use xlink:href="#DejaVuSans-38" transform="translate(95.410156 0)"/>
      </g>
     </g>
    </g>
    <g id="ytick_6">
     <g id="line2d_17">
      <path d="M 43.78125 38.158125 
L 601.78125 38.158125 
" clip-path="url(#pc8f24ad339)" style="fill: none; stroke: #b0b0b0; stroke-opacity: 0.3; stroke-width: 0.8; stroke-linecap: square"/>
     </g>
     <g id="line2d_18">
      <g>
       <use xlink:href="#mff111f2329" x="43.78125" y="38.158125" style="stroke: #000000; stroke-width: 0.8"/>
      </g>
     </g>
     <g id="text_10">
      <!-- 1.0 -->
      <g transform="translate(20.878125 41.957344) scale(0.1 -0.1)">
       <use xlink:href="#DejaVuSans-31"/>
       <use xlink:href="#DejaVuSans-2e" transform="translate(63.623047 0)"/>
       <use xlink:href="#DejaVuSans-30" transform="translate(95.410156 0)"/>
      </g>
     </g>
    </g>
    <g id="text_11">
     <!-- Percentage of Samples -->
     <g transform="translate(14.798438 246.111562) rotate(-90) scale(0.1 -0.1)">
      <defs>
       <path id="DejaVuSans-50" d="M 1259 4147 
L 1259 2394 
L 2053 2394 
Q 2494 2394 2734 2622 
Q 2975 2850 2975 3272 
Q 2975 3691 2734 3919 
Q 2494 4147 2053 4147 
L 1259 4147 
z
M 628 4666 
L 2053 4666 
Q 2838 4666 3239 4311 
Q 3641 3956 3641 3272 
Q 3641 2581 3239 2228 
Q 2838 1875 2053 1875 
L 1259 1875 
L 1259 0 
L 628 0 
L 628 4666 
z
" transform="scale(0.015625)"/>
       <path id="DejaVuSans-63" d="M 3122 3366 
L 3122 2828 
Q 2878 2963 2633 3030 
Q 2388 3097 2138 3097 
Q 1578 3097 1268 2742 
Q 959 2388 959 1747 
Q 959 1106 1268 751 
Q 1578 397 2138 397 
Q 2388 397 2633 464 
Q 2878 531 3122 666 
L 3122 134 
Q 2881 22 2623 -34 
Q 2366 -91 2075 -91 
Q 1284 -91 818 406 
Q 353 903 353 1747 
Q 353 2603 823 3093 
Q 1294 3584 2113 3584 
Q 2378 3584 2631 3529 
Q 2884 3475 3122 3366 
z
" transform="scale(0.015625)"/>
       <path id="DejaVuSans-6e" d="M 3513 2113 
L 3513 0 
L 2938 0 
L 2938 2094 
Q 2938 2591 2744 2837 
Q 2550 3084 2163 3084 
Q 1697 3084 1428 2787 
Q 1159 2491 1159 1978 
L 1159 0 
L 581 0 
L 581 3500 
L 1159 3500 
L 1159 2956 
Q 1366 3272 1645 3428 
Q 1925 3584 2291 3584 
Q 2894 3584 3203 3211 
Q 3513 2838 3513 2113 
z
" transform="scale(0.015625)"/>
       <path id="DejaVuSans-67" d="M 2906 1791 
Q 2906 2416 2648 2759 
Q 2391 3103 1925 3103 
Q 1463 3103 1205 2759 
Q 947 2416 947 1791 
Q 947 1169 1205 825 
Q 1463 481 1925 481 
Q 2391 481 2648 825 
Q 2906 1169 2906 1791 
z
M 3481 434 
Q 3481 -459 3084 -895 
Q 2688 -1331 1869 -1331 
Q 1566 -1331 1297 -1286 
Q 1028 -1241 775 -1147 
L 775 -588 
Q 1028 -725 1275 -790 
Q 1522 -856 1778 -856 
Q 2344 -856 2625 -561 
Q 2906 -266 2906 331 
L 2906 616 
Q 2728 306 2450 153 
Q 2172 0 1784 0 
Q 1141 0 747 490 
Q 353 981 353 1791 
Q 353 2603 747 3093 
Q 1141 3584 1784 3584 
Q 2172 3584 2450 3431 
Q 2728 3278 2906 2969 
L 2906 3500 
L 3481 3500 
L 3481 434 
z
" transform="scale(0.015625)"/>
       <path id="DejaVuSans-70" d="M 1159 525 
L 1159 -1331 
L 581 -1331 
L 581 3500 
L 1159 3500 
L 1159 2969 
Q 1341 3281 1617 3432 
Q 1894 3584 2278 3584 
Q 2916 3584 3314 3078 
Q 3713 2572 3713 1747 
Q 3713 922 3314 415 
Q 2916 -91 2278 -91 
Q 1894 -91 1617 61 
Q 1341 213 1159 525 
z
M 3116 1747 
Q 3116 2381 2855 2742 
Q 2594 3103 2138 3103 
Q 1681 3103 1420 2742 
Q 1159 2381 1159 1747 
Q 1159 1113 1420 752 
Q 1681 391 2138 391 
Q 2594 391 2855 752 
Q 3116 1113 3116 1747 
z
" transform="scale(0.015625)"/>
      </defs>
      <use xlink:href="#DejaVuSans-50"/>
      <use xlink:href="#DejaVuSans-65" transform="translate(56.677734 0)"/>
      <use xlink:href="#DejaVuSans-72" transform="translate(118.201172 0)"/>
      <use xlink:href="#DejaVuSans-63" transform="translate(157.064453 0)"/>
      <use xlink:href="#DejaVuSans-65" transform="translate(212.044922 0)"/>
      <use xlink:href="#DejaVuSans-6e" transform="translate(273.568359 0)"/>
      <use xlink:href="#DejaVuSans-74" transform="translate(336.947266 0)"/>
      <use xlink:href="#DejaVuSans-61" transform="translate(376.15625 0)"/>
      <use xlink:href="#DejaVuSans-67" transform="translate(437.435547 0)"/>
      <use xlink:href="#DejaVuSans-65" transform="translate(500.912109 0)"/>
      <use xlink:href="#DejaVuSans-20" transform="translate(562.435547 0)"/>
      <use xlink:href="#DejaVuSans-6f" transform="translate(594.222656 0)"/>
      <use xlink:href="#DejaVuSans-66" transform="translate(655.404297 0)"/>
      <use xlink:href="#DejaVuSans-20" transform="translate(690.609375 0)"/>
      <use xlink:href="#DejaVuSans-53" transform="translate(722.396484 0)"/>
      <use xlink:href="#DejaVuSans-61" transform="translate(785.873047 0)"/>
      <use xlink:href="#DejaVuSans-6d" transform="translate(847.152344 0)"/>
      <use xlink:href="#DejaVuSans-70" transform="translate(944.564453 0)"/>
      <use xlink:href="#DejaVuSans-6c" transform="translate(1008.041016 0)"/>
      <use xlink:href="#DejaVuSans-65" transform="translate(1035.824219 0)"/>
      <use xlink:href="#DejaVuSans-73" transform="translate(1097.347656 0)"/>
     </g>
    </g>
   </g>
   <g id="patch_78">
    <path d="M 43.78125 354.958125 
L 43.78125 22.318125 
" style="fill: none; stroke: #000000; stroke-width: 0.8; stroke-linejoin: miter; stroke-linecap: square"/>
   </g>
   <g id="patch_79">
    <path d="M 601.78125 354.958125 
L 601.78125 22.318125 
" style="fill: none; stroke: #000000; stroke-width: 0.8; stroke-linejoin: miter; stroke-linecap: square"/>
   </g>
   <g id="patch_80">
    <path d="M 43.78125 354.958125 
L 601.78125 354.958125 
" style="fill: none; stroke: #000000; stroke-width: 0.8; stroke-linejoin: miter; stroke-linecap: square"/>
   </g>
   <g id="patch_81">
    <path d="M 43.78125 22.318125 
L 601.78125 22.318125 
" style="fill: none; stroke: #000000; stroke-width: 0.8; stroke-linejoin: miter; stroke-linecap: square"/>
   </g>
   <g id="text_12">
    <!-- Stability Analysis Matching Results (Parameter 98) -->
    <g transform="translate(171.194063 16.318125) scale(0.12 -0.12)">
     <defs>
      <path id="DejaVuSans-69" d="M 603 3500 
L 1178 3500 
L 1178 0 
L 603 0 
L 603 3500 
z
M 603 4863 
L 1178 4863 
L 1178 4134 
L 603 4134 
L 603 4863 
z
" transform="scale(0.015625)"/>
      <path id="DejaVuSans-79" d="M 2059 -325 
Q 1816 -950 1584 -1140 
Q 1353 -1331 966 -1331 
L 506 -1331 
L 506 -850 
L 844 -850 
Q 1081 -850 1212 -737 
Q 1344 -625 1503 -206 
L 1606 56 
L 191 3500 
L 800 3500 
L 1894 763 
L 2988 3500 
L 3597 3500 
L 2059 -325 
z
" transform="scale(0.015625)"/>
      <path id="DejaVuSans-41" d="M 2188 4044 
L 1331 1722 
L 3047 1722 
L 2188 4044 
z
M 1831 4666 
L 2547 4666 
L 4325 0 
L 3669 0 
L 3244 1197 
L 1141 1197 
L 716 0 
L 50 0 
L 1831 4666 
z
" transform="scale(0.015625)"/>
      <path id="DejaVuSans-4d" d="M 628 4666 
L 1569 4666 
L 2759 1491 
L 3956 4666 
L 4897 4666 
L 4897 0 
L 4281 0 
L 4281 4097 
L 3078 897 
L 2444 897 
L 1241 4097 
L 1241 0 
L 628 0 
L 628 4666 
z
" transform="scale(0.015625)"/>
      <path id="DejaVuSans-68" d="M 3513 2113 
L 3513 0 
L 2938 0 
L 2938 2094 
Q 2938 2591 2744 2837 
Q 2550 3084 2163 3084 
Q 1697 3084 1428 2787 
Q 1159 2491 1159 1978 
L 1159 0 
L 581 0 
L 581 4863 
L 1159 4863 
L 1159 2956 
Q 1366 3272 1645 3428 
Q 1925 3584 2291 3584 
Q 2894 3584 3203 3211 
Q 3513 2838 3513 2113 
z
" transform="scale(0.015625)"/>
      <path id="DejaVuSans-52" d="M 2841 2188 
Q 3044 2119 3236 1894 
Q 3428 1669 3622 1275 
L 4263 0 
L 3584 0 
L 2988 1197 
Q 2756 1666 2539 1819 
Q 2322 1972 1947 1972 
L 1259 1972 
L 1259 0 
L 628 0 
L 628 4666 
L 2053 4666 
Q 2853 4666 3247 4331 
Q 3641 3997 3641 3322 
Q 3641 2881 3436 2590 
Q 3231 2300 2841 2188 
z
M 1259 4147 
L 1259 2491 
L 2053 2491 
Q 2509 2491 2742 2702 
Q 2975 2913 2975 3322 
Q 2975 3731 2742 3939 
Q 2509 4147 2053 4147 
L 1259 4147 
z
" transform="scale(0.015625)"/>
      <path id="DejaVuSans-28" d="M 1984 4856 
Q 1566 4138 1362 3434 
Q 1159 2731 1159 2009 
Q 1159 1288 1364 580 
Q 1569 -128 1984 -844 
L 1484 -844 
Q 1016 -109 783 600 
Q 550 1309 550 2009 
Q 550 2706 781 3412 
Q 1013 4119 1484 4856 
L 1984 4856 
z
" transform="scale(0.015625)"/>
      <path id="DejaVuSans-39" d="M 703 97 
L 703 672 
Q 941 559 1184 500 
Q 1428 441 1663 441 
Q 2288 441 2617 861 
Q 2947 1281 2994 2138 
Q 2813 1869 2534 1725 
Q 2256 1581 1919 1581 
Q 1219 1581 811 2004 
Q 403 2428 403 3163 
Q 403 3881 828 4315 
Q 1253 4750 1959 4750 
Q 2769 4750 3195 4129 
Q 3622 3509 3622 2328 
Q 3622 1225 3098 567 
Q 2575 -91 1691 -91 
Q 1453 -91 1209 -44 
Q 966 3 703 97 
z
M 1959 2075 
Q 2384 2075 2632 2365 
Q 2881 2656 2881 3163 
Q 2881 3666 2632 3958 
Q 2384 4250 1959 4250 
Q 1534 4250 1286 3958 
Q 1038 3666 1038 3163 
Q 1038 2656 1286 2365 
Q 1534 2075 1959 2075 
z
" transform="scale(0.015625)"/>
      <path id="DejaVuSans-29" d="M 513 4856 
L 1013 4856 
Q 1481 4119 1714 3412 
Q 1947 2706 1947 2009 
Q 1947 1309 1714 600 
Q 1481 -109 1013 -844 
L 513 -844 
Q 928 -128 1133 580 
Q 1338 1288 1338 2009 
Q 1338 2731 1133 3434 
Q 928 4138 513 4856 
z
" transform="scale(0.015625)"/>
     </defs>
     <use xlink:href="#DejaVuSans-53"/>
     <use xlink:href="#DejaVuSans-74" transform="translate(63.476562 0)"/>
     <use xlink:href="#DejaVuSans-61" transform="translate(102.685547 0)"/>
     <use xlink:href="#DejaVuSans-62" transform="translate(163.964844 0)"/>
     <use xlink:href="#DejaVuSans-69" transform="translate(227.441406 0)"/>
     <use xlink:href="#DejaVuSans-6c" transform="translate(255.224609 0)"/>
     <use xlink:href="#DejaVuSans-69" transform="translate(283.007812 0)"/>
     <use xlink:href="#DejaVuSans-74" transform="translate(310.791016 0)"/>
     <use xlink:href="#DejaVuSans-79" transform="translate(350 0)"/>
     <use xlink:href="#DejaVuSans-20" transform="translate(409.179688 0)"/>
     <use xlink:href="#DejaVuSans-41" transform="translate(440.966797 0)"/>
     <use xlink:href="#DejaVuSans-6e" transform="translate(509.375 0)"/>
     <use xlink:href="#DejaVuSans-61" transform="translate(572.753906 0)"/>
     <use xlink:href="#DejaVuSans-6c" transform="translate(634.033203 0)"/>
     <use xlink:href="#DejaVuSans-79" transform="translate(661.816406 0)"/>
     <use xlink:href="#DejaVuSans-73" transform="translate(720.996094 0)"/>
     <use xlink:href="#DejaVuSans-69" transform="translate(773.095703 0)"/>
     <use xlink:href="#DejaVuSans-73" transform="translate(800.878906 0)"/>
     <use xlink:href="#DejaVuSans-20" transform="translate(852.978516 0)"/>
     <use xlink:href="#DejaVuSans-4d" transform="translate(884.765625 0)"/>
     <use xlink:href="#DejaVuSans-61" transform="translate(971.044922 0)"/>
     <use xlink:href="#DejaVuSans-74" transform="translate(1032.324219 0)"/>
     <use xlink:href="#DejaVuSans-63" transform="translate(1071.533203 0)"/>
     <use xlink:href="#DejaVuSans-68" transform="translate(1126.513672 0)"/>
     <use xlink:href="#DejaVuSans-69" transform="translate(1189.892578 0)"/>
     <use xlink:href="#DejaVuSans-6e" transform="translate(1217.675781 0)"/>
     <use xlink:href="#DejaVuSans-67" transform="translate(1281.054688 0)"/>
     <use xlink:href="#DejaVuSans-20" transform="translate(1344.53125 0)"/>
     <use xlink:href="#DejaVuSans-52" transform="translate(1376.318359 0)"/>
     <use xlink:href="#DejaVuSans-65" transform="translate(1441.300781 0)"/>
     <use xlink:href="#DejaVuSans-73" transform="translate(1502.824219 0)"/>
     <use xlink:href="#DejaVuSans-75" transform="translate(1554.923828 0)"/>
     <use xlink:href="#DejaVuSans-6c" transform="translate(1618.302734 0)"/>
     <use xlink:href="#DejaVuSans-74" transform="translate(1646.085938 0)"/>
     <use xlink:href="#DejaVuSans-73" transform="translate(1685.294922 0)"/>
     <use xlink:href="#DejaVuSans-20" transform="translate(1737.394531 0)"/>
     <use xlink:href="#DejaVuSans-28" transform="translate(1769.181641 0)"/>
     <use xlink:href="#DejaVuSans-50" transform="translate(1808.195312 0)"/>
     <use xlink:href="#DejaVuSans-61" transform="translate(1863.998047 0)"/>
     <use xlink:href="#DejaVuSans-72" transform="translate(1925.277344 0)"/>
     <use xlink:href="#DejaVuSans-61" transform="translate(1966.390625 0)"/>
     <use xlink:href="#DejaVuSans-6d" transform="translate(2027.669922 0)"/>
     <use xlink:href="#DejaVuSans-65" transform="translate(2125.082031 0)"/>
     <use xlink:href="#DejaVuSans-74" transform="translate(2186.605469 0)"/>
     <use xlink:href="#DejaVuSans-65" transform="translate(2225.814453 0)"/>
     <use xlink:href="#DejaVuSans-72" transform="translate(2287.337891 0)"/>
     <use xlink:href="#DejaVuSans-20" transform="translate(2328.451172 0)"/>
     <use xlink:href="#DejaVuSans-39" transform="translate(2360.238281 0)"/>
     <use xlink:href="#DejaVuSans-38" transform="translate(2423.861328 0)"/>
     <use xlink:href="#DejaVuSans-29" transform="translate(2487.484375 0)"/>
    </g>
   </g>
   <g id="legend_1">
    <g id="patch_82">
     <path d="M 49.61225 187.931541 
L 161.989156 187.931541 
Q 163.655156 187.931541 163.655156 186.265541 
L 163.655156 28.149125 
Q 163.655156 26.483125 161.989156 26.483125 
L 49.61225 26.483125 
Q 47.94625 26.483125 47.94625 28.149125 
L 47.94625 186.265541 
Q 47.94625 187.931541 49.61225 187.931541 
z
" style="fill: #ffffff; opacity: 0.8; stroke: #cccccc; stroke-linejoin: miter"/>
    </g>
    <g id="patch_83">
     <path d="M 51.27825 36.144623 
L 67.93825 36.144623 
L 67.93825 30.313623 
L 51.27825 30.313623 
z
" style="fill: #1f77b4"/>
    </g>
    <g id="text_13">
     <!-- d=2 -->
     <g transform="translate(74.60225 36.144623) scale(0.0833 -0.0833)">
      <defs>
       <path id="DejaVuSans-64" d="M 2906 2969 
L 2906 4863 
L 3481 4863 
L 3481 0 
L 2906 0 
L 2906 525 
Q 2725 213 2448 61 
Q 2172 -91 1784 -91 
Q 1150 -91 751 415 
Q 353 922 353 1747 
Q 353 2572 751 3078 
Q 1150 3584 1784 3584 
Q 2172 3584 2448 3432 
Q 2725 3281 2906 2969 
z
M 947 1747 
Q 947 1113 1208 752 
Q 1469 391 1925 391 
Q 2381 391 2643 752 
Q 2906 1113 2906 1747 
Q 2906 2381 2643 2742 
Q 2381 3103 1925 3103 
Q 1469 3103 1208 2742 
Q 947 2381 947 1747 
z
" transform="scale(0.015625)"/>
       <path id="DejaVuSans-3d" d="M 678 2906 
L 4684 2906 
L 4684 2381 
L 678 2381 
L 678 2906 
z
M 678 1631 
L 4684 1631 
L 4684 1100 
L 678 1100 
L 678 1631 
z
" transform="scale(0.015625)"/>
      </defs>
      <use xlink:href="#DejaVuSans-64"/>
      <use xlink:href="#DejaVuSans-3d" transform="translate(63.476562 0)"/>
      <use xlink:href="#DejaVuSans-32" transform="translate(147.265625 0)"/>
     </g>
    </g>
    <g id="patch_84">
     <path d="M 51.27825 48.371502 
L 67.93825 48.371502 
L 67.93825 42.540502 
L 51.27825 42.540502 
z
" style="fill: #ff7f0e"/>
    </g>
    <g id="text_14">
     <!-- d=3 -->
     <g transform="translate(74.60225 48.371502) scale(0.0833 -0.0833)">
      <use xlink:href="#DejaVuSans-64"/>
      <use xlink:href="#DejaVuSans-3d" transform="translate(63.476562 0)"/>
      <use xlink:href="#DejaVuSans-33" transform="translate(147.265625 0)"/>
     </g>
    </g>
    <g id="patch_85">
     <path d="M 51.27825 60.59838 
L 67.93825 60.59838 
L 67.93825 54.76738 
L 51.27825 54.76738 
z
" style="fill: #2ca02c"/>
    </g>
    <g id="text_15">
     <!-- d=5 -->
     <g transform="translate(74.60225 60.59838) scale(0.0833 -0.0833)">
      <defs>
       <path id="DejaVuSans-35" d="M 691 4666 
L 3169 4666 
L 3169 4134 
L 1269 4134 
L 1269 2991 
Q 1406 3038 1543 3061 
Q 1681 3084 1819 3084 
Q 2600 3084 3056 2656 
Q 3513 2228 3513 1497 
Q 3513 744 3044 326 
Q 2575 -91 1722 -91 
Q 1428 -91 1123 -41 
Q 819 9 494 109 
L 494 744 
Q 775 591 1075 516 
Q 1375 441 1709 441 
Q 2250 441 2565 725 
Q 2881 1009 2881 1497 
Q 2881 1984 2565 2268 
Q 2250 2553 1709 2553 
Q 1456 2553 1204 2497 
Q 953 2441 691 2322 
L 691 4666 
z
" transform="scale(0.015625)"/>
      </defs>
      <use xlink:href="#DejaVuSans-64"/>
      <use xlink:href="#DejaVuSans-3d" transform="translate(63.476562 0)"/>
      <use xlink:href="#DejaVuSans-35" transform="translate(147.265625 0)"/>
     </g>
    </g>
    <g id="patch_86">
     <path d="M 51.27825 72.825258 
L 67.93825 72.825258 
L 67.93825 66.994258 
L 51.27825 66.994258 
z
" style="fill: #d62728"/>
    </g>
    <g id="text_16">
     <!-- d=7 -->
     <g transform="translate(74.60225 72.825258) scale(0.0833 -0.0833)">
      <defs>
       <path id="DejaVuSans-37" d="M 525 4666 
L 3525 4666 
L 3525 4397 
L 1831 0 
L 1172 0 
L 2766 4134 
L 525 4134 
L 525 4666 
z
" transform="scale(0.015625)"/>
      </defs>
      <use xlink:href="#DejaVuSans-64"/>
      <use xlink:href="#DejaVuSans-3d" transform="translate(63.476562 0)"/>
      <use xlink:href="#DejaVuSans-37" transform="translate(147.265625 0)"/>
     </g>
    </g>
    <g id="patch_87">
     <path d="M 51.27825 85.052136 
L 67.93825 85.052136 
L 67.93825 79.221136 
L 51.27825 79.221136 
z
" style="fill: #9467bd"/>
    </g>
    <g id="text_17">
     <!-- d=11 -->
     <g transform="translate(74.60225 85.052136) scale(0.0833 -0.0833)">
      <use xlink:href="#DejaVuSans-64"/>
      <use xlink:href="#DejaVuSans-3d" transform="translate(63.476562 0)"/>
      <use xlink:href="#DejaVuSans-31" transform="translate(147.265625 0)"/>
      <use xlink:href="#DejaVuSans-31" transform="translate(210.888672 0)"/>
     </g>
    </g>
    <g id="patch_88">
     <path d="M 51.27825 97.279014 
L 67.93825 97.279014 
L 67.93825 91.448014 
L 51.27825 91.448014 
z
" style="fill: #8c564b"/>
    </g>
    <g id="text_18">
     <!-- d=13 -->
     <g transform="translate(74.60225 97.279014) scale(0.0833 -0.0833)">
      <use xlink:href="#DejaVuSans-64"/>
      <use xlink:href="#DejaVuSans-3d" transform="translate(63.476562 0)"/>
      <use xlink:href="#DejaVuSans-31" transform="translate(147.265625 0)"/>
      <use xlink:href="#DejaVuSans-33" transform="translate(210.888672 0)"/>
     </g>
    </g>
    <g id="patch_89">
     <path d="M 51.27825 109.505892 
L 67.93825 109.505892 
L 67.93825 103.674892 
L 51.27825 103.674892 
z
" style="fill: #e377c2"/>
    </g>
    <g id="text_19">
     <!-- d=17 -->
     <g transform="translate(74.60225 109.505892) scale(0.0833 -0.0833)">
      <use xlink:href="#DejaVuSans-64"/>
      <use xlink:href="#DejaVuSans-3d" transform="translate(63.476562 0)"/>
      <use xlink:href="#DejaVuSans-31" transform="translate(147.265625 0)"/>
      <use xlink:href="#DejaVuSans-37" transform="translate(210.888672 0)"/>
     </g>
    </g>
    <g id="patch_90">
     <path d="M 51.27825 121.73277 
L 67.93825 121.73277 
L 67.93825 115.90177 
L 51.27825 115.90177 
z
" style="fill: #7f7f7f"/>
    </g>
    <g id="text_20">
     <!-- d=19 -->
     <g transform="translate(74.60225 121.73277) scale(0.0833 -0.0833)">
      <use xlink:href="#DejaVuSans-64"/>
      <use xlink:href="#DejaVuSans-3d" transform="translate(63.476562 0)"/>
      <use xlink:href="#DejaVuSans-31" transform="translate(147.265625 0)"/>
      <use xlink:href="#DejaVuSans-39" transform="translate(210.888672 0)"/>
     </g>
    </g>
    <g id="patch_91">
     <path d="M 51.27825 133.959648 
L 67.93825 133.959648 
L 67.93825 128.128648 
L 51.27825 128.128648 
z
" style="fill: #bcbd22"/>
    </g>
    <g id="text_21">
     <!-- d=23 -->
     <g transform="translate(74.60225 133.959648) scale(0.0833 -0.0833)">
      <use xlink:href="#DejaVuSans-64"/>
      <use xlink:href="#DejaVuSans-3d" transform="translate(63.476562 0)"/>
      <use xlink:href="#DejaVuSans-32" transform="translate(147.265625 0)"/>
      <use xlink:href="#DejaVuSans-33" transform="translate(210.888672 0)"/>
     </g>
    </g>
    <g id="patch_92">
     <path d="M 51.27825 146.186527 
L 67.93825 146.186527 
L 67.93825 140.355527 
L 51.27825 140.355527 
z
" style="fill: #17becf"/>
    </g>
    <g id="text_22">
     <!-- d=29 -->
     <g transform="translate(74.60225 146.186527) scale(0.0833 -0.0833)">
      <use xlink:href="#DejaVuSans-64"/>
      <use xlink:href="#DejaVuSans-3d" transform="translate(63.476562 0)"/>
      <use xlink:href="#DejaVuSans-32" transform="translate(147.265625 0)"/>
      <use xlink:href="#DejaVuSans-39" transform="translate(210.888672 0)"/>
     </g>
    </g>
    <g id="patch_93">
     <path d="M 51.27825 158.413405 
L 67.93825 158.413405 
L 67.93825 152.582405 
L 51.27825 152.582405 
z
" style="fill: #1f77b4"/>
    </g>
    <g id="text_23">
     <!-- d=31 -->
     <g transform="translate(74.60225 158.413405) scale(0.0833 -0.0833)">
      <use xlink:href="#DejaVuSans-64"/>
      <use xlink:href="#DejaVuSans-3d" transform="translate(63.476562 0)"/>
      <use xlink:href="#DejaVuSans-33" transform="translate(147.265625 0)"/>
      <use xlink:href="#DejaVuSans-31" transform="translate(210.888672 0)"/>
     </g>
    </g>
    <g id="patch_94">
     <path d="M 51.27825 170.640283 
L 67.93825 170.640283 
L 67.93825 164.809283 
L 51.27825 164.809283 
z
" style="fill: #ff7f0e"/>
    </g>
    <g id="text_24">
     <!-- d=37 -->
     <g transform="translate(74.60225 170.640283) scale(0.0833 -0.0833)">
      <use xlink:href="#DejaVuSans-64"/>
      <use xlink:href="#DejaVuSans-3d" transform="translate(63.476562 0)"/>
      <use xlink:href="#DejaVuSans-33" transform="translate(147.265625 0)"/>
      <use xlink:href="#DejaVuSans-37" transform="translate(210.888672 0)"/>
     </g>
    </g>
    <g id="patch_95">
     <path d="M 51.27825 182.867161 
L 67.93825 182.867161 
L 67.93825 177.036161 
L 51.27825 177.036161 
z
" style="fill: #2ca02c"/>
    </g>
    <g id="text_25">
     <!-- d=41 -->
     <g transform="translate(74.60225 182.867161) scale(0.0833 -0.0833)">
      <use xlink:href="#DejaVuSans-64"/>
      <use xlink:href="#DejaVuSans-3d" transform="translate(63.476562 0)"/>
      <use xlink:href="#DejaVuSans-34" transform="translate(147.265625 0)"/>
      <use xlink:href="#DejaVuSans-31" transform="translate(210.888672 0)"/>
     </g>
    </g>
    <g id="patch_96">
     <path d="M 114.130703 36.144623 
L 130.790703 36.144623 
L 130.790703 30.313623 
L 114.130703 30.313623 
z
" style="fill: #d62728"/>
    </g>
    <g id="text_26">
     <!-- d=43 -->
     <g transform="translate(137.454703 36.144623) scale(0.0833 -0.0833)">
      <use xlink:href="#DejaVuSans-64"/>
      <use xlink:href="#DejaVuSans-3d" transform="translate(63.476562 0)"/>
      <use xlink:href="#DejaVuSans-34" transform="translate(147.265625 0)"/>
      <use xlink:href="#DejaVuSans-33" transform="translate(210.888672 0)"/>
     </g>
    </g>
    <g id="patch_97">
     <path d="M 114.130703 48.371502 
L 130.790703 48.371502 
L 130.790703 42.540502 
L 114.130703 42.540502 
z
" style="fill: #9467bd"/>
    </g>
    <g id="text_27">
     <!-- d=47 -->
     <g transform="translate(137.454703 48.371502) scale(0.0833 -0.0833)">
      <use xlink:href="#DejaVuSans-64"/>
      <use xlink:href="#DejaVuSans-3d" transform="translate(63.476562 0)"/>
      <use xlink:href="#DejaVuSans-34" transform="translate(147.265625 0)"/>
      <use xlink:href="#DejaVuSans-37" transform="translate(210.888672 0)"/>
     </g>
    </g>
    <g id="patch_98">
     <path d="M 114.130703 60.59838 
L 130.790703 60.59838 
L 130.790703 54.76738 
L 114.130703 54.76738 
z
" style="fill: #8c564b"/>
    </g>
    <g id="text_28">
     <!-- d=53 -->
     <g transform="translate(137.454703 60.59838) scale(0.0833 -0.0833)">
      <use xlink:href="#DejaVuSans-64"/>
      <use xlink:href="#DejaVuSans-3d" transform="translate(63.476562 0)"/>
      <use xlink:href="#DejaVuSans-35" transform="translate(147.265625 0)"/>
      <use xlink:href="#DejaVuSans-33" transform="translate(210.888672 0)"/>
     </g>
    </g>
    <g id="patch_99">
     <path d="M 114.130703 72.825258 
L 130.790703 72.825258 
L 130.790703 66.994258 
L 114.130703 66.994258 
z
" style="fill: #e377c2"/>
    </g>
    <g id="text_29">
     <!-- d=59 -->
     <g transform="translate(137.454703 72.825258) scale(0.0833 -0.0833)">
      <use xlink:href="#DejaVuSans-64"/>
      <use xlink:href="#DejaVuSans-3d" transform="translate(63.476562 0)"/>
      <use xlink:href="#DejaVuSans-35" transform="translate(147.265625 0)"/>
      <use xlink:href="#DejaVuSans-39" transform="translate(210.888672 0)"/>
     </g>
    </g>
    <g id="patch_100">
     <path d="M 114.130703 85.052136 
L 130.790703 85.052136 
L 130.790703 79.221136 
L 114.130703 79.221136 
z
" style="fill: #7f7f7f"/>
    </g>
    <g id="text_30">
     <!-- d=61 -->
     <g transform="translate(137.454703 85.052136) scale(0.0833 -0.0833)">
      <use xlink:href="#DejaVuSans-64"/>
      <use xlink:href="#DejaVuSans-3d" transform="translate(63.476562 0)"/>
      <use xlink:href="#DejaVuSans-36" transform="translate(147.265625 0)"/>
      <use xlink:href="#DejaVuSans-31" transform="translate(210.888672 0)"/>
     </g>
    </g>
    <g id="patch_101">
     <path d="M 114.130703 97.279014 
L 130.790703 97.279014 
L 130.790703 91.448014 
L 114.130703 91.448014 
z
" style="fill: #bcbd22"/>
    </g>
    <g id="text_31">
     <!-- d=67 -->
     <g transform="translate(137.454703 97.279014) scale(0.0833 -0.0833)">
      <use xlink:href="#DejaVuSans-64"/>
      <use xlink:href="#DejaVuSans-3d" transform="translate(63.476562 0)"/>
      <use xlink:href="#DejaVuSans-36" transform="translate(147.265625 0)"/>
      <use xlink:href="#DejaVuSans-37" transform="translate(210.888672 0)"/>
     </g>
    </g>
    <g id="patch_102">
     <path d="M 114.130703 109.505892 
L 130.790703 109.505892 
L 130.790703 103.674892 
L 114.130703 103.674892 
z
" style="fill: #17becf"/>
    </g>
    <g id="text_32">
     <!-- d=71 -->
     <g transform="translate(137.454703 109.505892) scale(0.0833 -0.0833)">
      <use xlink:href="#DejaVuSans-64"/>
      <use xlink:href="#DejaVuSans-3d" transform="translate(63.476562 0)"/>
      <use xlink:href="#DejaVuSans-37" transform="translate(147.265625 0)"/>
      <use xlink:href="#DejaVuSans-31" transform="translate(210.888672 0)"/>
     </g>
    </g>
    <g id="patch_103">
     <path d="M 114.130703 121.73277 
L 130.790703 121.73277 
L 130.790703 115.90177 
L 114.130703 115.90177 
z
" style="fill: #1f77b4"/>
    </g>
    <g id="text_33">
     <!-- d=73 -->
     <g transform="translate(137.454703 121.73277) scale(0.0833 -0.0833)">
      <use xlink:href="#DejaVuSans-64"/>
      <use xlink:href="#DejaVuSans-3d" transform="translate(63.476562 0)"/>
      <use xlink:href="#DejaVuSans-37" transform="translate(147.265625 0)"/>
      <use xlink:href="#DejaVuSans-33" transform="translate(210.888672 0)"/>
     </g>
    </g>
    <g id="patch_104">
     <path d="M 114.130703 133.959648 
L 130.790703 133.959648 
L 130.790703 128.128648 
L 114.130703 128.128648 
z
" style="fill: #ff7f0e"/>
    </g>
    <g id="text_34">
     <!-- d=79 -->
     <g transform="translate(137.454703 133.959648) scale(0.0833 -0.0833)">
      <use xlink:href="#DejaVuSans-64"/>
      <use xlink:href="#DejaVuSans-3d" transform="translate(63.476562 0)"/>
      <use xlink:href="#DejaVuSans-37" transform="translate(147.265625 0)"/>
      <use xlink:href="#DejaVuSans-39" transform="translate(210.888672 0)"/>
     </g>
    </g>
    <g id="patch_105">
     <path d="M 114.130703 146.186527 
L 130.790703 146.186527 
L 130.790703 140.355527 
L 114.130703 140.355527 
z
" style="fill: #2ca02c"/>
    </g>
    <g id="text_35">
     <!-- d=83 -->
     <g transform="translate(137.454703 146.186527) scale(0.0833 -0.0833)">
      <use xlink:href="#DejaVuSans-64"/>
      <use xlink:href="#DejaVuSans-3d" transform="translate(63.476562 0)"/>
      <use xlink:href="#DejaVuSans-38" transform="translate(147.265625 0)"/>
      <use xlink:href="#DejaVuSans-33" transform="translate(210.888672 0)"/>
     </g>
    </g>
    <g id="patch_106">
     <path d="M 114.130703 158.413405 
L 130.790703 158.413405 
L 130.790703 152.582405 
L 114.130703 152.582405 
z
" style="fill: #d62728"/>
    </g>
    <g id="text_36">
     <!-- d=89 -->
     <g transform="translate(137.454703 158.413405) scale(0.0833 -0.0833)">
      <use xlink:href="#DejaVuSans-64"/>
      <use xlink:href="#DejaVuSans-3d" transform="translate(63.476562 0)"/>
      <use xlink:href="#DejaVuSans-38" transform="translate(147.265625 0)"/>
      <use xlink:href="#DejaVuSans-39" transform="translate(210.888672 0)"/>
     </g>
    </g>
    <g id="patch_107">
     <path d="M 114.130703 170.640283 
L 130.790703 170.640283 
L 130.790703 164.809283 
L 114.130703 164.809283 
z
" style="fill: #9467bd"/>
    </g>
    <g id="text_37">
     <!-- d=97 -->
     <g transform="translate(137.454703 170.640283) scale(0.0833 -0.0833)">
      <use xlink:href="#DejaVuSans-64"/>
      <use xlink:href="#DejaVuSans-3d" transform="translate(63.476562 0)"/>
      <use xlink:href="#DejaVuSans-39" transform="translate(147.265625 0)"/>
      <use xlink:href="#DejaVuSans-37" transform="translate(210.888672 0)"/>
     </g>
    </g>
   </g>
  </g>
 </g>
 <defs>
  <clipPath id="pc8f24ad339">
   <rect x="43.78125" y="22.318125" width="558" height="332.64"/>
  </clipPath>
 </defs>
</svg>
